SplineFontDB: 3.0
FontName: Ultra
FullName: Ultra
FamilyName: Ultra
Weight: Black
Copyright: Copyright (c) 2010 by Brian J. Bonislawsky DBA Astigmatic (AOETI). All rights reserved. Available under the Apache 2.0 licence.\nhttp://www.apache.org/licenses/LICENSE-2.0.html
Version: 1.000
ItalicAngle: 0
UnderlinePosition: -103
UnderlineWidth: 102
Ascent: 1638
Descent: 410
sfntRevision: 0x00010000
LayerCount: 2
Layer: 0 1 "Back"  1
Layer: 1 1 "Fore"  0
NeedsXUIDChange: 1
XUID: [1021 288 713564382 7019189]
FSType: 0
OS2Version: 3
OS2_WeightWidthSlopeOnly: 0
OS2_UseTypoMetrics: 1
CreationTime: 1304129940
ModificationTime: 1318899232
PfmFamily: 17
TTFWeight: 900
TTFWidth: 5
LineGap: 0
VLineGap: 0
Panose: 2 6 5 5 0 0 0 2 0 4
OS2TypoAscent: 428
OS2TypoAOffset: 1
OS2TypoDescent: -151
OS2TypoDOffset: 1
OS2TypoLinegap: 0
OS2WinAscent: 0
OS2WinAOffset: 1
OS2WinDescent: 0
OS2WinDOffset: 1
HheadAscent: 0
HheadAOffset: 1
HheadDescent: 0
HheadDOffset: 1
OS2SubXSize: 1434
OS2SubYSize: 1331
OS2SubXOff: 0
OS2SubYOff: 287
OS2SupXSize: 1434
OS2SupYSize: 1331
OS2SupXOff: 0
OS2SupYOff: 977
OS2StrikeYSize: 102
OS2StrikeYPos: 512
OS2Vendor: 'AOEF'
OS2CodePages: 00000093.00000000
OS2UnicodeRanges: a00000ef.4000004a.00000000.00000000
Lookup: 258 0 0 "'kern' Horizontal Kerning in Latin lookup 0"  {"'kern' Horizontal Kerning in Latin lookup 0 per glyph data 0"  "'kern' Horizontal Kerning in Latin lookup 0 kerning class 1"  } ['kern' ('latn' <'dflt' > ) ]
DEI: 91125
KernClass2: 26+ 27 "'kern' Horizontal Kerning in Latin lookup 0 kerning class 1" 
 73 A Agrave Aacute Acircumflex Atilde Adieresis Aring Amacron Abreve Aogonek
 47 C Ccedilla Cacute Ccircumflex Cdotaccent Ccaron
 19 D Dcaron Eth Dcroat
 1 F
 44 G Gcircumflex Gbreve Gdotaccent Gcommaaccent
 14 K Kcommaaccent
 28 L Lacute Lcommaaccent Lslash
 94 O Q Ograve Oacute Ocircumflex Otilde Odieresis Omacron Obreve Ohungarumlaut Oslash Oslashacute
 1 X
 1 P
 28 R Racute Rcommaaccent Rcaron
 26 T Tcommaaccent Tcaron Tbar

StartChar: A
Encoding: 65 65 1
Width: 1647
Flags: HMW
LayerCount: 2
Fore
SplineSet
838 514 m 1,0,-1
 522 514 l 1,1,-1
 508 471 l 1,2,3
 492 428 492 428 510 399.5 c 128,-1,4
 528 371 528 371 586 371 c 2,5,-1
 643 371 l 1,6,-1
 643 0 l 1,7,-1
 20 0 l 1,8,-1
 20 371 l 1,9,-1
 61 371 l 2,10,11
 133 371 133 371 157.5 399.5 c 128,-1,12
 182 428 182 428 205 483 c 2,13,-1
 410 989 l 1,14,15
 432 1047 432 1047 417.5 1074.5 c 128,-1,16
 403 1102 403 1102 330 1102 c 2,17,-1
 309 1102 l 1,18,-1
 309 1473 l 1,19,-1
 1337 1473 l 1,20,-1
 1337 1102 l 1,21,-1
 1317 1102 l 2,22,23
 1243 1102 1243 1102 1228.5 1073 c 128,-1,24
 1214 1044 1214 1044 1237 989 c 2,25,-1
 1442 483 l 1,26,27
 1470.43119266 416.660550459 1470.43119266 416.660550459 1485.71559633 400.830275229 c 0,28,29
 1514.51724138 371 1514.51724138 371 1585 371 c 2,30,-1
 1626 371 l 1,31,-1
 1626 0 l 1,32,-1
 717 0 l 1,33,-1
 717 371 l 1,34,-1
 772 371 l 2,35,36
 829 371 829 371 848.5 399.5 c 128,-1,37
 868 428 868 428 852 471 c 1,38,-1
 838 514 l 1,0,-1
573 670 m 1,39,-1
 786 670 l 1,40,-1
 686 977 l 1,41,-1
 678 977 l 1,42,-1
 573 670 l 1,39,-1
EndSplineSet
EndChar

StartChar: B
Encoding: 66 66 2
Width: 1722
Flags: HMW
LayerCount: 2
Fore
SplineSet
1640 1106 m 0,0,1
 1640 786 1640 786 1307 756 c 1,2,-1
 1307 745 l 1,3,4
 1481 741 1481 741 1581 650 c 128,-1,5
 1681 559 1681 559 1681 387 c 0,6,7
 1681 315 1681 315 1664 245.5 c 128,-1,8
 1647 176 1647 176 1590.5 122 c 0,9,10
 1462.85185185 -1.13686837722e-13 1462.85185185 -1.13686837722e-13 1141 0 c 2,11,-1
 41 0 l 1,12,-1
 41 371 l 1,13,14
 129 371 129 371 167 394.5 c 128,-1,15
 205 418 205 418 205 483 c 2,16,-1
 205 989 l 2,17,18
 205 1055 205 1055 167 1078.5 c 128,-1,19
 129 1102 129 1102 41 1102 c 1,20,-1
 41 1473 l 1,21,-1
 1210 1473 l 2,22,23
 1462.07843137 1473 1462.07843137 1473 1564 1360 c 0,24,25
 1640 1275.73913043 1640 1275.73913043 1640 1106 c 0,0,1
944 371 m 2,26,27
 1028 371 1028 371 1060 403.5 c 128,-1,28
 1092 436 1092 436 1092 512 c 256,29,30
 1092 588 1092 588 1060 622.5 c 128,-1,31
 1028 657 1028 657 944 657 c 2,32,-1
 795 657 l 1,33,-1
 795 371 l 1,34,-1
 944 371 l 2,26,27
795 834 m 1,35,-1
 946 834 l 2,36,37
 1008 834 1008 834 1035.5 873.5 c 128,-1,38
 1063 913 1063 913 1063 967.5 c 128,-1,39
 1063 1022 1063 1022 1035.5 1062 c 128,-1,40
 1008 1102 1008 1102 946 1102 c 2,41,-1
 795 1102 l 1,42,-1
 795 834 l 1,35,-1
EndSplineSet
EndChar

StartChar: C
Encoding: 67 67 3
Width: 1616
Flags: HMW
LayerCount: 2
Fore
SplineSet
799 1513 m 0,0,1
 1017 1513 1017 1513 1171 1401 c 1,2,-1
 1171 1473 l 1,3,-1
 1501 1473 l 1,4,-1
 1501 928 l 1,5,-1
 1151 928 l 1,6,7
 1151 1051.4 1151 1051.4 1090.5 1113 c 0,8,9
 1039.42857143 1165 1039.42857143 1165 963.214285714 1165 c 128,-1,10
 887 1165 887 1165 845 1142.5 c 128,-1,11
 803 1120 803 1120 776.5 1070 c 0,12,13
 723 969.056603774 723 969.056603774 723 735 c 0,14,15
 723 393.043478261 723 393.043478261 857 327.5 c 0,16,17
 903 305 903 305 956.5 305 c 128,-1,18
 1010 305 1010 305 1050 321.5 c 128,-1,19
 1090 338 1090 338 1120.5 372 c 0,20,21
 1186 445.016393443 1186 445.016393443 1186 580 c 1,22,-1
 1534 580 l 1,23,24
 1534 307 1534 307 1369 142 c 0,25,26
 1184 -43 1184 -43 842 -43 c 0,27,28
 491.638297872 -43 491.638297872 -43 283.5 139 c 0,29,30
 51 342.302325581 51 342.302325581 51 735 c 256,31,32
 51 1122.76076555 51 1122.76076555 282.5 1331 c 0,33,34
 484.829787234 1513 484.829787234 1513 799 1513 c 0,0,1
EndSplineSet
EndChar

StartChar: D
Encoding: 68 68 4
Width: 1901
Flags: HMW
LayerCount: 2
Fore
SplineSet
889 371 m 2,0,1
 1024.05263158 371 1024.05263158 371 1088.5 433 c 0,2,3
 1178 519.101265823 1178 519.101265823 1178 735 c 0,4,5
 1178 1047.79439252 1178 1047.79439252 999.5 1089.5 c 0,6,7
 946 1102 946 1102 889 1102 c 2,8,-1
 795 1102 l 1,9,-1
 795 371 l 1,10,-1
 889 371 l 2,0,1
41 0 m 1,11,-1
 41 371 l 1,12,13
 129 371 129 371 167 394.5 c 128,-1,14
 205 418 205 418 205 483 c 2,15,-1
 205 989 l 2,16,17
 205 1055 205 1055 167 1078.5 c 128,-1,18
 129 1102 129 1102 41 1102 c 1,19,-1
 41 1473 l 1,20,-1
 1102 1473 l 2,21,22
 1420.65116279 1473 1420.65116279 1473 1617.5 1311 c 0,23,24
 1849 1120.48325359 1849 1120.48325359 1849 735 c 256,25,26
 1849 346 1849 346 1616.5 160 c 0,27,28
 1414 -2 1414 -2 1059 -2 c 2,29,-1
 41 0 l 1,11,-1
EndSplineSet
EndChar

StartChar: E
Encoding: 69 69 5
Width: 1507
Flags: HMW
LayerCount: 2
Fore
SplineSet
975 371 m 2,0,1
 1059.15384615 371 1059.15384615 371 1081.57692308 397.5 c 128,-1,2
 1104 424 1104 424 1110 458 c 128,-1,3
 1116 492 1116 492 1116 545 c 1,4,-1
 1466 545 l 1,5,-1
 1466 0 l 1,6,-1
 41 0 l 1,7,-1
 41 371 l 1,8,9
 129 371 129 371 167 394.5 c 128,-1,10
 205 418 205 418 205 483 c 2,11,-1
 205 989 l 2,12,13
 205 1055 205 1055 167 1078.5 c 128,-1,14
 129 1102 129 1102 41 1102 c 1,15,-1
 41 1473 l 1,16,-1
 1466 1473 l 1,17,-1
 1466 928 l 1,18,-1
 1116 928 l 1,19,20
 1116 1035.18181818 1116 1035.18181818 1093.5 1061.09090909 c 128,-1,21
 1071 1087 1071 1087 1043.5 1094.5 c 128,-1,22
 1016 1102 1016 1102 975 1102 c 2,23,-1
 795 1102 l 1,24,-1
 795 836 l 1,25,-1
 1114 836 l 1,26,-1
 1114 659 l 1,27,-1
 795 659 l 1,28,-1
 795 371 l 1,29,-1
 975 371 l 2,0,1
EndSplineSet
EndChar

StartChar: F
Encoding: 70 70 6
Width: 1507
Flags: HMW
LayerCount: 2
Fore
SplineSet
41 0 m 1,0,-1
 41 371 l 1,1,2
 129 371 129 371 167 394.5 c 128,-1,3
 205 418 205 418 205 483 c 2,4,-1
 205 989 l 2,5,6
 205 1055 205 1055 167 1078.5 c 128,-1,7
 129 1102 129 1102 41 1102 c 1,8,-1
 41 1473 l 1,9,-1
 1425 1473 l 1,10,-1
 1425 907 l 1,11,-1
 1075 907 l 1,12,13
 1075 1028.36363636 1075 1028.36363636 1052.5 1057.68181818 c 128,-1,14
 1030 1087 1030 1087 1002.5 1094.5 c 128,-1,15
 975 1102 975 1102 934 1102 c 2,16,-1
 795 1102 l 1,17,-1
 795 813 l 1,18,-1
 1114 813 l 1,19,-1
 1114 637 l 1,20,-1
 795 637 l 1,21,-1
 795 483 l 2,22,23
 795 430 795 430 821.5 400.5 c 128,-1,24
 848 371 848 371 918 371 c 2,25,-1
 1020 371 l 1,26,-1
 1020 0 l 1,27,-1
 41 0 l 1,0,-1
EndSplineSet
EndChar

StartChar: G
Encoding: 71 71 7
Width: 1794
Flags: HMW
LayerCount: 2
Fore
SplineSet
1282 0 m 1,0,-1
 1249 100 l 1,1,2
 1186 43 1186 43 1075.5 0 c 128,-1,3
 965 -43 965 -43 812 -43 c 128,-1,4
 659 -43 659 -43 515 1 c 128,-1,5
 371 45 371 45 263.5 139 c 0,6,7
 31 342.302325581 31 342.302325581 31 735 c 256,8,9
 31 1121.77419355 31 1121.77419355 272.5 1331 c 0,10,11
 482.574468085 1513 482.574468085 1513 799 1513 c 0,12,13
 1014.18604651 1513 1014.18604651 1513 1155 1426.5 c 0,14,15
 1190 1405 1190 1405 1212 1391 c 1,16,-1
 1212 1473 l 1,17,-1
 1542 1473 l 1,18,-1
 1542 928 l 1,19,-1
 1192 928 l 1,20,21
 1188 1034 1188 1034 1128.5 1099.5 c 128,-1,22
 1069 1165 1069 1165 963 1165 c 0,23,24
 702 1165 702 1165 702 735 c 0,25,26
 702 498.842105263 702 498.842105263 757.5 400.5 c 0,27,28
 811.396039604 305 811.396039604 305 936 305 c 0,29,30
 1006.625 305 1006.625 305 1046.5 338 c 0,31,32
 1061 350 1061 350 1061 371 c 2,33,-1
 1061 426 l 2,34,35
 1061 473 1061 473 1029 497.5 c 128,-1,36
 997 522 997 522 909 522 c 1,37,-1
 909 852 l 1,38,-1
 1753 852 l 1,39,-1
 1753 522 l 1,40,41
 1665 522 1665 522 1627 498.5 c 128,-1,42
 1589 475 1589 475 1589 410 c 2,43,-1
 1589 0 l 1,44,-1
 1282 0 l 1,0,-1
EndSplineSet
EndChar

StartChar: H
Encoding: 72 72 8
Width: 1933
Flags: HMW
LayerCount: 2
Fore
SplineSet
1139 657 m 1,0,-1
 795 657 l 1,1,-1
 795 471 l 2,2,3
 795 418 795 418 824.5 394.5 c 128,-1,4
 854 371 854 371 930 371 c 1,5,-1
 930 0 l 1,6,-1
 41 0 l 1,7,-1
 41 371 l 1,8,9
 129 371 129 371 167 394.5 c 128,-1,10
 205 418 205 418 205 483 c 2,11,-1
 205 989 l 2,12,13
 205 1055 205 1055 167 1078.5 c 128,-1,14
 129 1102 129 1102 41 1102 c 1,15,-1
 41 1473 l 1,16,-1
 930 1473 l 1,17,-1
 930 1102 l 1,18,19
 854 1102 854 1102 824.5 1078.5 c 128,-1,20
 795 1055 795 1055 795 1001 c 2,21,-1
 795 840 l 1,22,-1
 1139 840 l 1,23,-1
 1139 1001 l 2,24,25
 1139 1055 1139 1055 1109 1078.5 c 128,-1,26
 1079 1102 1079 1102 1004 1102 c 1,27,-1
 1004 1473 l 1,28,-1
 1892 1473 l 1,29,-1
 1892 1102 l 1,30,31
 1804 1102 1804 1102 1766.5 1078.5 c 128,-1,32
 1729 1055 1729 1055 1729 989 c 2,33,-1
 1729 483 l 2,34,35
 1729 418 1729 418 1766.5 394.5 c 128,-1,36
 1804 371 1804 371 1892 371 c 1,37,-1
 1892 0 l 1,38,-1
 1004 0 l 1,39,-1
 1004 371 l 1,40,41
 1079 371 1079 371 1109 394.5 c 128,-1,42
 1139 418 1139 418 1139 471 c 2,43,-1
 1139 657 l 1,0,-1
EndSplineSet
EndChar

StartChar: I
Encoding: 73 73 9
Width: 999
Flags: HMW
LayerCount: 2
Fore
SplineSet
41 0 m 1,0,-1
 41 371 l 1,1,2
 129 371 129 371 167 394.5 c 128,-1,3
 205 418 205 418 205 483 c 2,4,-1
 205 989 l 2,5,6
 205 1055 205 1055 167 1078.5 c 128,-1,7
 129 1102 129 1102 41 1102 c 1,8,-1
 41 1473 l 1,9,-1
 958 1473 l 1,10,-1
 958 1102 l 1,11,12
 870 1102 870 1102 832.5 1078.5 c 128,-1,13
 795 1055 795 1055 795 989 c 2,14,-1
 795 483 l 2,15,16
 795 418 795 418 832.5 394.5 c 128,-1,17
 870 371 870 371 958 371 c 1,18,-1
 958 0 l 1,19,-1
 41 0 l 1,0,-1
EndSplineSet
EndChar

StartChar: J
Encoding: 74 74 10
Width: 1509
Flags: HMW
LayerCount: 2
Fore
SplineSet
414 332 m 0,0,1
 256.307692308 332 256.307692308 332 199 481 c 1,2,3
 209.390243902 268 209.390243902 268 444 268 c 0,4,5
 658.75 268 658.75 268 702.5 429 c 0,6,7
 715 475 715 475 715 524 c 2,8,-1
 715 1001 l 2,9,10
 715 1055 715 1055 680 1078.5 c 128,-1,11
 645 1102 645 1102 539 1102 c 1,12,-1
 539 1473 l 1,13,-1
 1468 1473 l 1,14,-1
 1468 1102 l 1,15,16
 1380 1102 1380 1102 1342.5 1078.5 c 128,-1,17
 1305 1055 1305 1055 1305 989 c 2,18,-1
 1305 526 l 2,19,20
 1305 161.044 1305 161.044 983 15.5 c 0,21,22
 858 -41 858 -41 667.5 -41 c 128,-1,23
 477 -41 477 -41 359.5 10 c 128,-1,24
 242 61 242 61 176.5 136 c 128,-1,25
 111 211 111 211 86 294 c 128,-1,26
 61 377 61 377 61 451.5 c 128,-1,27
 61 526 61 526 87 594 c 128,-1,28
 113 662 113 662 154 707 c 0,29,30
 236 797 236 797 362 797 c 0,31,32
 491.411764706 797 491.411764706 797 562 722 c 0,33,34
 623 657.1875 623 657.1875 623 557 c 0,35,36
 623 461.4 623 461.4 562.5 396.5 c 0,37,38
 502.372881356 332 502.372881356 332 414 332 c 0,0,1
EndSplineSet
EndChar

StartChar: K
Encoding: 75 75 11
Width: 1892
Flags: HMW
LayerCount: 2
Fore
SplineSet
795 858 m 1,0,-1
 993 981 l 1,1,2
 1061.21188119 1017.87128713 1061.21188119 1017.87128713 1047.5 1061.5 c 0,3,4
 1042 1079 1042 1079 1021.5 1090.5 c 128,-1,5
 1001 1102 1001 1102 975 1102 c 1,6,-1
 975 1473 l 1,7,-1
 1782 1473 l 1,8,-1
 1782 1102 l 1,9,10
 1667.51428571 1102 1667.51428571 1102 1563 1040 c 2,11,-1
 1356 918 l 1,12,-1
 1692 483 l 1,13,14
 1732.03676471 425.169117647 1732.03676471 425.169117647 1759.01838235 406.084558824 c 0,15,16
 1808.62068966 371 1808.62068966 371 1882 371 c 1,17,-1
 1882 0 l 1,18,-1
 975 0 l 1,19,-1
 975 371 l 1,20,21
 1050.14285714 371 1050.14285714 371 1062 412.5 c 0,22,23
 1070.51724138 442.310344828 1070.51724138 442.310344828 1049 471 c 1,24,-1
 905 651 l 1,25,-1
 795 584 l 1,26,-1
 795 471 l 2,27,28
 795 412.545454545 795 412.545454545 808 397.772727273 c 0,29,30
 831.56 371 831.56 371 901 371 c 1,31,-1
 901 0 l 1,32,-1
 41 0 l 1,33,-1
 41 371 l 1,34,35
 129 371 129 371 167 394.5 c 128,-1,36
 205 418 205 418 205 483 c 2,37,-1
 205 989 l 2,38,39
 205 1055 205 1055 167 1078.5 c 128,-1,40
 129 1102 129 1102 41 1102 c 1,41,-1
 41 1473 l 1,42,-1
 901 1473 l 1,43,-1
 901 1102 l 1,44,45
 831.56 1102 831.56 1102 815.28 1083.5 c 128,-1,46
 799 1065 799 1065 797 1046.5 c 128,-1,47
 795 1028 795 1028 795 1001 c 2,48,-1
 795 858 l 1,0,-1
EndSplineSet
EndChar

StartChar: L
Encoding: 76 76 12
Width: 1528
Flags: HMW
LayerCount: 2
Fore
SplineSet
958 1102 m 1,0,1
 870 1102 870 1102 832.5 1078.5 c 128,-1,2
 795 1055 795 1055 795 989 c 2,3,-1
 795 371 l 1,4,-1
 995 371 l 2,5,6
 1081.96078431 371 1081.96078431 371 1108 412.5 c 0,7,8
 1137 458.71875 1137 458.71875 1137 606 c 1,9,-1
 1487 606 l 1,10,-1
 1487 0 l 1,11,-1
 41 0 l 1,12,-1
 41 371 l 1,13,14
 129 371 129 371 167 394.5 c 128,-1,15
 205 418 205 418 205 483 c 2,16,-1
 205 989 l 2,17,18
 205 1055 205 1055 167 1078.5 c 128,-1,19
 129 1102 129 1102 41 1102 c 1,20,-1
 41 1473 l 1,21,-1
 958 1473 l 1,22,-1
 958 1102 l 1,0,1
EndSplineSet
EndChar

StartChar: M
Encoding: 77 77 13
Width: 2404
Flags: HMW
LayerCount: 2
Fore
SplineSet
1477 0 m 1,0,-1
 1477 371 l 1,1,2
 1565 371 1565 371 1592.5 394.5 c 128,-1,3
 1620 418 1620 418 1620 483 c 2,4,-1
 1620 1057 l 1,5,-1
 1278 0 l 1,6,-1
 893 0 l 1,7,-1
 545 1001 l 1,8,-1
 545 471 l 2,9,10
 545 407.516129032 545 407.516129032 566.5 392.258064516 c 0,11,12
 596.454545455 371 596.454545455 371 688 371 c 1,13,-1
 688 0 l 1,14,-1
 41 0 l 1,15,-1
 41 371 l 1,16,17
 129 371 129 371 167 394.5 c 128,-1,18
 205 418 205 418 205 483 c 2,19,-1
 205 989 l 2,20,21
 205 1055 205 1055 167 1078.5 c 128,-1,22
 129 1102 129 1102 41 1102 c 1,23,-1
 41 1473 l 1,24,-1
 993 1473 l 1,25,-1
 1223 782 l 1,26,-1
 1423 1473 l 1,27,-1
 2363 1473 l 1,28,-1
 2363 1102 l 1,29,30
 2275 1102 2275 1102 2237.5 1078.5 c 128,-1,31
 2200 1055 2200 1055 2200 989 c 2,32,-1
 2200 483 l 2,33,34
 2200 418 2200 418 2237.5 394.5 c 128,-1,35
 2275 371 2275 371 2363 371 c 1,36,-1
 2363 0 l 1,37,-1
 1477 0 l 1,0,-1
EndSplineSet
EndChar

StartChar: N
Encoding: 78 78 14
Width: 1851
Flags: HMW
LayerCount: 2
Fore
SplineSet
1831 1473 m 1,0,-1
 1831 1102 l 1,1,2
 1743 1102 1743 1102 1715.5 1073 c 128,-1,3
 1688 1044 1688 1044 1688 989 c 2,4,-1
 1688 0 l 1,5,-1
 1087 0 l 1,6,-1
 565 817 l 1,7,-1
 565 471 l 2,8,9
 565 406 565 406 603 388.5 c 128,-1,10
 641 371 641 371 729 371 c 1,11,-1
 729 0 l 1,12,-1
 41 0 l 1,13,-1
 41 371 l 1,14,15
 129 371 129 371 167 394.5 c 128,-1,16
 205 418 205 418 205 483 c 2,17,-1
 205 989 l 2,18,19
 205 1055 205 1055 167 1078.5 c 128,-1,20
 129 1102 129 1102 41 1102 c 1,21,-1
 41 1473 l 1,22,-1
 827 1473 l 1,23,-1
 1327 690 l 1,24,-1
 1327 989 l 2,25,26
 1327 1055 1327 1055 1299.5 1078.5 c 128,-1,27
 1272 1102 1272 1102 1184 1102 c 1,28,-1
 1184 1473 l 1,29,-1
 1831 1473 l 1,0,-1
EndSplineSet
EndChar

StartChar: O
Encoding: 79 79 15
Width: 1843
Flags: HMW
LayerCount: 2
Fore
SplineSet
51 735.5 m 0,0,1
 51 928 51 928 114.5 1073.5 c 128,-1,2
 178 1219 178 1219 294 1317 c 0,3,4
 526 1513 526 1513 922 1513 c 0,5,6
 1318.5 1513 1318.5 1513 1549.5 1317 c 0,7,8
 1792 1111.24242424 1792 1111.24242424 1792 735 c 0,9,10
 1792 360.307359307 1792 360.307359307 1549.5 153.5 c 0,11,12
 1319.08629442 -43 1319.08629442 -43 922 -43 c 0,13,14
 525.411167513 -43 525.411167513 -43 294 153.5 c 0,15,16
 51 359.840517241 51 359.840517241 51 735.5 c 0,0,1
723 734 m 0,17,18
 723 614 723 614 732 532.5 c 128,-1,19
 741 451 741 451 763.5 400.5 c 0,20,21
 806.04950495 305 806.04950495 305 922 305 c 0,22,23
 1036.95049505 305 1036.95049505 305 1079.5 400.5 c 0,24,25
 1120 491.4 1120 491.4 1120 735 c 0,26,27
 1120 980 1120 980 1079.5 1070 c 0,28,29
 1036.75 1165 1036.75 1165 922 1165 c 0,30,31
 806.25 1165 806.25 1165 763.5 1070 c 0,32,33
 723 980 723 980 723 734 c 0,17,18
EndSplineSet
EndChar

StartChar: P
Encoding: 80 80 16
Width: 1661
Flags: HMW
LayerCount: 2
Fore
SplineSet
795 543 m 1,0,-1
 795 483 l 2,1,2
 795 430 795 430 821.5 400.5 c 128,-1,3
 848 371 848 371 918 371 c 2,4,-1
 1020 371 l 1,5,-1
 1020 0 l 1,6,-1
 41 0 l 1,7,-1
 41 371 l 1,8,9
 129 371 129 371 167 394.5 c 128,-1,10
 205 418 205 418 205 483 c 2,11,-1
 205 989 l 2,12,13
 205 1055 205 1055 167 1078.5 c 128,-1,14
 129 1102 129 1102 41 1102 c 1,15,-1
 41 1473 l 1,16,-1
 1120 1473 l 2,17,18
 1533.12921348 1473 1533.12921348 1473 1614.5 1189 c 0,19,20
 1640 1100 1640 1100 1640 992.5 c 128,-1,21
 1640 885 1640 885 1614.5 802 c 128,-1,22
 1589 719 1589 719 1528.5 660.5 c 0,23,24
 1406.98290598 543 1406.98290598 543 1120 543 c 2,25,-1
 795 543 l 1,0,-1
1051 940 m 0,26,27
 1051 1102 1051 1102 903 1102 c 2,28,-1
 795 1102 l 1,29,-1
 795 780 l 1,30,-1
 903 780 l 2,31,32
 987 780 987 780 1019 824 c 128,-1,33
 1051 868 1051 868 1051 940 c 0,26,27
EndSplineSet
EndChar

StartChar: Q
Encoding: 81 81 17
Width: 1882
Flags: HMW
LayerCount: 2
Fore
SplineSet
1233 -4 m 1,0,1
 877.152219265 -88.5138479246 877.152219265 -88.5138479246 569.5 6 c 0,2,3
 241.366495403 106.805904233 241.366495403 106.805904233 114.5 397.5 c 0,4,5
 51 543 51 543 51 735.5 c 128,-1,6
 51 928 51 928 114.5 1073.5 c 128,-1,7
 178 1219 178 1219 294 1317 c 0,8,9
 526 1513 526 1513 922 1513 c 0,10,11
 1318.5 1513 1318.5 1513 1549.5 1317 c 0,12,13
 1792 1111.24242424 1792 1111.24242424 1792 731.654545455 c 128,-1,14
 1792 352.066666667 1792 352.066666667 1528 135 c 1,15,16
 1568.8 84 1568.8 84 1628.4 84 c 128,-1,17
 1688 84 1688 84 1715.5 106.5 c 128,-1,18
 1743 129 1743 129 1756 162 c 0,19,20
 1771.21543408 200.623794212 1771.21543408 200.623794212 1778 299 c 1,21,-1
 1872 299 l 1,22,23
 1872 37 1872 37 1794 -90 c 128,-1,24
 1716 -217 1716 -217 1550 -217 c 0,25,26
 1436 -217 1436 -217 1361 -161.5 c 128,-1,27
 1286 -106 1286 -106 1233 -4 c 1,0,1
1112 545 m 1,28,29
 1120 627 1120 627 1120 740.5 c 128,-1,30
 1120 854 1120 854 1111 937 c 128,-1,31
 1102 1020 1102 1020 1079.5 1070 c 0,32,33
 1036.75 1165 1036.75 1165 922 1165 c 0,34,35
 806.25 1165 806.25 1165 763.5 1070 c 0,36,37
 723 980 723 980 723 735 c 0,38,39
 723 589 723 589 733 514 c 1,40,41
 814.24137931 590 814.24137931 590 916.995689655 590 c 128,-1,42
 1019.75 590 1019.75 590 1112 545 c 1,28,29
922 305 m 0,43,44
 1024 305 1024 305 1067 375 c 1,45,46
 1036 422 1036 422 988 450.5 c 128,-1,47
 940 479 940 479 885.5 479 c 128,-1,48
 831 479 831 479 807.5 451.5 c 128,-1,49
 784 424 784 424 784 387 c 128,-1,50
 784 350 784 350 826 327.5 c 128,-1,51
 868 305 868 305 922 305 c 0,43,44
EndSplineSet
EndChar

StartChar: R
Encoding: 82 82 18
Width: 1792
Flags: HMW
LayerCount: 2
Fore
SplineSet
1792 291 m 2,0,1
 1792 -41 1792 -41 1374 -41 c 256,2,3
 1063.10084034 -41 1063.10084034 -41 1007.5 159.5 c 0,4,5
 991 219 991 219 991 285 c 2,6,-1
 991 362 l 2,7,8
 991 516.853658537 991 516.853658537 952.5 568.5 c 0,9,10
 918.581818182 614 918.581818182 614 819 614 c 2,11,-1
 795 614 l 1,12,-1
 795 471 l 2,13,14
 795 418 795 418 824.5 394.5 c 128,-1,15
 854 371 854 371 930 371 c 1,16,-1
 930 0 l 1,17,-1
 41 0 l 1,18,-1
 41 371 l 1,19,20
 129 371 129 371 167 394.5 c 128,-1,21
 205 418 205 418 205 483 c 2,22,-1
 205 989 l 2,23,24
 205 1055 205 1055 167 1078.5 c 128,-1,25
 129 1102 129 1102 41 1102 c 1,26,-1
 41 1473 l 1,27,-1
 1100 1473 l 2,28,29
 1512.56 1473 1512.56 1473 1594.5 1232 c 0,30,31
 1620 1157 1620 1157 1620 1065 c 0,32,33
 1620 897 1620 897 1539 796.5 c 128,-1,34
 1458 696 1458 696 1280 688 c 1,35,-1
 1280 676 l 1,36,37
 1515.24909091 659.587272727 1515.24909091 659.587272727 1557.5 476.5 c 0,38,39
 1571 418 1571 418 1571 344 c 2,40,-1
 1571 291 l 2,41,42
 1571 266 1571 266 1584 247.5 c 128,-1,43
 1597 229 1597 229 1624 229 c 0,44,45
 1677 229 1677 229 1677 291 c 2,46,-1
 1677 545 l 1,47,-1
 1792 545 l 1,48,-1
 1792 291 l 2,0,1
795 791 m 1,49,-1
 883 791 l 2,50,51
 967 791 967 791 998.5 831.5 c 128,-1,52
 1030 872 1030 872 1030 950 c 128,-1,53
 1030 1028 1030 1028 998.5 1065 c 128,-1,54
 967 1102 967 1102 883 1102 c 2,55,-1
 795 1102 l 1,56,-1
 795 791 l 1,49,-1
EndSplineSet
EndChar

StartChar: S
Encoding: 83 83 19
Width: 1503
Flags: HMW
LayerCount: 2
Fore
SplineSet
393 88 m 1,0,-1
 393 0 l 1,1,-1
 63 0 l 1,2,-1
 63 545 l 1,3,-1
 393 545 l 1,4,5
 422 428 422 428 509 360.5 c 128,-1,6
 596 293 596 293 687 293 c 128,-1,7
 778 293 778 293 814 320.5 c 128,-1,8
 850 348 850 348 850 393 c 128,-1,9
 850 438 850 438 790.5 468 c 128,-1,10
 731 498 731 498 643 521.5 c 128,-1,11
 555 545 555 545 450.5 574.5 c 128,-1,12
 346 604 346 604 258 659.5 c 0,13,14
 51 790.051136364 51 790.051136364 51 1044 c 0,15,16
 51 1252.58227848 51 1252.58227848 224 1378.5 c 0,17,18
 384.060869565 1495 384.060869565 1495 625 1495 c 0,19,20
 784 1495 784 1495 898 1458 c 128,-1,21
 1012 1421 1012 1421 1075 1380 c 1,22,-1
 1075 1473 l 1,23,-1
 1405 1473 l 1,24,-1
 1405 938 l 1,25,-1
 1075 938 l 1,26,27
 1059.10762332 1039.31390135 1059.10762332 1039.31390135 972 1109 c 0,28,29
 888.25 1176 888.25 1176 782 1176 c 0,30,31
 719 1176 719 1176 680 1152 c 128,-1,32
 641 1128 641 1128 641 1086 c 128,-1,33
 641 1044 641 1044 676 1018.5 c 128,-1,34
 711 993 711 993 768 974.5 c 128,-1,35
 825 956 825 956 898 939 c 128,-1,36
 971 922 971 922 1046.5 897 c 128,-1,37
 1122 872 1122 872 1195 836.5 c 128,-1,38
 1268 801 1268 801 1325 745.5 c 0,39,40
 1452 621.842105263 1452 621.842105263 1452 418 c 0,41,42
 1452 195.046511628 1452 195.046511628 1264 77 c 0,43,44
 1098.37037037 -27 1098.37037037 -27 850.316332726 -27 c 128,-1,45
 602.262295082 -27 602.262295082 -27 393 88 c 1,0,-1
EndSplineSet
EndChar

StartChar: T
Encoding: 84 84 20
Width: 1655
Flags: HMW
LayerCount: 2
Fore
SplineSet
1634 1473 m 1,0,-1
 1634 887 l 1,1,-1
 1305 887 l 1,2,3
 1305 1035.20833333 1305 1035.20833333 1289.5 1074.60416667 c 128,-1,4
 1274 1114 1274 1114 1249.5 1128.5 c 128,-1,5
 1225 1143 1225 1143 1184 1143 c 2,6,-1
 1122 1143 l 1,7,-1
 1122 483 l 2,8,9
 1122 418 1122 418 1160 394.5 c 128,-1,10
 1198 371 1198 371 1286 371 c 1,11,-1
 1286 0 l 1,12,-1
 369 0 l 1,13,-1
 369 371 l 1,14,15
 457 371 457 371 494.5 394.5 c 128,-1,16
 532 418 532 418 532 483 c 2,17,-1
 532 1143 l 1,18,-1
 471 1143 l 2,19,20
 392.885245902 1143 392.885245902 1143 368.5 1083.5 c 0,21,22
 350 1038.36 350 1038.36 350 887 c 1,23,-1
 20 887 l 1,24,-1
 20 1473 l 1,25,-1
 1634 1473 l 1,0,-1
EndSplineSet
EndChar

StartChar: U
Encoding: 85 85 21
Width: 1710
Flags: HMW
LayerCount: 2
Fore
SplineSet
965 350 m 0,0,1
 1149 350 1149 350 1149 537 c 2,2,-1
 1149 997 l 2,3,4
 1149 1059 1149 1059 1112 1080.5 c 128,-1,5
 1075 1102 1075 1102 1010 1102 c 1,6,-1
 1010 1473 l 1,7,-1
 1669 1473 l 1,8,-1
 1669 1102 l 1,9,10
 1602 1102 1602 1102 1566 1082.5 c 128,-1,11
 1530 1063 1530 1063 1530 1001 c 2,12,-1
 1530 524 l 2,13,14
 1530 289.605839416 1530 289.605839416 1414.5 150.5 c 0,15,16
 1255.4969697 -41 1255.4969697 -41 883 -41 c 0,17,18
 604.888888889 -41 604.888888889 -41 436 59 c 0,19,20
 205 195.776315789 205 195.776315789 205 508 c 2,21,-1
 205 989 l 2,22,23
 205 1055 205 1055 167 1078.5 c 128,-1,24
 129 1102 129 1102 41 1102 c 1,25,-1
 41 1473 l 1,26,-1
 930 1473 l 1,27,-1
 930 1102 l 1,28,29
 854 1102 854 1102 824.5 1078.5 c 128,-1,30
 795 1055 795 1055 795 1001 c 2,31,-1
 795 539 l 2,32,33
 795 350 795 350 965 350 c 0,0,1
EndSplineSet
EndChar

StartChar: V
Encoding: 86 86 22
Width: 1544
Flags: HMW
LayerCount: 2
Fore
SplineSet
164 989 m 2,0,1
 138.550881954 1054.74355495 138.550881954 1054.74355495 117.275440977 1072.37177748 c 0,2,3
 81.5172413793 1102 81.5172413793 1102 0 1102 c 1,4,-1
 0 1473 l 1,5,-1
 868 1473 l 1,6,-1
 868 1102 l 1,7,8
 719 1102 719 1102 754 1001 c 1,9,-1
 909 516 l 1,10,-1
 918 516 l 1,11,-1
 1077 1001 l 1,12,13
 1112 1102 1112 1102 963 1102 c 1,14,-1
 963 1473 l 1,15,-1
 1544 1473 l 1,16,-1
 1544 1102 l 1,17,18
 1462.48275862 1102 1462.48275862 1102 1437.74137931 1081.5 c 128,-1,19
 1413 1061 1413 1061 1403 1040.5 c 128,-1,20
 1393 1020 1393 1020 1380 989 c 2,21,-1
 993 0 l 1,22,-1
 549 0 l 1,23,-1
 164 989 l 2,0,1
EndSplineSet
EndChar

StartChar: W
Encoding: 87 87 23
Width: 2398
Flags: HMW
LayerCount: 2
Fore
SplineSet
1204 535 m 1,0,-1
 1014 0 l 1,1,-1
 569 0 l 1,2,-1
 184 989 l 2,3,4
 158.078697422 1055.96336499 158.078697422 1055.96336499 137.539348711 1072.9816825 c 0,5,6
 102.517241379 1102 102.517241379 1102 20 1102 c 1,7,-1
 20 1473 l 1,8,-1
 856 1473 l 1,9,-1
 856 1102 l 1,10,11
 803 1102 803 1102 780.5 1076.5 c 128,-1,12
 758 1051 758 1051 774 1001 c 2,13,-1
 920 516 l 1,14,-1
 928 516 l 1,15,-1
 1059 930 l 1,16,-1
 1038 989 l 2,17,18
 1016 1049 1016 1049 996.5 1075.5 c 128,-1,19
 977 1102 977 1102 930 1102 c 1,20,-1
 930 1473 l 1,21,-1
 1722 1473 l 1,22,-1
 1722 1102 l 1,23,24
 1647 1102 1647 1102 1629.5 1076.5 c 128,-1,25
 1612 1051 1612 1051 1628 1001 c 1,26,-1
 1753 516 l 1,27,-1
 1761 516 l 1,28,-1
 1911 1001 l 2,29,30
 1942 1102 1942 1102 1796 1102 c 1,31,-1
 1796 1473 l 1,32,-1
 2378 1473 l 1,33,-1
 2378 1102 l 1,34,35
 2293.22222222 1102 2293.22222222 1102 2270.11111111 1082.5 c 128,-1,36
 2247 1063 2247 1063 2236.5 1041.5 c 128,-1,37
 2226 1020 2226 1020 2214 989 c 2,38,-1
 1847 0 l 1,39,-1
 1403 0 l 1,40,-1
 1204 535 l 1,0,-1
EndSplineSet
EndChar

StartChar: X
Encoding: 88 88 24
Width: 1569
Flags: HMW
LayerCount: 2
Fore
SplineSet
901 913 m 1,0,-1
 991 1001 l 2,1,2
 1036.4375 1046.4375 1036.4375 1046.4375 1032.21875 1064.71875 c 0,3,4
 1023.61538462 1102 1023.61538462 1102 938 1102 c 1,5,-1
 938 1473 l 1,6,-1
 1520 1473 l 1,7,-1
 1520 1102 l 1,8,9
 1456 1102 1456 1102 1405 1076.5 c 128,-1,10
 1354 1051 1354 1051 1294 989 c 1,11,-1
 1061 754 l 1,12,-1
 1333 483 l 1,13,14
 1449.97777778 371 1449.97777778 371 1538 371 c 1,15,-1
 1538 0 l 1,16,-1
 700 0 l 1,17,-1
 700 371 l 1,18,19
 781.333333333 371 781.333333333 371 789.5 402.5 c 0,20,21
 796.294117647 428.705882353 796.294117647 428.705882353 754 471 c 2,22,-1
 657 565 l 1,23,-1
 559 471 l 1,24,25
 513.818181818 425.818181818 513.818181818 425.818181818 517.909090909 407.409090909 c 0,26,27
 526 371 526 371 612 371 c 1,28,-1
 612 0 l 1,29,-1
 31 0 l 1,30,-1
 31 371 l 1,31,32
 94 371 94 371 145.5 396.5 c 128,-1,33
 197 422 197 422 256 483 c 2,34,-1
 496 727 l 1,35,-1
 233 989 l 1,36,37
 186 1034 186 1034 139 1068 c 128,-1,38
 92 1102 92 1102 39 1102 c 1,39,-1
 39 1473 l 1,40,-1
 856 1473 l 1,41,-1
 856 1102 l 1,42,43
 776.923076923 1102 776.923076923 1102 772 1070 c 0,44,45
 768.595588235 1047.87132353 768.595588235 1047.87132353 813 1001 c 1,46,-1
 901 913 l 1,0,-1
EndSplineSet
EndChar

StartChar: Y
Encoding: 89 89 25
Width: 1575
Flags: HMW
LayerCount: 2
Fore
SplineSet
205 989 m 1,0,1
 182 1012 182 1012 166 1032.5 c 128,-1,2
 150 1053 150 1053 131.5 1068 c 0,3,4
 89.5666666667 1102 89.5666666667 1102 20 1102 c 1,5,-1
 20 1473 l 1,6,-1
 899 1473 l 1,7,-1
 899 1102 l 1,8,9
 811 1102 811 1102 782.5 1073 c 128,-1,10
 754 1044 754 1044 784 1001 c 2,11,-1
 922 809 l 1,12,-1
 930 809 l 1,13,-1
 1067 1001 l 1,14,15
 1102 1040 1102 1040 1074.5 1071 c 128,-1,16
 1047 1102 1047 1102 952 1102 c 1,17,-1
 952 1473 l 1,18,-1
 1554 1473 l 1,19,-1
 1554 1102 l 1,20,21
 1496.33333333 1102 1496.33333333 1102 1468.16666667 1082.5 c 0,22,23
 1437.8028169 1061.47887324 1437.8028169 1061.47887324 1370 989 c 1,24,-1
 1083 637 l 1,25,-1
 1083 483 l 2,26,27
 1083 418 1083 418 1121 394.5 c 128,-1,28
 1159 371 1159 371 1247 371 c 1,29,-1
 1247 0 l 1,30,-1
 330 0 l 1,31,-1
 330 371 l 1,32,33
 418 371 418 371 456 394.5 c 128,-1,34
 494 418 494 418 494 483 c 2,35,-1
 494 637 l 1,36,-1
 205 989 l 1,0,1
EndSplineSet
EndChar

StartChar: Z
Encoding: 90 90 26
Width: 1491
Flags: HMW
LayerCount: 2
Fore
SplineSet
979 330 m 2,0,1
 1057.70967742 330 1057.70967742 330 1081.5 389 c 0,2,3
 1100 434.88 1100 434.88 1100 586 c 1,4,-1
 1450 586 l 1,5,-1
 1450 0 l 1,6,-1
 41 0 l 1,7,-1
 41 330 l 1,8,-1
 737 1143 l 1,9,-1
 537 1143 l 2,10,11
 457.409836066 1143 457.409836066 1143 434 1083.5 c 0,12,13
 416 1037.75 416 1037.75 416 887 c 1,14,-1
 66 887 l 1,15,-1
 66 1473 l 1,16,-1
 1450 1473 l 1,17,-1
 1450 1143 l 1,18,-1
 754 330 l 1,19,-1
 979 330 l 2,0,1
EndSplineSet
EndChar

StartChar: a
Encoding: 97 97 27
Width: 1530
Flags: HMW
LayerCount: 2
Fore
SplineSet
362 883 m 1,0,1
 419 913 419 913 469.5 913 c 128,-1,2
 520 913 520 913 563 874.5 c 128,-1,3
 606 836 606 836 606 754 c 128,-1,4
 606 672 606 672 540.5 623.5 c 128,-1,5
 475 575 475 575 367.5 575 c 128,-1,6
 260 575 260 575 197.5 635.5 c 128,-1,7
 135 696 135 696 135 807 c 0,8,9
 135 943.34965035 135 943.34965035 274.5 1037 c 0,10,11
 438.354166667 1147 438.354166667 1147 723 1147 c 0,12,13
 1061.63636364 1147 1061.63636364 1147 1210.5 1022 c 0,14,15
 1325 925.854961832 1325 925.854961832 1325 756 c 2,16,-1
 1325 365 l 2,17,18
 1325 274 1325 274 1331 241.5 c 128,-1,19
 1337 209 1337 209 1372 209 c 128,-1,20
 1407 209 1407 209 1419.5 238.5 c 128,-1,21
 1432 268 1432 268 1432 340 c 2,22,-1
 1432 465 l 1,23,-1
 1546 465 l 1,24,-1
 1546 338 l 2,25,26
 1546 144.357142857 1546 144.357142857 1474 59.5 c 0,27,28
 1388.72727273 -41 1388.72727273 -41 1176 -41 c 0,29,30
 994.40625 -41 994.40625 -41 903 34 c 0,31,32
 831 93.0769230769 831 93.0769230769 831 162 c 1,33,-1
 815 162 l 1,34,35
 802.327191366 75.4024743354 802.327191366 75.4024743354 701.5 18.5 c 0,36,37
 588.98245614 -45 588.98245614 -45 420 -45 c 0,38,39
 144.619469027 -45 144.619469027 -45 66.5 115.5 c 0,40,41
 39 172 39 172 39 259 c 128,-1,42
 39 346 39 346 93 401.5 c 128,-1,43
 147 457 147 457 229 489.5 c 128,-1,44
 311 522 311 522 407.5 542.5 c 128,-1,45
 504 563 504 563 586 592 c 128,-1,46
 668 621 668 621 722 667 c 128,-1,47
 776 713 776 713 776 792.5 c 0,48,49
 776 963 776 963 575 963 c 0,50,51
 446.6 963 446.6 963 382 915.5 c 0,52,53
 365 903 365 903 352 893 c 1,54,-1
 362 883 l 1,0,1
776 530 m 1,55,56
 754 498 754 498 721 478.5 c 128,-1,57
 688 459 688 459 657.5 440.5 c 0,58,59
 582 394.704918033 582 394.704918033 582 328 c 0,60,61
 582 295 582 295 600 268.5 c 128,-1,62
 618 242 618 242 667.5 242 c 128,-1,63
 717 242 717 242 746.5 278.5 c 128,-1,64
 776 315 776 315 776 381 c 2,65,-1
 776 530 l 1,55,56
EndSplineSet
EndChar

StartChar: b
Encoding: 98 98 28
Width: 1636
Flags: HMW
LayerCount: 2
Fore
SplineSet
723 326 m 1,0,1
 739 299 739 299 785 283.5 c 128,-1,2
 831 268 831 268 873 268 c 128,-1,3
 915 268 915 268 943 290.5 c 128,-1,4
 971 313 971 313 987.5 351 c 0,5,6
 1016 416.636363636 1016 416.636363636 1016 506.318181818 c 128,-1,7
 1016 596 1016 596 1010 644 c 128,-1,8
 1004 692 1004 692 987.5 728 c 0,9,10
 952.208333333 805 952.208333333 805 868 805 c 256,11,12
 749.125 805 749.125 805 729 644 c 0,13,14
 723 596 723 596 723 543 c 2,15,-1
 723 326 l 1,0,1
739 909 m 1,16,17
 818.534883721 1137 818.534883721 1137 1098 1137 c 0,18,19
 1327 1137 1327 1137 1456 988.5 c 128,-1,20
 1585 840 1585 840 1585 553 c 256,21,22
 1585 266 1585 266 1450 116.5 c 128,-1,23
 1315 -33 1315 -33 1079 -33 c 0,24,25
 870.5 -33 870.5 -33 727 79 c 0,26,27
 686 111 686 111 647 143 c 1,28,-1
 633 143 l 1,29,-1
 598 0 l 1,30,-1
 174 0 l 1,31,-1
 174 989 l 2,32,33
 174 1047 174 1047 137 1074.5 c 128,-1,34
 100 1102 100 1102 53 1102 c 2,35,-1
 31 1102 l 1,36,-1
 31 1473 l 1,37,-1
 723 1473 l 1,38,-1
 723 909 l 1,39,-1
 739 909 l 1,16,17
EndSplineSet
EndChar

StartChar: c
Encoding: 99 99 29
Width: 1339
Flags: HMW
LayerCount: 2
Fore
SplineSet
788 877 m 0,0,1
 702 877 702 877 656 804 c 128,-1,2
 610 731 610 731 610 561 c 256,3,4
 610 391 610 391 657.5 319.5 c 128,-1,5
 705 248 705 248 803 248 c 0,6,7
 864.828571429 248 864.828571429 248 900.414285714 274.5 c 0,8,9
 965.202516477 322.746554823 965.202516477 322.746554823 969 393 c 1,10,-1
 1292 393 l 1,11,12
 1260 170 1260 170 1112.5 63.5 c 128,-1,13
 965 -43 965 -43 692 -43 c 0,14,15
 403.204081633 -43 403.204081633 -43 229 102.5 c 0,16,17
 41 259.522727273 41 259.522727273 41 553 c 0,18,19
 41 839.679558011 41 839.679558011 231.5 996.5 c 0,20,21
 414.322147651 1147 414.322147651 1147 717 1147 c 0,22,23
 1001.33333333 1147 1001.33333333 1147 1156.5 1010.5 c 0,24,25
 1280 901.857142857 1280 901.857142857 1280 758 c 0,26,27
 1280 589.127659574 1280 589.127659574 1145 524.5 c 0,28,29
 1098 502 1098 502 1031.5 502 c 128,-1,30
 965 502 965 502 924 520.5 c 128,-1,31
 883 539 883 539 860.5 566.5 c 0,32,33
 819 617.222222222 819 617.222222222 819 680.111111111 c 128,-1,34
 819 743 819 743 848 779 c 128,-1,35
 877 815 877 815 915 829 c 1,36,37
 893 846 893 846 870.5 861.5 c 128,-1,38
 848 877 848 877 788 877 c 0,0,1
EndSplineSet
EndChar

StartChar: d
Encoding: 100 100 30
Width: 1634
Flags: HMW
LayerCount: 2
Fore
SplineSet
1440 453 m 2,0,1
 1440 371 1440 371 1526 371 c 2,2,-1
 1583 371 l 1,3,-1
 1583 0 l 1,4,-1
 911 0 l 1,5,-1
 911 182 l 1,6,-1
 895 182 l 1,7,8
 839.986255022 34.1505603722 839.986255022 34.1505603722 665.5 -15.5 c 0,9,10
 604 -33 604 -33 526 -33 c 0,11,12
 281 -33 281 -33 155 115.5 c 128,-1,13
 29 264 29 264 29 551 c 256,14,15
 29 838 29 838 164 977 c 128,-1,16
 299 1116 299 1116 535 1116 c 0,17,18
 645.096774194 1116 645.096774194 1116 712.548387097 1090.5 c 128,-1,19
 780 1065 780 1065 817 1045.5 c 128,-1,20
 854 1026 854 1026 891 1008 c 1,21,-1
 891 1044 l 2,22,23
 891 1098 891 1098 872.5 1120.5 c 128,-1,24
 854 1143 854 1143 801 1143 c 2,25,-1
 748 1143 l 1,26,-1
 748 1473 l 1,27,-1
 1440 1473 l 1,28,-1
 1440 453 l 2,0,1
604 644 m 128,-1,30
 598 594 598 594 598 540.5 c 128,-1,31
 598 487 598 487 604 439 c 128,-1,32
 610 391 610 391 626.5 355 c 0,33,34
 661.333333333 279 661.333333333 279 743 279 c 256,35,36
 865.468085106 279 865.468085106 279 885 432 c 0,37,38
 891 479 891 479 891 532 c 2,39,-1
 891 758 l 1,40,41
 866 782 866 782 824 798.5 c 128,-1,42
 782 815 782 815 740 815 c 128,-1,43
 698 815 698 815 670.5 792.5 c 128,-1,44
 643 770 643 770 626.5 732 c 128,-1,29
 610 694 610 694 604 644 c 128,-1,30
EndSplineSet
EndChar

StartChar: e
Encoding: 101 101 31
Width: 1446
Flags: HMW
LayerCount: 2
Fore
SplineSet
612 489 m 1,0,1
 616 340 616 340 668.5 283.5 c 128,-1,2
 721 227 721 227 819 227 c 0,3,4
 934.943661972 227 934.943661972 227 988.5 324.5 c 0,5,6
 1008 360 1008 360 1014 414 c 1,7,-1
 1378 414 l 1,8,9
 1322.25198548 54.4253063571 1322.25198548 54.4253063571 971.5 -19.5 c 0,10,11
 860 -43 860 -43 721 -43 c 128,-1,12
 582 -43 582 -43 458 -7 c 128,-1,13
 334 29 334 29 240.5 102.5 c 0,14,15
 41 259.326203209 41 259.326203209 41 553 c 0,16,17
 41 839.679558011 41 839.679558011 231.5 996.5 c 0,18,19
 414.322147651 1147 414.322147651 1147 717 1147 c 0,20,21
 1068.34883721 1147 1068.34883721 1147 1244 965 c 0,22,23
 1407.1480411 795.955041747 1407.1480411 795.955041747 1403 489 c 1,24,-1
 612 489 l 1,0,1
905 664 m 1,25,26
 891.959183673 877 891.959183673 877 760 877 c 0,27,28
 690 877 690 877 656.5 827.5 c 128,-1,29
 623 778 623 778 612 664 c 1,30,-1
 905 664 l 1,25,26
EndSplineSet
EndChar

StartChar: f
Encoding: 102 102 32
Width: 1087
Flags: HMW
LayerCount: 2
Fore
SplineSet
203 1102 m 1,0,1
 135.438452521 1133.7936694 135.438452521 1133.7936694 103.5 1218.5 c 0,2,3
 92 1249 92 1249 92 1303.5 c 128,-1,4
 92 1358 92 1358 132 1409 c 128,-1,5
 172 1460 172 1460 243.5 1493 c 0,6,7
 380 1556 380 1556 639 1556 c 0,8,9
 1042.46666667 1556 1042.46666667 1556 1123.5 1413 c 0,10,11
 1149 1368 1149 1368 1149 1324 c 128,-1,12
 1149 1280 1149 1280 1138.5 1249.5 c 128,-1,13
 1128 1219 1128 1219 1103.5 1194 c 0,14,15
 1049.6 1139 1049.6 1139 943.8 1139 c 128,-1,16
 838 1139 838 1139 788.5 1188 c 128,-1,17
 739 1237 739 1237 739 1293.5 c 0,18,19
 739 1388.33333333 739 1388.33333333 811 1415 c 1,20,-1
 799 1423 l 1,21,22
 704.564102564 1423 704.564102564 1423 659.5 1375.5 c 0,23,24
 629 1343.35135135 629 1343.35135135 629 1297.17567568 c 128,-1,25
 629 1251 629 1251 642 1218.5 c 128,-1,26
 655 1186 655 1186 686 1160.5 c 0,27,28
 757.117647059 1102 757.117647059 1102 895 1102 c 2,29,-1
 1006 1102 l 1,30,-1
 1006 731 l 1,31,-1
 780 731 l 1,32,-1
 780 479 l 2,33,34
 780 412 780 412 813 391.5 c 128,-1,35
 846 371 846 371 897 371 c 2,36,-1
 965 371 l 1,37,-1
 965 0 l 1,38,-1
 82 0 l 1,39,-1
 82 371 l 1,40,-1
 121 371 l 2,41,42
 174 371 174 371 199.5 404.5 c 128,-1,43
 225 438 225 438 225 477 c 2,44,-1
 225 731 l 1,45,-1
 41 731 l 1,46,-1
 41 1102 l 1,47,-1
 203 1102 l 1,0,1
EndSplineSet
EndChar

StartChar: g
Encoding: 103 103 33
Width: 1591
Flags: HMW
LayerCount: 2
Fore
SplineSet
1266 1006 m 1,0,1
 1284 1030 1284 1030 1312.5 1050.5 c 0,2,3
 1384.09756098 1102 1384.09756098 1102 1479 1102 c 2,4,-1
 1571 1102 l 1,5,-1
 1571 731 l 1,6,-1
 1505 731 l 2,7,8
 1462 731 1462 731 1439.5 707.5 c 128,-1,9
 1417 684 1417 684 1413 662 c 0,10,11
 1378 451 1378 451 1209 340 c 128,-1,12
 1040 229 1040 229 748 229 c 0,13,14
 584 229 584 229 451 264 c 1,15,16
 430 250 430 250 430 229 c 0,17,18
 430 190 430 190 476 174 c 128,-1,19
 522 158 522 158 598 152.5 c 128,-1,20
 674 147 674 147 771 148.5 c 128,-1,21
 868 150 868 150 969.5 145.5 c 128,-1,22
 1071 141 1071 141 1168.5 127 c 128,-1,23
 1266 113 1266 113 1341.5 77 c 0,24,25
 1509 -2.86754966887 1509 -2.86754966887 1509 -177.433774834 c 128,-1,26
 1509 -352 1509 -352 1313.5 -442 c 128,-1,27
 1118 -532 1118 -532 748 -532 c 0,28,29
 614 -532 614 -532 487 -528 c 128,-1,30
 360 -524 360 -524 262 -501.5 c 128,-1,31
 164 -479 164 -479 104.5 -430 c 128,-1,32
 45 -381 45 -381 45 -291 c 0,33,34
 45 -173.867924528 45 -173.867924528 190 -100 c 1,35,36
 78 -32.8 78 -32.8 78 94.6760869565 c 128,-1,37
 78 222.152173913 78 222.152173913 268 344 c 1,38,39
 82 465.933333333 82 465.933333333 82 690 c 0,40,41
 82 912.113636364 82 912.113636364 264 1030 c 0,42,43
 444.631578947 1147 444.631578947 1147 763.963676798 1147 c 128,-1,44
 1083.29577465 1147 1083.29577465 1147 1266 1006 c 1,0,1
637 847 m 128,-1,46
 608 793 608 793 608 689.5 c 128,-1,47
 608 586 608 586 637 529.5 c 128,-1,48
 666 473 666 473 748.5 473 c 128,-1,49
 831 473 831 473 860 529.5 c 128,-1,50
 889 586 889 586 889 689.5 c 128,-1,51
 889 793 889 793 860 847 c 128,-1,52
 831 901 831 901 748.5 901 c 128,-1,45
 666 901 666 901 637 847 c 128,-1,46
715 -328 m 0,53,54
 1042 -328 1042 -328 1042 -250 c 0,55,56
 1042 -201.681818182 1042 -201.681818182 880 -198 c 0,57,58
 836 -197 836 -197 712.5 -197 c 128,-1,59
 589 -197 589 -197 442 -176 c 1,60,61
 432 -193 432 -193 432 -211 c 0,62,63
 432 -283 432 -283 510 -305.5 c 128,-1,64
 588 -328 588 -328 715 -328 c 0,53,54
EndSplineSet
EndChar

StartChar: h
Encoding: 104 104 34
Width: 1716
Flags: HMW
LayerCount: 2
Fore
SplineSet
903 758 m 0,0,1
 774 758 774 758 774 612 c 2,2,-1
 774 469 l 2,3,4
 774 416 774 416 792.5 393.5 c 128,-1,5
 811 371 811 371 864 371 c 2,6,-1
 938 371 l 1,7,-1
 938 0 l 1,8,-1
 82 0 l 1,9,-1
 82 371 l 1,10,-1
 141 371 l 2,11,12
 182 371 182 371 203.5 397.5 c 128,-1,13
 225 424 225 424 225 461 c 2,14,-1
 223 989 l 2,15,16
 223 1047 223 1047 186.5 1074.5 c 128,-1,17
 150 1102 150 1102 102 1102 c 2,18,-1
 82 1102 l 1,19,-1
 82 1473 l 1,20,-1
 774 1473 l 1,21,-1
 774 1102 l 2,22,23
 774 1083 774 1083 762 1036 c 128,-1,24
 750 989 750 989 717 942 c 1,25,-1
 737 932 l 1,26,27
 791 1030 791 1030 882 1088.5 c 128,-1,28
 973 1147 973 1147 1116.5 1147 c 128,-1,29
 1260 1147 1260 1147 1342.5 1108 c 128,-1,30
 1425 1069 1425 1069 1471.5 1009.5 c 0,31,32
 1552 906.494623656 1552 906.494623656 1552 750 c 2,33,-1
 1552 469 l 2,34,35
 1552 416 1552 416 1570.5 393.5 c 128,-1,36
 1589 371 1589 371 1642 371 c 2,37,-1
 1696 371 l 1,38,-1
 1696 0 l 1,39,-1
 1004 0 l 1,40,-1
 1004 639 l 2,41,42
 1004 758 1004 758 903 758 c 0,0,1
EndSplineSet
EndChar

StartChar: i
Encoding: 105 105 35
Width: 944
Flags: HMW
LayerCount: 2
Fore
SplineSet
780 1102 m 1,0,-1
 780 479 l 2,1,2
 780 412 780 412 813 391.5 c 128,-1,3
 846 371 846 371 897 371 c 2,4,-1
 924 371 l 1,5,-1
 924 0 l 1,6,-1
 82 0 l 1,7,-1
 82 371 l 1,8,-1
 121 371 l 2,9,10
 174 371 174 371 199.5 404.5 c 128,-1,11
 225 438 225 438 225 477 c 2,12,-1
 225 618 l 2,13,14
 225 676 225 676 188.5 703.5 c 128,-1,15
 152 731 152 731 104 731 c 2,16,-1
 82 731 l 1,17,-1
 82 1102 l 1,18,-1
 780 1102 l 1,0,-1
274.5 1199.5 m 128,-1,20
 209 1260 209 1260 209 1347 c 128,-1,21
 209 1434 209 1434 274.5 1495 c 128,-1,22
 340 1556 340 1556 462 1556 c 128,-1,23
 584 1556 584 1556 650.5 1495 c 128,-1,24
 717 1434 717 1434 717 1347 c 128,-1,25
 717 1260 717 1260 650.5 1199.5 c 128,-1,26
 584 1139 584 1139 462 1139 c 128,-1,19
 340 1139 340 1139 274.5 1199.5 c 128,-1,20
EndSplineSet
EndChar

StartChar: j
Encoding: 106 106 36
Width: 862
Flags: HMW
LayerCount: 2
Fore
SplineSet
253.5 1199.5 m 128,-1,1
 188 1260 188 1260 188 1347 c 128,-1,2
 188 1434 188 1434 253.5 1495 c 128,-1,3
 319 1556 319 1556 441 1556 c 128,-1,4
 563 1556 563 1556 629.5 1495 c 128,-1,5
 696 1434 696 1434 696 1347 c 128,-1,6
 696 1260 696 1260 629.5 1199.5 c 128,-1,7
 563 1139 563 1139 441 1139 c 128,-1,0
 319 1139 319 1139 253.5 1199.5 c 128,-1,1
205 618 m 2,8,9
 205 676 205 676 168 703.5 c 128,-1,10
 131 731 131 731 84 731 c 2,11,-1
 41 731 l 1,12,-1
 41 1102 l 1,13,-1
 760 1102 l 1,14,-1
 760 -29 l 2,15,16
 760 -306.568345324 760 -306.568345324 620.5 -427 c 0,17,18
 488.45 -541 488.45 -541 213 -541 c 0,19,20
 -15.075 -541 -15.075 -541 -133 -452 c 0,21,22
 -233 -376.528301887 -233 -376.528301887 -233 -250 c 0,23,24
 -233 -164 -233 -164 -179 -102.5 c 128,-1,25
 -125 -41 -125 -41 -20 -41 c 0,26,27
 66.3469387755 -41 66.3469387755 -41 121.5 -98.5 c 0,28,29
 168 -146.978723404 168 -146.978723404 168 -206.489361702 c 128,-1,30
 168 -266 168 -266 151.5 -295 c 128,-1,31
 135 -324 135 -324 113 -346 c 1,32,-1
 127 -362 l 1,33,34
 176 -330 176 -330 190.5 -285 c 128,-1,35
 205 -240 205 -240 205 -186 c 2,36,-1
 205 618 l 2,8,9
EndSplineSet
EndChar

StartChar: k
Encoding: 107 107 37
Width: 1753
Flags: HMW
LayerCount: 2
Fore
SplineSet
918 371 m 2,0,1
 979 371 979 371 979 408 c 0,2,3
 979 430.933333333 979 430.933333333 901 502 c 1,4,-1
 780 442 l 1,5,-1
 780 0 l 1,6,-1
 82 0 l 1,7,-1
 82 371 l 1,8,-1
 121 371 l 2,9,10
 174 371 174 371 199.5 404.5 c 128,-1,11
 225 438 225 438 225 477 c 2,12,-1
 225 989 l 2,13,14
 225 1047 225 1047 188.5 1074.5 c 128,-1,15
 152 1102 152 1102 104 1102 c 2,16,-1
 82 1102 l 1,17,-1
 82 1473 l 1,18,-1
 780 1473 l 1,19,-1
 780 612 l 1,20,-1
 915 678 l 1,21,22
 971 703.6 971 703.6 971 727.8 c 128,-1,23
 971 752 971 752 918 752 c 2,24,-1
 872 752 l 1,25,-1
 872 1102 l 1,26,-1
 1632 1102 l 1,27,-1
 1632 752 l 1,28,-1
 1571 752 l 2,29,30
 1429.95454545 752 1429.95454545 752 1352 717 c 1,31,-1
 1307 694 l 1,32,-1
 1542 442 l 2,33,34
 1585 395 1585 395 1623 383 c 128,-1,35
 1661 371 1661 371 1733 371 c 1,36,-1
 1733 0 l 1,37,-1
 866 0 l 1,38,-1
 866 371 l 1,39,-1
 918 371 l 2,0,1
EndSplineSet
EndChar

StartChar: l
Encoding: 108 108 38
Width: 944
Flags: HMW
LayerCount: 2
Fore
SplineSet
780 1473 m 1,0,-1
 780 479 l 2,1,2
 780 412 780 412 813 391.5 c 128,-1,3
 846 371 846 371 897 371 c 2,4,-1
 924 371 l 1,5,-1
 924 0 l 1,6,-1
 82 0 l 1,7,-1
 82 371 l 1,8,-1
 121 371 l 2,9,10
 174 371 174 371 199.5 404.5 c 128,-1,11
 225 438 225 438 225 477 c 2,12,-1
 225 989 l 2,13,14
 225 1047 225 1047 188.5 1074.5 c 128,-1,15
 152 1102 152 1102 104 1102 c 2,16,-1
 82 1102 l 1,17,-1
 82 1473 l 1,18,-1
 780 1473 l 1,0,-1
EndSplineSet
EndChar

StartChar: m
Encoding: 109 109 39
Width: 2454
Flags: HMW
LayerCount: 2
Fore
SplineSet
672 827 m 1,0,1
 717.714285714 1147 717.714285714 1147 1094 1147 c 0,2,3
 1245.7375 1147 1245.7375 1147 1343.5 1068 c 0,4,5
 1446.09526316 985.094736842 1446.09526316 985.094736842 1454 827 c 1,6,-1
 1468 827 l 1,7,8
 1485.93455843 978.447382337 1485.93455843 978.447382337 1602.5 1064 c 0,9,10
 1715.5875 1147 1715.5875 1147 1854.29375 1147 c 128,-1,11
 1993 1147 1993 1147 2077 1108 c 128,-1,12
 2161 1069 2161 1069 2208 1009.5 c 0,13,14
 2290 905.691489362 2290 905.691489362 2290 750 c 2,15,-1
 2290 469 l 2,16,17
 2290 416 2290 416 2308.5 393.5 c 128,-1,18
 2327 371 2327 371 2380 371 c 2,19,-1
 2433 371 l 1,20,-1
 2433 0 l 1,21,-1
 1741 0 l 1,22,-1
 1741 639 l 2,23,24
 1741 740.171428571 1741 740.171428571 1680.5 754 c 0,25,26
 1663 758 1663 758 1647 758 c 0,27,28
 1581 758 1581 758 1556.5 720 c 128,-1,29
 1532 682 1532 682 1532 612 c 2,30,-1
 1532 469 l 2,31,32
 1532 416 1532 416 1550.5 393.5 c 128,-1,33
 1569 371 1569 371 1622 371 c 2,34,-1
 1655 371 l 1,35,-1
 1655 0 l 1,36,-1
 983 0 l 1,37,-1
 983 639 l 2,38,39
 983 740.171428571 983 740.171428571 922.5 754 c 0,40,41
 905 758 905 758 889 758 c 0,42,43
 823 758 823 758 798.5 720 c 128,-1,44
 774 682 774 682 774 612 c 2,45,-1
 774 469 l 2,46,47
 774 416 774 416 792.5 393.5 c 128,-1,48
 811 371 811 371 864 371 c 2,49,-1
 897 371 l 1,50,-1
 897 0 l 1,51,-1
 82 0 l 1,52,-1
 82 371 l 1,53,-1
 141 371 l 2,54,55
 182 371 182 371 203.5 397.5 c 128,-1,56
 225 424 225 424 225 461 c 2,57,-1
 225 651 l 2,58,59
 225 731 225 731 135 731 c 2,60,-1
 82 731 l 1,61,-1
 82 1102 l 1,62,-1
 676 1102 l 1,63,-1
 655 827 l 1,64,-1
 672 827 l 1,0,1
EndSplineSet
EndChar

StartChar: n
Encoding: 110 110 40
Width: 1716
Flags: HMW
LayerCount: 2
Fore
SplineSet
225 651 m 2,0,1
 225 731 225 731 135 731 c 2,2,-1
 82 731 l 1,3,-1
 82 1102 l 1,4,-1
 676 1102 l 1,5,-1
 655 827 l 1,6,-1
 672 827 l 1,7,8
 694 981 694 981 807 1064 c 128,-1,9
 920 1147 920 1147 1114 1147 c 0,10,11
 1360.73109244 1147 1360.73109244 1147 1470.5 1009.5 c 0,12,13
 1552 907.410526316 1552 907.410526316 1552 750 c 2,14,-1
 1552 469 l 2,15,16
 1552 416 1552 416 1570.5 393.5 c 128,-1,17
 1589 371 1589 371 1642 371 c 2,18,-1
 1696 371 l 1,19,-1
 1696 0 l 1,20,-1
 1004 0 l 1,21,-1
 1004 639 l 2,22,23
 1004 758 1004 758 903 758 c 0,24,25
 774 758 774 758 774 612 c 2,26,-1
 774 469 l 2,27,28
 774 416 774 416 792.5 393.5 c 128,-1,29
 811 371 811 371 864 371 c 2,30,-1
 918 371 l 1,31,-1
 918 0 l 1,32,-1
 82 0 l 1,33,-1
 82 371 l 1,34,-1
 141 371 l 2,35,36
 182 371 182 371 203.5 397.5 c 128,-1,37
 225 424 225 424 225 461 c 2,38,-1
 225 651 l 2,0,1
EndSplineSet
EndChar

StartChar: o
Encoding: 111 111 41
Width: 1524
Flags: HMW
LayerCount: 2
Fore
SplineSet
41 554 m 0,0,1
 41 700 41 700 92 811 c 128,-1,2
 143 922 143 922 237.5 996.5 c 0,3,4
 428.402684564 1147 428.402684564 1147 762 1147 c 256,5,6
 1096.10738255 1147 1096.10738255 1147 1286 996.5 c 0,7,8
 1483 840.367021277 1483 840.367021277 1483 553 c 0,9,10
 1483 266.728723404 1483 266.728723404 1286 108.5 c 0,11,12
 1097.37748344 -43 1097.37748344 -43 762 -43 c 256,13,14
 427.125827815 -43 427.125827815 -43 237.5 108.5 c 0,15,16
 41 265.492063492 41 265.492063492 41 554 c 0,0,1
610 553 m 256,17,18
 610 383.323529412 610 383.323529412 642 316.5 c 0,19,20
 674.802816901 248 674.802816901 248 762 248 c 256,21,22
 847.732394366 248 847.732394366 248 881.5 316.5 c 0,23,24
 913 380.4 913 380.4 913 550.7 c 128,-1,25
 913 721 913 721 881.5 788.5 c 128,-1,26
 850 856 850 856 762 856 c 128,-1,27
 673.845070423 856 673.845070423 856 642 789.5 c 0,28,29
 610 722.676470588 610 722.676470588 610 553 c 256,17,18
EndSplineSet
EndChar

StartChar: p
Encoding: 112 112 42
Width: 1647
Flags: HMW
LayerCount: 2
Fore
SplineSet
195 651 m 2,0,1
 195 731 195 731 104 731 c 2,2,-1
 51 731 l 1,3,-1
 51 1102 l 1,4,-1
 700 1102 l 1,5,-1
 700 897 l 1,6,-1
 717 897 l 1,7,8
 754 1001 754 1001 848 1069 c 128,-1,9
 942 1137 942 1137 1106 1137 c 0,10,11
 1341 1137 1341 1137 1473.5 988.5 c 128,-1,12
 1606 840 1606 840 1606 553 c 256,13,14
 1606 266 1606 266 1470.5 116.5 c 128,-1,15
 1335 -33 1335 -33 1100 -33 c 0,16,17
 980.416666667 -33 980.416666667 -33 917.208333333 -14.5 c 0,18,19
 838.520408163 8.5306122449 838.520408163 8.5306122449 743 55 c 1,20,-1
 743 -43 l 2,21,22
 743 -96 743 -96 761.5 -118.5 c 128,-1,23
 780 -141 780 -141 834 -141 c 2,24,-1
 893 -141 l 1,25,-1
 893 -512 l 1,26,-1
 51 -512 l 1,27,-1
 51 -141 l 1,28,-1
 111 -141 l 2,29,30
 152 -141 152 -141 173.5 -114.5 c 128,-1,31
 195 -88 195 -88 195 -51 c 2,32,-1
 195 651 l 2,0,1
891 248 m 0,33,34
 1036 248 1036 248 1036 543 c 0,35,36
 1036 665.818181818 1036 665.818181818 1013.5 714.909090909 c 128,-1,37
 991 764 991 764 963.5 784.5 c 128,-1,38
 936 805 936 805 891 805 c 256,39,40
 770.79787234 805 770.79787234 805 749.5 651 c 0,41,42
 743 604 743 604 743 551 c 2,43,-1
 743 305 l 1,44,45
 760 279 760 279 806 263.5 c 128,-1,46
 852 248 852 248 891 248 c 0,33,34
EndSplineSet
EndChar

StartChar: q
Encoding: 113 113 43
Width: 1657
Flags: HMW
LayerCount: 2
Fore
SplineSet
1542 731 m 2,0,1
 1452 731 1452 731 1452 651 c 2,2,-1
 1452 -51 l 2,3,4
 1452 -88 1452 -88 1473.5 -114.5 c 128,-1,5
 1495 -141 1495 -141 1536 -141 c 2,6,-1
 1595 -141 l 1,7,-1
 1595 -512 l 1,8,-1
 754 -512 l 1,9,-1
 754 -141 l 1,10,-1
 813 -141 l 2,11,12
 866 -141 866 -141 884.5 -118.5 c 128,-1,13
 903 -96 903 -96 903 -43 c 2,14,-1
 903 55 l 1,15,16
 805.969387755 7.79591836735 805.969387755 7.79591836735 758.484693878 -6.10204081633 c 0,17,18
 666.583333333 -33 666.583333333 -33 547 -33 c 0,19,20
 311 -33 311 -33 176 116.5 c 128,-1,21
 41 266 41 266 41 553 c 256,22,23
 41 840 41 840 173 988.5 c 128,-1,24
 305 1137 305 1137 541 1137 c 0,25,26
 709 1137 709 1137 801 1068 c 128,-1,27
 893 999 893 999 930 897 c 1,28,-1
 946 897 l 1,29,-1
 946 1102 l 1,30,-1
 1595 1102 l 1,31,-1
 1595 731 l 1,32,-1
 1542 731 l 2,0,1
610 543 m 0,33,34
 610 248 610 248 756 248 c 0,35,36
 795 248 795 248 841 263.5 c 128,-1,37
 887 279 887 279 903 305 c 1,38,-1
 903 551 l 2,39,40
 903 673.272727273 903 673.272727273 880.5 719.636363636 c 128,-1,41
 858 766 858 766 829.5 785.5 c 128,-1,42
 801 805 801 805 756 805 c 256,43,44
 610 805 610 805 610 543 c 0,33,34
EndSplineSet
EndChar

StartChar: r
Encoding: 114 114 44
Width: 1311
Flags: HMW
LayerCount: 2
Fore
SplineSet
225 651 m 2,0,1
 225 731 225 731 135 731 c 2,2,-1
 82 731 l 1,3,-1
 82 1102 l 1,4,-1
 676 1102 l 1,5,-1
 659 827 l 1,6,-1
 676 827 l 1,7,8
 746.886075949 1147 746.886075949 1147 1004 1147 c 0,9,10
 1151.36585366 1147 1151.36585366 1147 1226 1057 c 0,11,12
 1290 979.823529412 1290 979.823529412 1290 852 c 0,13,14
 1290 680.326530612 1290 680.326530612 1151 616.5 c 0,15,16
 1102 594 1102 594 1016 594 c 128,-1,17
 930 594 930 594 872.5 645 c 128,-1,18
 815 696 815 696 815 768 c 0,19,20
 815 822.823529412 815 822.823529412 831.5 852.911764706 c 128,-1,21
 848 883 848 883 851 890 c 128,-1,22
 854 897 854 897 844 897 c 0,23,24
 823 897 823 897 798.5 849 c 128,-1,25
 774 801 774 801 774 698 c 2,26,-1
 774 469 l 2,27,28
 774 416 774 416 792.5 393.5 c 128,-1,29
 811 371 811 371 864 371 c 2,30,-1
 924 371 l 1,31,-1
 924 0 l 1,32,-1
 82 0 l 1,33,-1
 82 371 l 1,34,-1
 141 371 l 2,35,36
 182 371 182 371 203.5 397.5 c 128,-1,37
 225 424 225 424 225 461 c 2,38,-1
 225 651 l 2,0,1
EndSplineSet
EndChar

StartChar: s
Encoding: 115 115 45
Width: 1305
Flags: HMW
LayerCount: 2
Fore
SplineSet
354 63 m 1,0,-1
 344 -6 l 1,1,-1
 80 -6 l 1,2,-1
 80 395 l 1,3,-1
 354 395 l 1,4,5
 393 315 393 315 452.5 271 c 128,-1,6
 512 227 512 227 575.5 227 c 128,-1,7
 639 227 639 227 662.5 247.5 c 128,-1,8
 686 268 686 268 686 301 c 128,-1,9
 686 334 686 334 640 356.5 c 128,-1,10
 594 379 594 379 526.5 396.5 c 128,-1,11
 459 414 459 414 378 435.5 c 128,-1,12
 297 457 297 457 229.5 498 c 0,13,14
 70 594.881481481 70 594.881481481 70 791 c 0,15,16
 70 956.617647059 70 956.617647059 211 1052 c 0,17,18
 351.434782609 1147 351.434782609 1147 573 1147 c 0,19,20
 696 1147 696 1147 794.5 1119.5 c 128,-1,21
 893 1092 893 1092 942 1059 c 1,22,-1
 952 1130 l 1,23,-1
 1217 1130 l 1,24,-1
 1217 737 l 1,25,-1
 942 737 l 1,26,27
 913 809 913 809 852 851 c 128,-1,28
 791 893 791 893 725 893 c 0,29,30
 627 893 627 893 627 827 c 0,31,32
 627 786 627 786 673 765.5 c 128,-1,33
 719 745 719 745 788.5 729 c 128,-1,34
 858 713 858 713 939 690.5 c 128,-1,35
 1020 668 1020 668 1089.5 626 c 0,36,37
 1251 528.402877698 1251 528.402877698 1251 326 c 0,38,39
 1251 151.496402878 1251 151.496402878 1101.5 59 c 0,40,41
 962.5 -27 962.5 -27 737.229591837 -27 c 128,-1,42
 511.959183673 -27 511.959183673 -27 354 63 c 1,0,-1
EndSplineSet
EndChar

StartChar: t
Encoding: 116 116 46
Width: 1071
Flags: HMW
LayerCount: 2
Fore
SplineSet
741 1473 m 1,0,-1
 741 1102 l 1,1,-1
 1040 1102 l 1,2,-1
 1040 731 l 1,3,-1
 741 731 l 1,4,-1
 741 424 l 2,5,6
 741 358 741 358 759.5 316 c 128,-1,7
 778 274 778 274 823 274 c 128,-1,8
 868 274 868 274 887.5 286.5 c 128,-1,9
 907 299 907 299 918.5 319.5 c 0,10,11
 936 350.695652174 936 350.695652174 936 424 c 2,12,-1
 936 573 l 1,13,-1
 1051 573 l 1,14,-1
 1051 412 l 2,15,16
 1051 197.525252525 1051 197.525252525 960.5 86 c 0,17,18
 852.573770492 -47 852.573770492 -47 612 -47 c 0,19,20
 349.491803279 -47 349.491803279 -47 255 84 c 0,21,22
 211 145 211 145 197.5 229 c 128,-1,23
 184 313 184 313 184 412 c 2,24,-1
 184 731 l 1,25,-1
 27 731 l 1,26,-1
 27 1061 l 1,27,28
 178.434782609 1061 178.434782609 1061 277.5 1183.5 c 0,29,30
 375 1304.06451613 375 1304.06451613 375 1473 c 1,31,-1
 741 1473 l 1,0,-1
EndSplineSet
EndChar

StartChar: u
Encoding: 117 117 47
Width: 1675
Flags: HMW
LayerCount: 2
Fore
SplineSet
813 352 m 0,0,1
 942 352 942 352 942 498 c 2,2,-1
 942 633 l 2,3,4
 942 686 942 686 923.5 708.5 c 128,-1,5
 905 731 905 731 852 731 c 2,6,-1
 793 731 l 1,7,-1
 793 1102 l 1,8,-1
 1491 1102 l 1,9,-1
 1491 451 l 2,10,11
 1491 371 1491 371 1581 371 c 2,12,-1
 1634 371 l 1,13,-1
 1634 0 l 1,14,-1
 1040 0 l 1,15,-1
 1040 274 l 1,16,-1
 1024 274 l 1,17,18
 977.248366013 -37 977.248366013 -37 602 -37 c 0,19,20
 354.613445378 -37 354.613445378 -37 246 100.5 c 0,21,22
 164 204.308510638 164 204.308510638 164 360 c 2,23,-1
 164 633 l 2,24,25
 164 686 164 686 145.5 708.5 c 128,-1,26
 127 731 127 731 74 731 c 2,27,-1
 14 731 l 1,28,-1
 14 1102 l 1,29,-1
 713 1102 l 1,30,-1
 713 471 l 2,31,32
 713 370.162162162 713 370.162162162 778.5 356 c 0,33,34
 797 352 797 352 813 352 c 0,0,1
EndSplineSet
EndChar

StartChar: v
Encoding: 118 118 48
Width: 1425
Flags: HMW
LayerCount: 2
Fore
SplineSet
152 645 m 1,0,1
 131 690 131 690 103.5 710.5 c 128,-1,2
 76 731 76 731 0 731 c 1,3,-1
 0 1102 l 1,4,-1
 803 1102 l 1,5,-1
 803 731 l 1,6,7
 739 731 739 731 720.5 712.5 c 128,-1,8
 702 694 702 694 717 655 c 1,9,-1
 825 348 l 1,10,-1
 840 348 l 1,11,-1
 954 655 l 1,12,13
 969 692 969 692 950.5 711.5 c 128,-1,14
 932 731 932 731 868 731 c 1,15,-1
 868 1102 l 1,16,-1
 1425 1102 l 1,17,-1
 1425 731 l 1,18,19
 1352 731 1352 731 1322 711.5 c 128,-1,20
 1292 692 1292 692 1272 645 c 2,21,-1
 1004 0 l 1,22,-1
 420 0 l 1,23,-1
 152 645 l 1,0,1
EndSplineSet
EndChar

StartChar: w
Encoding: 119 119 49
Width: 2101
Flags: HMW
LayerCount: 2
Fore
SplineSet
1042 317 m 1,0,-1
 922 0 l 1,1,-1
 399 0 l 1,2,-1
 152 645 l 2,3,4
 133 692 133 692 106.5 711.5 c 128,-1,5
 80 731 80 731 20 731 c 1,6,-1
 20 1102 l 1,7,-1
 762 1102 l 1,8,-1
 762 731 l 1,9,10
 715 731 715 731 700.5 713.5 c 128,-1,11
 686 696 686 696 696 655 c 1,12,-1
 784 348 l 1,13,-1
 799 348 l 1,14,-1
 893 655 l 1,15,16
 918 731 918 731 827 731 c 1,17,-1
 827 1102 l 1,18,-1
 1507 1102 l 1,19,-1
 1507 731 l 1,20,21
 1460 731 1460 731 1446 713.5 c 128,-1,22
 1432 696 1432 696 1442 655 c 1,23,-1
 1530 348 l 1,24,-1
 1544 348 l 1,25,-1
 1638 655 l 1,26,27
 1663 731 1663 731 1573 731 c 1,28,-1
 1573 1102 l 1,29,-1
 2081 1102 l 1,30,-1
 2081 731 l 1,31,32
 1988.93617021 731 1988.93617021 731 1956 645 c 2,33,-1
 1708 0 l 1,34,-1
 1165 0 l 1,35,-1
 1042 317 l 1,0,-1
EndSplineSet
EndChar

StartChar: x
Encoding: 120 120 50
Width: 1497
Flags: HMW
LayerCount: 2
Fore
SplineSet
887 645 m 1,0,-1
 926 672 l 2,1,2
 940 682 940 682 961.5 698.5 c 128,-1,3
 983 715 983 715 983 733.5 c 128,-1,4
 983 752 983 752 950 752 c 1,5,-1
 950 1102 l 1,6,-1
 1442 1102 l 1,7,-1
 1442 752 l 1,8,9
 1357.88888889 752 1357.88888889 752 1186 633 c 1,10,-1
 1047 541 l 1,11,-1
 1196 444 l 1,12,13
 1217 432 1217 432 1240.5 415.5 c 128,-1,14
 1264 399 1264 399 1293.5 385 c 0,15,16
 1367.25 350 1367.25 350 1452 350 c 1,17,-1
 1452 0 l 1,18,-1
 602 0 l 1,19,-1
 602 350 l 1,20,21
 629 350 629 350 647.5 361.5 c 128,-1,22
 666 373 666 373 666 389.5 c 0,23,24
 666 419.125 666 419.125 623 446 c 2,25,-1
 600 461 l 1,26,-1
 580 446 l 1,27,28
 559 434 559 434 532.5 411.5 c 128,-1,29
 506 389 506 389 506 373 c 0,30,31
 506 350 506 350 537 350 c 1,32,-1
 537 0 l 1,33,-1
 55 0 l 1,34,-1
 55 350 l 1,35,36
 108.255813953 350 108.255813953 350 237.5 435.5 c 0,37,38
 270 457 270 457 297 475 c 2,39,-1
 438 567 l 1,40,-1
 303 657 l 1,41,42
 168.689655172 752 168.689655172 752 66 752 c 1,43,-1
 66 1102 l 1,44,-1
 885 1102 l 1,45,-1
 885 752 l 1,46,47
 862 752 862 752 845.5 741.5 c 128,-1,48
 829 731 829 731 829 714.5 c 0,49,50
 829 683.666666667 829 683.666666667 887 645 c 1,0,-1
EndSplineSet
EndChar

StartChar: y
Encoding: 121 121 51
Width: 1466
Flags: HMW
LayerCount: 2
Fore
SplineSet
356 -340 m 1,0,1
 368 -352 368 -352 410.5 -352 c 128,-1,2
 453 -352 453 -352 480.5 -334.5 c 128,-1,3
 508 -317 508 -317 530.5 -291.5 c 0,4,5
 577.107142857 -238.678571429 577.107142857 -238.678571429 598 -176 c 1,6,-1
 172 645 l 1,7,8
 151.56284153 692.005464481 151.56284153 692.005464481 128.781420765 706.50273224 c 0,9,10
 90.2857142857 731 90.2857142857 731 20 731 c 1,11,-1
 20 1102 l 1,12,-1
 823 1102 l 1,13,-1
 823 731 l 1,14,15
 760 731 760 731 740.5 712.5 c 128,-1,16
 721 694 721 694 737 655 c 1,17,-1
 858 397 l 1,18,-1
 975 655 l 2,19,20
 991 690 991 690 971.5 710.5 c 128,-1,21
 952 731 952 731 889 731 c 1,22,-1
 889 1102 l 1,23,-1
 1446 1102 l 1,24,-1
 1446 731 l 1,25,26
 1372 731 1372 731 1342.5 710.5 c 128,-1,27
 1313 690 1313 690 1292 645 c 2,28,-1
 952 -82 l 2,29,30
 918 -156 918 -156 882 -240 c 128,-1,31
 846 -324 846 -324 787.5 -395.5 c 0,32,33
 652.090909091 -561 652.090909091 -561 397 -561 c 0,34,35
 197.066666667 -561 197.066666667 -561 86 -463 c 0,36,37
 -14 -374.764705882 -14 -374.764705882 -14 -246.882352941 c 128,-1,38
 -14 -119 -14 -119 60.5 -49.5 c 128,-1,39
 135 20 135 20 246 20 c 0,40,41
 363.533333333 20 363.533333333 20 427 -48 c 0,42,43
 477 -101.571428571 477 -101.571428571 477 -177.785714286 c 128,-1,44
 477 -254 477 -254 441.5 -292 c 128,-1,45
 406 -330 406 -330 356 -340 c 1,0,1
EndSplineSet
EndChar

StartChar: z
Encoding: 122 122 52
Width: 1317
Flags: HMW
LayerCount: 2
Fore
SplineSet
881 287 m 2,0,1
 940 287 940 287 959.5 309.5 c 128,-1,2
 979 332 979 332 979 381 c 2,3,-1
 979 438 l 1,4,-1
 1266 438 l 1,5,-1
 1266 0 l 1,6,-1
 51 0 l 1,7,-1
 51 287 l 1,8,-1
 584 815 l 1,9,-1
 446 815 l 2,10,11
 387 815 387 815 367.5 794.5 c 128,-1,12
 348 774 348 774 348 717 c 2,13,-1
 348 666 l 1,14,-1
 61 666 l 1,15,-1
 61 1102 l 1,16,-1
 1260 1102 l 1,17,-1
 1260 815 l 1,18,-1
 731 287 l 1,19,-1
 881 287 l 2,0,1
EndSplineSet
EndChar

StartChar: fi
Encoding: 64257 64257 53
Width: 1929
Flags: HMW
LayerCount: 2
Fore
SplineSet
203 1102 m 1,0,1
 135.438452521 1133.7936694 135.438452521 1133.7936694 103.5 1218.5 c 0,2,3
 92 1249 92 1249 92 1303.5 c 128,-1,4
 92 1358 92 1358 132 1409 c 128,-1,5
 172 1460 172 1460 243.5 1493 c 0,6,7
 380 1556 380 1556 639 1556 c 0,8,9
 1042.46666667 1556 1042.46666667 1556 1123.5 1413 c 0,10,11
 1149 1368 1149 1368 1149 1324 c 128,-1,12
 1149 1280 1149 1280 1138.5 1249.5 c 128,-1,13
 1128 1219 1128 1219 1103.5 1194 c 0,14,15
 1049.6 1139 1049.6 1139 943.8 1139 c 128,-1,16
 838 1139 838 1139 788.5 1188 c 128,-1,17
 739 1237 739 1237 739 1293.5 c 0,18,19
 739 1388.33333333 739 1388.33333333 811 1415 c 1,20,-1
 799 1423 l 1,21,22
 704.564102564 1423 704.564102564 1423 659.5 1375.5 c 0,23,24
 629 1343.35135135 629 1343.35135135 629 1297.17567568 c 128,-1,25
 629 1251 629 1251 642 1218.5 c 128,-1,26
 655 1186 655 1186 686 1160.5 c 0,27,28
 757.117647059 1102 757.117647059 1102 895 1102 c 2,29,-1
 965 1102 l 1,30,-1
 965 731 l 1,31,-1
 780 731 l 1,32,-1
 780 479 l 2,33,34
 780 412 780 412 813 391.5 c 128,-1,35
 846 371 846 371 897 371 c 2,36,-1
 965 371 l 1,37,-1
 965 0 l 1,38,-1
 82 0 l 1,39,-1
 82 371 l 1,40,-1
 121 371 l 2,41,42
 174 371 174 371 199.5 404.5 c 128,-1,43
 225 438 225 438 225 477 c 2,44,-1
 225 731 l 1,45,-1
 41 731 l 1,46,-1
 41 1102 l 1,47,-1
 203 1102 l 1,0,1
1765 1102 m 1,48,-1
 1765 479 l 2,49,50
 1765 412 1765 412 1798 391.5 c 128,-1,51
 1831 371 1831 371 1882 371 c 2,52,-1
 1909 371 l 1,53,-1
 1909 0 l 1,54,-1
 1067 0 l 1,55,-1
 1067 371 l 1,56,-1
 1106 371 l 2,57,58
 1159 371 1159 371 1184.5 404.5 c 128,-1,59
 1210 438 1210 438 1210 477 c 2,60,-1
 1210 618 l 2,61,62
 1210 676 1210 676 1173.5 703.5 c 128,-1,63
 1137 731 1137 731 1090 731 c 2,64,-1
 1067 731 l 1,65,-1
 1067 1102 l 1,66,-1
 1765 1102 l 1,48,-1
1259.5 1199.5 m 128,-1,68
 1194 1260 1194 1260 1194 1347 c 128,-1,69
 1194 1434 1194 1434 1259.5 1495 c 128,-1,70
 1325 1556 1325 1556 1447 1556 c 128,-1,71
 1569 1556 1569 1556 1635.5 1495 c 128,-1,72
 1702 1434 1702 1434 1702 1347 c 128,-1,73
 1702 1260 1702 1260 1635.5 1199.5 c 128,-1,74
 1569 1139 1569 1139 1447 1139 c 128,-1,67
 1325 1139 1325 1139 1259.5 1199.5 c 128,-1,68
EndSplineSet
EndChar

StartChar: fl
Encoding: 64258 64258 54
Width: 1970
Flags: HMW
LayerCount: 2
Fore
SplineSet
203 1102 m 1,0,1
 135.438452521 1133.7936694 135.438452521 1133.7936694 103.5 1218.5 c 0,2,3
 92 1249 92 1249 92 1303.5 c 128,-1,4
 92 1358 92 1358 131 1409 c 128,-1,5
 170 1460 170 1460 240.5 1493 c 0,6,7
 375.090909091 1556 375.090909091 1556 618 1556 c 0,8,9
 988.822222222 1556 988.822222222 1556 1063.5 1413 c 0,10,11
 1087 1368 1087 1368 1087 1324 c 128,-1,12
 1087 1280 1087 1280 1077 1249.5 c 128,-1,13
 1067 1219 1067 1219 1043.5 1194 c 0,14,15
 991.8 1139 991.8 1139 892.4 1139 c 128,-1,16
 793 1139 793 1139 745.5 1188 c 128,-1,17
 698 1237 698 1237 698 1293.5 c 0,18,19
 698 1388.33333333 698 1388.33333333 770 1415 c 1,20,-1
 758 1423 l 1,21,22
 663.564102564 1423 663.564102564 1423 618.5 1375.5 c 0,23,24
 588 1343.35135135 588 1343.35135135 588 1297.17567568 c 128,-1,25
 588 1251 588 1251 601 1218.5 c 128,-1,26
 614 1186 614 1186 645 1160.5 c 0,27,28
 716.117647059 1102 716.117647059 1102 854 1102 c 2,29,-1
 1006 1102 l 1,30,-1
 1006 731 l 1,31,-1
 780 731 l 1,32,-1
 780 479 l 2,33,34
 780 412 780 412 813 391.5 c 128,-1,35
 846 371 846 371 897 371 c 2,36,-1
 965 371 l 1,37,-1
 965 0 l 1,38,-1
 82 0 l 1,39,-1
 82 371 l 1,40,-1
 121 371 l 2,41,42
 174 371 174 371 199.5 404.5 c 128,-1,43
 225 438 225 438 225 477 c 2,44,-1
 225 731 l 1,45,-1
 41 731 l 1,46,-1
 41 1102 l 1,47,-1
 203 1102 l 1,0,1
1806 1473 m 1,48,-1
 1806 479 l 2,49,50
 1806 412 1806 412 1839 391.5 c 128,-1,51
 1872 371 1872 371 1923 371 c 2,52,-1
 1950 371 l 1,53,-1
 1950 0 l 1,54,-1
 1108 0 l 1,55,-1
 1108 371 l 1,56,-1
 1147 371 l 2,57,58
 1200 371 1200 371 1225.5 404.5 c 128,-1,59
 1251 438 1251 438 1251 477 c 2,60,-1
 1251 989 l 2,61,62
 1251 1102 1251 1102 1151 1102 c 2,63,-1
 1128 1102 l 1,64,-1
 1128 1473 l 1,65,-1
 1806 1473 l 1,48,-1
EndSplineSet
EndChar

StartChar: germandbls
Encoding: 223 223 55
Width: 1661
Flags: HMW
LayerCount: 2
Fore
SplineSet
1051 465 m 0,0,1
 1051 643 1051 643 825 643 c 2,2,-1
 815 643 l 1,3,-1
 815 858 l 1,4,-1
 825 858 l 2,5,6
 923.588235294 858 923.588235294 858 977.5 916.5 c 0,7,8
 1022 964.787234043 1022 964.787234043 1022 1047.39361702 c 128,-1,9
 1022 1130 1022 1130 984 1167 c 128,-1,10
 946 1204 946 1204 880.5 1204 c 0,11,12
 760 1204 760 1204 760 1055 c 2,13,-1
 760 0 l 1,14,-1
 61 0 l 1,15,-1
 61 371 l 1,16,17
 133 371 133 371 169 394.5 c 128,-1,18
 205 418 205 418 205 483 c 2,19,-1
 205 946 l 2,20,21
 205 1100.57446809 205 1100.57446809 234.5 1180.28723404 c 128,-1,22
 264 1260 264 1260 310 1317 c 128,-1,23
 356 1374 356 1374 434 1418 c 0,24,25
 602.409090909 1513 602.409090909 1513 907 1513 c 0,26,27
 1356.51265823 1513 1356.51265823 1513 1505.5 1293 c 0,28,29
 1559 1214 1559 1214 1559 1088.5 c 128,-1,30
 1559 963 1559 963 1479 870.5 c 128,-1,31
 1399 778 1399 778 1245 756 c 1,32,-1
 1245 745 l 1,33,34
 1415 729 1415 729 1517.5 636 c 128,-1,35
 1620 543 1620 543 1620 375 c 0,36,37
 1620 119.746835443 1620 119.746835443 1308.5 33 c 0,38,39
 1190 0 1190 0 1006 0 c 2,40,-1
 815 0 l 1,41,-1
 815 276 l 1,42,-1
 836 276 l 2,43,44
 961 276 961 276 1006 326.5 c 128,-1,45
 1051 377 1051 377 1051 465 c 0,0,1
EndSplineSet
EndChar

StartChar: AE
Encoding: 198 198 68
Width: 2138
Flags: HMW
LayerCount: 2
Fore
SplineSet
1606 371 m 2,0,1
 1690.15384615 371 1690.15384615 371 1712.57692308 397.5 c 128,-1,2
 1735 424 1735 424 1741 458 c 128,-1,3
 1747 492 1747 492 1747 545 c 1,4,-1
 2097 545 l 1,5,-1
 2097 0 l 1,6,-1
 692 0 l 1,7,-1
 692 371 l 1,8,9
 780 371 780 371 818 394.5 c 128,-1,10
 856 418 856 418 856 483 c 2,11,-1
 856 545 l 1,12,-1
 537 545 l 1,13,-1
 500 471 l 2,14,15
 479 430 479 430 499.5 400.5 c 128,-1,16
 520 371 520 371 578 371 c 2,17,-1
 635 371 l 1,18,-1
 635 0 l 1,19,-1
 20 0 l 1,20,-1
 20 371 l 1,21,-1
 41 371 l 2,22,23
 109.137931034 371 109.137931034 371 136.568965517 392.5 c 128,-1,24
 164 414 164 414 177 435.5 c 128,-1,25
 190 457 190 457 205 483 c 1,26,-1
 463 989 l 1,27,28
 522.581818182 1102 522.581818182 1102 383 1102 c 2,29,-1
 362 1102 l 1,30,-1
 362 1473 l 1,31,-1
 2097 1473 l 1,32,-1
 2097 928 l 1,33,-1
 1747 928 l 1,34,35
 1747 1035.18181818 1747 1035.18181818 1724.5 1061.09090909 c 128,-1,36
 1702 1087 1702 1087 1674.5 1094.5 c 128,-1,37
 1647 1102 1647 1102 1606 1102 c 2,38,-1
 1425 1102 l 1,39,-1
 1425 836 l 1,40,-1
 1745 836 l 1,41,-1
 1745 659 l 1,42,-1
 1425 659 l 1,43,-1
 1425 371 l 1,44,-1
 1606 371 l 2,0,1
616 700 m 1,45,-1
 856 700 l 1,46,-1
 856 1102 l 1,47,-1
 821 1102 l 1,48,-1
 616 700 l 1,45,-1
EndSplineSet
EndChar

StartChar: ae
Encoding: 230 230 69
Width: 2140
Flags: HMW
LayerCount: 2
Fore
SplineSet
1102 1051 m 1,0,1
 1252.15384615 1147 1252.15384615 1147 1464 1147 c 0,2,3
 1774.37209302 1147 1774.37209302 1147 1940.5 965 c 0,4,5
 2101.05547074 789.104834606 2101.05547074 789.104834606 2097 489 c 1,6,-1
 1327 489 l 1,7,8
 1331 340 1331 340 1378 283.5 c 128,-1,9
 1425 227 1425 227 1524 227 c 0,10,11
 1594.34883721 227 1594.34883721 227 1629.6744186 258 c 0,12,13
 1697.25628141 317.306532663 1697.25628141 317.306532663 1708 414 c 1,14,-1
 2073 414 l 1,15,16
 2014.46786368 54.4454483074 2014.46786368 54.4454483074 1682.5 -19.5 c 0,17,18
 1577 -43 1577 -43 1431.5 -43 c 128,-1,19
 1286 -43 1286 -43 1142.5 8 c 128,-1,20
 999 59 999 59 913 166 c 1,21,22
 815.993023256 30.8831395349 815.993023256 30.8831395349 592 -16.5 c 0,23,24
 514 -33 514 -33 420 -33 c 0,25,26
 39 -33 39 -33 39 256 c 0,27,28
 39 352 39 352 93 406.5 c 128,-1,29
 147 461 147 461 229 493.5 c 128,-1,30
 311 526 311 526 407.5 545.5 c 128,-1,31
 504 565 504 565 586 593 c 128,-1,32
 668 621 668 621 722 667 c 128,-1,33
 776 713 776 713 776 792.5 c 0,34,35
 776 963 776 963 575 963 c 0,36,37
 446.6 963 446.6 963 382 915.5 c 0,38,39
 365 903 365 903 352 893 c 1,40,-1
 362 883 l 1,41,42
 419 913 419 913 469.5 913 c 128,-1,43
 520 913 520 913 563 874.5 c 128,-1,44
 606 836 606 836 606 754 c 128,-1,45
 606 672 606 672 540.5 623.5 c 128,-1,46
 475 575 475 575 367.5 575 c 128,-1,47
 260 575 260 575 197.5 635.5 c 128,-1,48
 135 696 135 696 135 807 c 0,49,50
 135 943.34965035 135 943.34965035 274.5 1037 c 0,51,52
 438.354166667 1147 438.354166667 1147 712.677083333 1147 c 128,-1,53
 987 1147 987 1147 1102 1051 c 1,0,1
1563.5 819.5 m 128,-1,55
 1534 877 1534 877 1465.5 877 c 128,-1,56
 1397 877 1397 877 1367 827.5 c 128,-1,57
 1337 778 1337 778 1327 664 c 1,58,-1
 1599 664 l 1,59,54
 1593 762 1593 762 1563.5 819.5 c 128,-1,55
797 565 m 1,60,61
 774 528 774 528 738 500.5 c 128,-1,62
 702 473 702 473 667.5 445.5 c 128,-1,63
 633 418 633 418 607.5 387 c 128,-1,64
 582 356 582 356 582 318.5 c 128,-1,65
 582 281 582 281 600 254 c 128,-1,66
 618 227 618 227 658 227 c 128,-1,67
 698 227 698 227 723 241.5 c 128,-1,68
 748 256 748 256 767 277.5 c 0,69,70
 806.601873536 322.31264637 806.601873536 322.31264637 815 379 c 1,71,72
 797 419.5 797 419.5 797 565 c 1,60,61
EndSplineSet
EndChar

StartChar: Aogonek
Encoding: 260 260 76
Width: 1647
Flags: HMW
LayerCount: 2
Fore
SplineSet
1151 -315 m 0,0,1
 1151 -133.224489796 1151 -133.224489796 1423 0 c 1,2,-1
 717 0 l 1,3,-1
 717 371 l 1,4,-1
 772 371 l 2,5,6
 829 371 829 371 848.5 399.5 c 128,-1,7
 868 428 868 428 852 471 c 1,8,-1
 838 514 l 1,9,-1
 522 514 l 1,10,-1
 508 471 l 1,11,12
 492 428 492 428 510 399.5 c 128,-1,13
 528 371 528 371 586 371 c 2,14,-1
 643 371 l 1,15,-1
 643 0 l 1,16,-1
 20 0 l 1,17,-1
 20 371 l 1,18,-1
 61 371 l 2,19,20
 133 371 133 371 157.5 399.5 c 128,-1,21
 182 428 182 428 205 483 c 2,22,-1
 410 989 l 1,23,24
 432 1047 432 1047 417.5 1074.5 c 128,-1,25
 403 1102 403 1102 330 1102 c 2,26,-1
 309 1102 l 1,27,-1
 309 1473 l 1,28,-1
 1337 1473 l 1,29,-1
 1337 1102 l 1,30,-1
 1317 1102 l 2,31,32
 1243 1102 1243 1102 1228.5 1073 c 128,-1,33
 1214 1044 1214 1044 1237 989 c 2,34,-1
 1442 483 l 1,35,36
 1470.43119266 416.660550459 1470.43119266 416.660550459 1485.71559633 400.830275229 c 0,37,38
 1514.51724138 371 1514.51724138 371 1585 371 c 2,39,-1
 1626 371 l 1,40,-1
 1626 0 l 1,41,42
 1493 -59 1493 -59 1442 -117.5 c 128,-1,43
 1391 -176 1391 -176 1391 -236 c 0,44,45
 1391 -315 1391 -315 1460 -315 c 0,46,47
 1509 -315 1509 -315 1563 -242 c 1,48,-1
 1667 -326 l 1,49,50
 1532.20930233 -487 1532.20930233 -487 1364 -487 c 0,51,52
 1249 -487 1249 -487 1200 -436 c 128,-1,53
 1151 -385 1151 -385 1151 -315 c 0,0,1
573 670 m 1,54,-1
 786 670 l 1,55,-1
 686 977 l 1,56,-1
 678 977 l 1,57,-1
 573 670 l 1,54,-1
EndSplineSet
EndChar

StartChar: aogonek
Encoding: 261 261 77
Width: 1530
Flags: HMW
LayerCount: 2
Fore
SplineSet
1038 -295 m 0,0,1
 1038 -153.615384615 1038 -153.615384615 1182 -41 c 1,2,-1
 1176 -41 l 2,3,4
 994.40625 -41 994.40625 -41 903 34 c 0,5,6
 831 93.0769230769 831 93.0769230769 831 162 c 1,7,-1
 815 162 l 1,8,9
 802.327191366 75.4024743354 802.327191366 75.4024743354 701.5 18.5 c 0,10,11
 588.98245614 -45 588.98245614 -45 420 -45 c 0,12,13
 144.619469027 -45 144.619469027 -45 66.5 115.5 c 0,14,15
 39 172 39 172 39 259 c 128,-1,16
 39 346 39 346 93 401.5 c 128,-1,17
 147 457 147 457 229 489.5 c 128,-1,18
 311 522 311 522 407.5 542.5 c 128,-1,19
 504 563 504 563 586 592 c 128,-1,20
 668 621 668 621 722 667 c 128,-1,21
 776 713 776 713 776 792.5 c 0,22,23
 776 963 776 963 575 963 c 0,24,25
 446.6 963 446.6 963 382 915.5 c 0,26,27
 365 903 365 903 352 893 c 1,28,-1
 362 883 l 1,29,30
 419 913 419 913 469.5 913 c 128,-1,31
 520 913 520 913 563 874.5 c 128,-1,32
 606 836 606 836 606 754 c 128,-1,33
 606 672 606 672 540.5 623.5 c 128,-1,34
 475 575 475 575 367.5 575 c 128,-1,35
 260 575 260 575 197.5 635.5 c 128,-1,36
 135 696 135 696 135 807 c 0,37,38
 135 943.34965035 135 943.34965035 274.5 1037 c 0,39,40
 438.354166667 1147 438.354166667 1147 723 1147 c 0,41,42
 1061.63636364 1147 1061.63636364 1147 1210.5 1022 c 0,43,44
 1325 925.854961832 1325 925.854961832 1325 756 c 2,45,-1
 1325 365 l 2,46,47
 1325 274 1325 274 1331 241.5 c 128,-1,48
 1337 209 1337 209 1372 209 c 128,-1,49
 1407 209 1407 209 1419.5 238.5 c 128,-1,50
 1432 268 1432 268 1432 340 c 2,51,-1
 1432 465 l 1,52,-1
 1546 465 l 1,53,-1
 1546 338 l 2,54,55
 1546 223 1546 223 1517.5 144.5 c 128,-1,56
 1489 66 1489 66 1417 12 c 1,57,58
 1278 -88 1278 -88 1278 -215 c 0,59,60
 1278 -295 1278 -295 1348 -295 c 0,61,62
 1397 -295 1397 -295 1450 -221 c 1,63,-1
 1554 -305 l 1,64,65
 1420.25581395 -467 1420.25581395 -467 1251 -467 c 0,66,67
 1137 -467 1137 -467 1087.5 -416 c 128,-1,68
 1038 -365 1038 -365 1038 -295 c 0,0,1
776 530 m 1,69,70
 754 498 754 498 721 478.5 c 128,-1,71
 688 459 688 459 657.5 440.5 c 0,72,73
 582 394.704918033 582 394.704918033 582 328 c 0,74,75
 582 295 582 295 600 268.5 c 128,-1,76
 618 242 618 242 667.5 242 c 128,-1,77
 717 242 717 242 746.5 278.5 c 128,-1,78
 776 315 776 315 776 381 c 2,79,-1
 776 530 l 1,69,70
EndSplineSet
EndChar

StartChar: Eth
Encoding: 208 208 90
Width: 1901
Flags: HMW
LayerCount: 2
Fore
SplineSet
41 836 m 1,0,-1
 205 836 l 1,1,-1
 205 989 l 2,2,3
 205 1055 205 1055 167 1078.5 c 128,-1,4
 129 1102 129 1102 41 1102 c 1,5,-1
 41 1473 l 1,6,-1
 1102 1473 l 2,7,8
 1420.65116279 1473 1420.65116279 1473 1617.5 1311 c 0,9,10
 1849 1120.48325359 1849 1120.48325359 1849 735 c 256,11,12
 1849 346 1849 346 1616.5 160 c 0,13,14
 1414 -2 1414 -2 1059 -2 c 2,15,-1
 41 0 l 1,16,-1
 41 371 l 1,17,18
 129 371 129 371 167 394.5 c 128,-1,19
 205 418 205 418 205 483 c 2,20,-1
 205 659 l 1,21,-1
 41 659 l 1,22,-1
 41 836 l 1,0,-1
889 371 m 2,23,24
 1024.05263158 371 1024.05263158 371 1088.5 433 c 0,25,26
 1178 519.101265823 1178 519.101265823 1178 735 c 0,27,28
 1178 1047.79439252 1178 1047.79439252 999.5 1089.5 c 0,29,30
 946 1102 946 1102 889 1102 c 2,31,-1
 795 1102 l 1,32,-1
 795 836 l 1,33,-1
 1014 836 l 1,34,-1
 1014 659 l 1,35,-1
 795 659 l 1,36,-1
 795 371 l 1,37,-1
 889 371 l 2,23,24
EndSplineSet
EndChar

StartChar: eth
Encoding: 240 240 91
Width: 1524
Flags: HMW
LayerCount: 2
Fore
SplineSet
819 1004 m 1,0,1
 777.409736308 1079.61866126 777.409736308 1079.61866126 676 1163 c 1,2,-1
 453 1061 l 1,3,-1
 383 1217 l 1,4,-1
 512 1276 l 1,5,6
 446 1313 446 1313 393 1329 c 1,7,-1
 485 1556 l 1,8,9
 680.54538718 1523.74509077 680.54538718 1523.74509077 864 1438 c 1,10,-1
 1120 1554 l 1,11,-1
 1188 1397 l 1,12,-1
 1049 1333 l 1,13,14
 1356.92399566 1120.07383279 1356.92399566 1120.07383279 1450 807 c 0,15,16
 1483 696 1483 696 1483 554 c 128,-1,17
 1483 412 1483 412 1431.5 295 c 128,-1,18
 1380 178 1380 178 1286 103.5 c 0,19,20
 1101.15436242 -43 1101.15436242 -43 762 -43 c 256,21,22
 239.199052133 -43 239.199052133 -43 92 261.5 c 0,23,24
 41 367 41 367 41 512 c 256,25,26
 41 657 41 657 100.5 762.5 c 128,-1,27
 160 868 160 868 264.5 929.5 c 0,28,29
 481.034736191 1056.93431843 481.034736191 1056.93431843 819 1004 c 1,0,1
641 697.5 m 128,-1,31
 610 641 610 641 610 501.5 c 128,-1,32
 610 362 610 362 641 305 c 128,-1,33
 672 248 672 248 762 248 c 256,34,35
 852 248 852 248 882.5 305 c 128,-1,36
 913 362 913 362 913 501.5 c 128,-1,37
 913 641 913 641 882.5 697.5 c 128,-1,38
 852 754 852 754 762 754 c 256,39,30
 672 754 672 754 641 697.5 c 128,-1,31
EndSplineSet
EndChar

StartChar: Dcroat
Encoding: 272 272 92
Width: 1901
Flags: HMW
LayerCount: 2
Fore
SplineSet
41 836 m 1,0,-1
 205 836 l 1,1,-1
 205 989 l 2,2,3
 205 1055 205 1055 167 1078.5 c 128,-1,4
 129 1102 129 1102 41 1102 c 1,5,-1
 41 1473 l 1,6,-1
 1102 1473 l 2,7,8
 1420.65116279 1473 1420.65116279 1473 1617.5 1311 c 0,9,10
 1849 1120.48325359 1849 1120.48325359 1849 735 c 256,11,12
 1849 346 1849 346 1616.5 160 c 0,13,14
 1414 -2 1414 -2 1059 -2 c 2,15,-1
 41 0 l 1,16,-1
 41 371 l 1,17,18
 129 371 129 371 167 394.5 c 128,-1,19
 205 418 205 418 205 483 c 2,20,-1
 205 659 l 1,21,-1
 41 659 l 1,22,-1
 41 836 l 1,0,-1
889 371 m 2,23,24
 1024.05263158 371 1024.05263158 371 1088.5 433 c 0,25,26
 1178 519.101265823 1178 519.101265823 1178 735 c 0,27,28
 1178 1047.79439252 1178 1047.79439252 999.5 1089.5 c 0,29,30
 946 1102 946 1102 889 1102 c 2,31,-1
 795 1102 l 1,32,-1
 795 836 l 1,33,-1
 1014 836 l 1,34,-1
 1014 659 l 1,35,-1
 795 659 l 1,36,-1
 795 371 l 1,37,-1
 889 371 l 2,23,24
EndSplineSet
EndChar

StartChar: dcroat
Encoding: 273 273 93
Width: 1634
Flags: HMW
LayerCount: 2
Fore
SplineSet
1440 453 m 2,0,1
 1440 371 1440 371 1526 371 c 2,2,-1
 1583 371 l 1,3,-1
 1583 0 l 1,4,-1
 911 0 l 1,5,-1
 911 182 l 1,6,-1
 895 182 l 1,7,8
 839.986255022 34.1505603722 839.986255022 34.1505603722 665.5 -15.5 c 0,9,10
 604 -33 604 -33 526 -33 c 0,11,12
 281 -33 281 -33 155 115.5 c 128,-1,13
 29 264 29 264 29 551 c 256,14,15
 29 838 29 838 164 977 c 128,-1,16
 299 1116 299 1116 535 1116 c 0,17,18
 645.096774194 1116 645.096774194 1116 712.548387097 1090.5 c 128,-1,19
 780 1065 780 1065 817 1045.5 c 128,-1,20
 854 1026 854 1026 891 1008 c 1,21,-1
 891 1165 l 1,22,-1
 610 1165 l 1,23,-1
 610 1341 l 1,24,-1
 891 1341 l 1,25,-1
 891 1473 l 1,26,-1
 1440 1473 l 1,27,-1
 1440 1341 l 1,28,-1
 1583 1341 l 1,29,-1
 1583 1165 l 1,30,-1
 1440 1165 l 1,31,-1
 1440 453 l 2,0,1
604 644 m 128,-1,33
 598 594 598 594 598 540.5 c 128,-1,34
 598 487 598 487 604 439 c 128,-1,35
 610 391 610 391 626.5 355 c 0,36,37
 661.333333333 279 661.333333333 279 743 279 c 256,38,39
 865.468085106 279 865.468085106 279 885 432 c 0,40,41
 891 479 891 479 891 532 c 2,42,-1
 891 758 l 1,43,44
 866 782 866 782 824 798.5 c 128,-1,45
 782 815 782 815 740 815 c 128,-1,46
 698 815 698 815 670.5 792.5 c 128,-1,47
 643 770 643 770 626.5 732 c 128,-1,32
 610 694 610 694 604 644 c 128,-1,33
EndSplineSet
EndChar

StartChar: Eogonek
Encoding: 280 280 108
Width: 1507
Flags: HMW
LayerCount: 2
Fore
SplineSet
991 -315 m 0,0,1
 991 -134.577464789 991 -134.577464789 1264 0 c 1,2,-1
 41 0 l 1,3,-1
 41 371 l 1,4,5
 129 371 129 371 167 394.5 c 128,-1,6
 205 418 205 418 205 483 c 2,7,-1
 205 989 l 2,8,9
 205 1055 205 1055 167 1078.5 c 128,-1,10
 129 1102 129 1102 41 1102 c 1,11,-1
 41 1473 l 1,12,-1
 1466 1473 l 1,13,-1
 1466 928 l 1,14,-1
 1116 928 l 1,15,16
 1116 1035.18181818 1116 1035.18181818 1093.5 1061.09090909 c 128,-1,17
 1071 1087 1071 1087 1043.5 1094.5 c 128,-1,18
 1016 1102 1016 1102 975 1102 c 2,19,-1
 795 1102 l 1,20,-1
 795 836 l 1,21,-1
 1114 836 l 1,22,-1
 1114 659 l 1,23,-1
 795 659 l 1,24,-1
 795 371 l 1,25,-1
 975 371 l 2,26,27
 1059.15384615 371 1059.15384615 371 1081.57692308 397.5 c 128,-1,28
 1104 424 1104 424 1110 458 c 128,-1,29
 1116 492 1116 492 1116 545 c 1,30,-1
 1466 545 l 1,31,-1
 1466 0 l 1,32,33
 1231 -111 1231 -111 1231 -236 c 0,34,35
 1231 -315 1231 -315 1300 -315 c 0,36,37
 1350 -315 1350 -315 1403 -242 c 1,38,-1
 1507 -326 l 1,39,40
 1374.08139535 -487 1374.08139535 -487 1204 -487 c 0,41,42
 1090 -487 1090 -487 1040.5 -436 c 128,-1,43
 991 -385 991 -385 991 -315 c 0,0,1
EndSplineSet
EndChar

StartChar: eogonek
Encoding: 281 281 109
Width: 1446
Flags: HMW
LayerCount: 2
Fore
SplineSet
881 -35 m 1,0,1
 471.703572006 -79.2482624859 471.703572006 -79.2482624859 240.5 102.5 c 0,2,3
 41 259.326203209 41 259.326203209 41 553 c 0,4,5
 41 839.679558011 41 839.679558011 231.5 996.5 c 0,6,7
 414.322147651 1147 414.322147651 1147 717 1147 c 0,8,9
 1068.34883721 1147 1068.34883721 1147 1244 965 c 0,10,11
 1407.1480411 795.955041747 1407.1480411 795.955041747 1403 489 c 1,12,-1
 612 489 l 1,13,14
 616 340 616 340 668.5 283.5 c 128,-1,15
 721 227 721 227 819 227 c 0,16,17
 934.943661972 227 934.943661972 227 988.5 324.5 c 0,18,19
 1008 360 1008 360 1014 414 c 1,20,-1
 1378 414 l 1,21,22
 1356 279 1356 279 1293.5 195 c 128,-1,23
 1231 111 1231 111 1146 45.5 c 128,-1,24
 1061 -20 1061 -20 1015 -81.5 c 128,-1,25
 969 -143 969 -143 969 -219 c 128,-1,26
 969 -295 969 -295 1038 -295 c 0,27,28
 1087 -295 1087 -295 1141 -221 c 1,29,-1
 1245 -305 l 1,30,31
 1111.25581395 -467 1111.25581395 -467 942 -467 c 0,32,33
 827 -467 827 -467 778 -416 c 128,-1,34
 729 -365 729 -365 729 -296 c 0,35,36
 729 -151.780487805 729 -151.780487805 881 -35 c 1,0,1
905 664 m 1,37,38
 891.959183673 877 891.959183673 877 760 877 c 0,39,40
 690 877 690 877 656.5 827.5 c 128,-1,41
 623 778 623 778 612 664 c 1,42,-1
 905 664 l 1,37,38
EndSplineSet
EndChar

StartChar: Hbar
Encoding: 294 294 122
Width: 1933
Flags: HMW
LayerCount: 2
Fore
SplineSet
0 1028 m 1,0,-1
 201 1028 l 1,1,2
 190 1069 190 1069 151.5 1085.5 c 128,-1,3
 113 1102 113 1102 41 1102 c 1,4,-1
 41 1473 l 1,5,-1
 930 1473 l 1,6,-1
 930 1102 l 1,7,8
 864 1102 864 1102 833.5 1084.5 c 128,-1,9
 803 1067 803 1067 797 1028 c 1,10,-1
 1137 1028 l 1,11,12
 1128 1067 1128 1067 1098.5 1084.5 c 128,-1,13
 1069 1102 1069 1102 1004 1102 c 1,14,-1
 1004 1473 l 1,15,-1
 1892 1473 l 1,16,-1
 1892 1102 l 1,17,18
 1819 1102 1819 1102 1781 1085.5 c 128,-1,19
 1743 1069 1743 1069 1733 1028 c 1,20,-1
 1933 1028 l 1,21,-1
 1933 852 l 1,22,-1
 1729 852 l 1,23,-1
 1729 483 l 2,24,25
 1729 418 1729 418 1766.5 394.5 c 128,-1,26
 1804 371 1804 371 1892 371 c 1,27,-1
 1892 0 l 1,28,-1
 1004 0 l 1,29,-1
 1004 371 l 1,30,31
 1079 371 1079 371 1109 394.5 c 128,-1,32
 1139 418 1139 418 1139 471 c 2,33,-1
 1139 596 l 1,34,-1
 795 596 l 1,35,-1
 795 471 l 2,36,37
 795 418 795 418 824.5 394.5 c 128,-1,38
 854 371 854 371 930 371 c 1,39,-1
 930 0 l 1,40,-1
 41 0 l 1,41,-1
 41 371 l 1,42,43
 129 371 129 371 167 394.5 c 128,-1,44
 205 418 205 418 205 483 c 2,45,-1
 205 852 l 1,46,-1
 0 852 l 1,47,-1
 0 1028 l 1,0,-1
1139 778 m 1,48,-1
 1139 852 l 1,49,-1
 795 852 l 1,50,-1
 795 778 l 1,51,-1
 1139 778 l 1,48,-1
EndSplineSet
EndChar

StartChar: hbar
Encoding: 295 295 123
Width: 1716
Flags: HMW
LayerCount: 2
Fore
SplineSet
903 717 m 0,0,1
 774 717 774 717 774 571 c 2,2,-1
 774 469 l 2,3,4
 774 416 774 416 792.5 393.5 c 128,-1,5
 811 371 811 371 864 371 c 2,6,-1
 938 371 l 1,7,-1
 938 0 l 1,8,-1
 82 0 l 1,9,-1
 82 371 l 1,10,-1
 141 371 l 2,11,12
 182 371 182 371 203.5 397.5 c 128,-1,13
 225 424 225 424 225 461 c 2,14,-1
 225 1165 l 1,15,-1
 80 1165 l 1,16,-1
 80 1341 l 1,17,-1
 225 1341 l 1,18,-1
 225 1473 l 1,19,-1
 774 1473 l 1,20,-1
 774 1341 l 1,21,-1
 1094 1341 l 1,22,-1
 1094 1165 l 1,23,-1
 774 1165 l 1,24,-1
 774 1061 l 2,25,26
 774 1042 774 1042 762 995 c 128,-1,27
 750 948 750 948 717 901 c 1,28,-1
 737 891 l 1,29,30
 791 989 791 989 882 1047.5 c 128,-1,31
 973 1106 973 1106 1116.5 1106 c 128,-1,32
 1260 1106 1260 1106 1342.5 1067 c 128,-1,33
 1425 1028 1425 1028 1471.5 968.5 c 0,34,35
 1552 865.494623656 1552 865.494623656 1552 709 c 2,36,-1
 1552 469 l 2,37,38
 1552 416 1552 416 1570.5 393.5 c 128,-1,39
 1589 371 1589 371 1642 371 c 2,40,-1
 1696 371 l 1,41,-1
 1696 0 l 1,42,-1
 1004 0 l 1,43,-1
 1004 598 l 2,44,45
 1004 717 1004 717 903 717 c 0,0,1
EndSplineSet
EndChar

StartChar: dotlessi
Encoding: 305 305 141
Width: 944
Flags: HMW
LayerCount: 2
Fore
SplineSet
780 1102 m 1,0,-1
 780 479 l 2,1,2
 780 412 780 412 813 391.5 c 128,-1,3
 846 371 846 371 897 371 c 2,4,-1
 924 371 l 1,5,-1
 924 0 l 1,6,-1
 82 0 l 1,7,-1
 82 371 l 1,8,-1
 121 371 l 2,9,10
 174 371 174 371 199.5 404.5 c 128,-1,11
 225 438 225 438 225 477 c 2,12,-1
 225 618 l 2,13,14
 225 676 225 676 188.5 703.5 c 128,-1,15
 152 731 152 731 104 731 c 2,16,-1
 82 731 l 1,17,-1
 82 1102 l 1,18,-1
 780 1102 l 1,0,-1
EndSplineSet
EndChar

StartChar: dotlessj
Encoding: 567 567 146
Width: 862
Flags: HMW
LayerCount: 2
Fore
SplineSet
205 618 m 2,0,1
 205 676 205 676 168 703.5 c 128,-1,2
 131 731 131 731 84 731 c 2,3,-1
 41 731 l 1,4,-1
 41 1102 l 1,5,-1
 760 1102 l 1,6,-1
 760 -29 l 2,7,8
 760 -306.568345324 760 -306.568345324 620.5 -427 c 0,9,10
 488.45 -541 488.45 -541 213 -541 c 0,11,12
 -15.075 -541 -15.075 -541 -133 -452 c 0,13,14
 -233 -376.528301887 -233 -376.528301887 -233 -250 c 0,15,16
 -233 -164 -233 -164 -179 -102.5 c 128,-1,17
 -125 -41 -125 -41 -20 -41 c 0,18,19
 66.3469387755 -41 66.3469387755 -41 121.5 -98.5 c 0,20,21
 168 -146.978723404 168 -146.978723404 168 -206.489361702 c 128,-1,22
 168 -266 168 -266 151.5 -295 c 128,-1,23
 135 -324 135 -324 113 -346 c 1,24,-1
 127 -362 l 1,25,26
 176 -330 176 -330 190.5 -285 c 128,-1,27
 205 -240 205 -240 205 -186 c 2,28,-1
 205 618 l 2,0,1
EndSplineSet
EndChar

StartChar: kgreenlandic
Encoding: 312 312 149
Width: 1753
Flags: HMW
LayerCount: 2
Fore
SplineSet
918 371 m 2,0,1
 979 371 979 371 979 408 c 0,2,3
 979 430.933333333 979 430.933333333 901 502 c 1,4,-1
 780 442 l 1,5,-1
 780 0 l 1,6,-1
 82 0 l 1,7,-1
 82 371 l 1,8,-1
 121 371 l 2,9,10
 174 371 174 371 199.5 404.5 c 128,-1,11
 225 438 225 438 225 477 c 2,12,-1
 225 618 l 2,13,14
 225 676 225 676 188.5 703.5 c 128,-1,15
 152 731 152 731 104 731 c 2,16,-1
 82 731 l 1,17,-1
 82 1102 l 1,18,-1
 780 1102 l 1,19,-1
 780 612 l 1,20,-1
 915 678 l 1,21,22
 971 703.6 971 703.6 971 727.8 c 128,-1,23
 971 752 971 752 918 752 c 2,24,-1
 872 752 l 1,25,-1
 872 1102 l 1,26,-1
 1632 1102 l 1,27,-1
 1632 752 l 1,28,-1
 1571 752 l 2,29,30
 1429.95454545 752 1429.95454545 752 1352 717 c 1,31,-1
 1307 694 l 1,32,-1
 1542 442 l 2,33,34
 1585 395 1585 395 1623 383 c 128,-1,35
 1661 371 1661 371 1733 371 c 1,36,-1
 1733 0 l 1,37,-1
 866 0 l 1,38,-1
 866 371 l 1,39,-1
 918 371 l 2,0,1
EndSplineSet
EndChar

StartChar: Ldot
Encoding: 319 319 156
Width: 1528
Flags: HMW
LayerCount: 2
Fore
SplineSet
958 1102 m 1,0,1
 870 1102 870 1102 832.5 1078.5 c 128,-1,2
 795 1055 795 1055 795 989 c 2,3,-1
 795 371 l 1,4,-1
 995 371 l 2,5,6
 1079 371 1079 371 1108 412 c 128,-1,7
 1137 453 1137 453 1137 514 c 1,8,-1
 1487 514 l 1,9,-1
 1487 0 l 1,10,-1
 41 0 l 1,11,-1
 41 371 l 1,12,13
 129 371 129 371 167 394.5 c 128,-1,14
 205 418 205 418 205 483 c 2,15,-1
 205 989 l 2,16,17
 205 1055 205 1055 167 1078.5 c 128,-1,18
 129 1102 129 1102 41 1102 c 1,19,-1
 41 1473 l 1,20,-1
 958 1473 l 1,21,-1
 958 1102 l 1,0,1
1040 803 m 256,22,23
 1040 891.583333333 1040 891.583333333 1105 955.5 c 0,24,25
 1170.59322034 1020 1170.59322034 1020 1257 1020 c 0,26,27
 1346.40677966 1020 1346.40677966 1020 1412 955.5 c 0,28,29
 1477 891.583333333 1477 891.583333333 1477 803 c 256,30,31
 1477 713 1477 713 1412 648 c 0,32,33
 1348 584 1348 584 1257 584 c 0,34,35
 1169 584 1169 584 1105 648 c 0,36,37
 1040 713 1040 713 1040 803 c 256,22,23
EndSplineSet
EndChar

StartChar: Lslash
Encoding: 321 321 158
Width: 1528
Flags: HMW
LayerCount: 2
Fore
SplineSet
958 1102 m 1,0,1
 870 1102 870 1102 832.5 1078.5 c 128,-1,2
 795 1055 795 1055 795 989 c 2,3,-1
 795 913 l 1,4,-1
 1090 993 l 1,5,-1
 1143 803 l 1,6,-1
 795 709 l 1,7,-1
 795 371 l 1,8,-1
 995 371 l 2,9,10
 1081.96078431 371 1081.96078431 371 1108 412.5 c 0,11,12
 1137 458.71875 1137 458.71875 1137 606 c 1,13,-1
 1487 606 l 1,14,-1
 1487 0 l 1,15,-1
 41 0 l 1,16,-1
 41 371 l 1,17,18
 129 371 129 371 167 394.5 c 128,-1,19
 205 418 205 418 205 483 c 2,20,-1
 205 551 l 1,21,-1
 41 508 l 1,22,-1
 -12 698 l 1,23,-1
 205 756 l 1,24,-1
 205 989 l 2,25,26
 205 1055 205 1055 167 1078.5 c 128,-1,27
 129 1102 129 1102 41 1102 c 1,28,-1
 41 1473 l 1,29,-1
 958 1473 l 1,30,-1
 958 1102 l 1,0,1
EndSplineSet
EndChar

StartChar: lslash
Encoding: 322 322 159
Width: 944
Flags: HMW
LayerCount: 2
Fore
SplineSet
780 1473 m 1,0,-1
 780 969 l 1,1,-1
 938 1012 l 1,2,-1
 991 821 l 1,3,-1
 780 764 l 1,4,-1
 780 479 l 2,5,6
 780 412 780 412 813 391.5 c 128,-1,7
 846 371 846 371 897 371 c 2,8,-1
 924 371 l 1,9,-1
 924 0 l 1,10,-1
 82 0 l 1,11,-1
 82 371 l 1,12,-1
 121 371 l 2,13,14
 174 371 174 371 199.5 404.5 c 128,-1,15
 225 438 225 438 225 477 c 2,16,-1
 225 612 l 1,17,-1
 74 571 l 1,18,-1
 20 762 l 1,19,-1
 225 817 l 1,20,-1
 225 989 l 2,21,22
 225 1047 225 1047 188.5 1074.5 c 128,-1,23
 152 1102 152 1102 104 1102 c 2,24,-1
 82 1102 l 1,25,-1
 82 1473 l 1,26,-1
 780 1473 l 1,0,-1
EndSplineSet
EndChar

StartChar: Eng
Encoding: 330 330 169
Width: 1851
Flags: HMW
LayerCount: 2
Fore
SplineSet
565 817 m 1,0,-1
 565 471 l 2,1,2
 565 406 565 406 603 388.5 c 128,-1,3
 641 371 641 371 729 371 c 1,4,-1
 729 0 l 1,5,-1
 41 0 l 1,6,-1
 41 371 l 1,7,8
 129 371 129 371 167 394.5 c 128,-1,9
 205 418 205 418 205 483 c 2,10,-1
 205 989 l 2,11,12
 205 1055 205 1055 167 1078.5 c 128,-1,13
 129 1102 129 1102 41 1102 c 1,14,-1
 41 1473 l 1,15,-1
 827 1473 l 1,16,-1
 1327 731 l 1,17,-1
 1327 989 l 2,18,19
 1327 1055 1327 1055 1299.5 1078.5 c 128,-1,20
 1272 1102 1272 1102 1184 1102 c 1,21,-1
 1184 1473 l 1,22,-1
 1831 1473 l 1,23,-1
 1831 1102 l 1,24,25
 1743 1102 1743 1102 1715.5 1073 c 128,-1,26
 1688 1044 1688 1044 1688 989 c 2,27,-1
 1688 55 l 2,28,29
 1688 -63 1688 -63 1662 -166.5 c 128,-1,30
 1636 -270 1636 -270 1547 -347 c 0,31,32
 1356.28571429 -512 1356.28571429 -512 827 -512 c 1,33,-1
 827 -203 l 1,34,35
 1021.31034483 -203 1021.31034483 -203 1073.65517241 -186.5 c 128,-1,36
 1126 -170 1126 -170 1151 -141.5 c 128,-1,37
 1176 -113 1176 -113 1176 -57 c 1,38,-1
 565 817 l 1,0,-1
EndSplineSet
EndChar

StartChar: eng
Encoding: 331 331 170
Width: 1655
Flags: HMW
LayerCount: 2
Fore
SplineSet
225 651 m 2,0,1
 225 731 225 731 135 731 c 2,2,-1
 82 731 l 1,3,-1
 82 1102 l 1,4,-1
 676 1102 l 1,5,-1
 655 827 l 1,6,-1
 672 827 l 1,7,8
 694 981 694 981 807 1064 c 128,-1,9
 920 1147 920 1147 1114 1147 c 0,10,11
 1360.73109244 1147 1360.73109244 1147 1470.5 1009.5 c 0,12,13
 1552 907.410526316 1552 907.410526316 1552 750 c 2,14,-1
 1552 61 l 2,15,16
 1552 -104 1552 -104 1518.5 -214 c 128,-1,17
 1485 -324 1485 -324 1396 -390.5 c 128,-1,18
 1307 -457 1307 -457 1153 -484.5 c 128,-1,19
 999 -512 999 -512 762 -512 c 1,20,-1
 762 -211 l 1,21,22
 982.890909091 -211 982.890909091 -211 999.5 -109.5 c 0,23,24
 1004 -82 1004 -82 1004 -55 c 2,25,-1
 1004 639 l 2,26,27
 1004 758 1004 758 903 758 c 0,28,29
 774 758 774 758 774 612 c 2,30,-1
 774 469 l 2,31,32
 774 416 774 416 792.5 393.5 c 128,-1,33
 811 371 811 371 864 371 c 2,34,-1
 918 371 l 1,35,-1
 918 0 l 1,36,-1
 82 0 l 1,37,-1
 82 371 l 1,38,-1
 141 371 l 2,39,40
 182 371 182 371 203.5 397.5 c 128,-1,41
 225 424 225 424 225 461 c 2,42,-1
 225 651 l 2,0,1
EndSplineSet
EndChar

StartChar: Oslash
Encoding: 216 216 187
Width: 1843
Flags: HMW
LayerCount: 2
Fore
SplineSet
1495 1356 m 1,0,1
 1792 1147.46808511 1792 1147.46808511 1792 735 c 0,2,3
 1792 360.307359307 1792 360.307359307 1549.5 153.5 c 0,4,5
 1319.08629442 -43 1319.08629442 -43 922 -43 c 0,6,7
 721 -43 721 -43 555 10 c 1,8,-1
 461 -125 l 1,9,-1
 172 -125 l 1,10,-1
 340 117 l 1,11,12
 51 323.729927007 51 323.729927007 51 735 c 0,13,14
 51 1111.70689655 51 1111.70689655 294 1317 c 0,15,16
 526 1513 526 1513 922 1513 c 0,17,18
 1116.8 1513 1116.8 1513 1280 1462 c 1,19,-1
 1374 1595 l 1,20,-1
 1663 1595 l 1,21,-1
 1495 1356 l 1,0,1
1120 686 m 2,22,-1
 1120 777.5 l 2,23,24
 1120 797 1120 797 1118 817 c 1,25,-1
 795 352 l 1,26,27
 836 305 836 305 907.5 305 c 128,-1,28
 979 305 979 305 1018 327.5 c 128,-1,29
 1057 350 1057 350 1079.5 400.5 c 0,30,31
 1120 491.4 1120 491.4 1120 686 c 2,22,-1
723 664 m 1,32,-1
 1044 1122 l 1,33,34
 997 1165 997 1165 929.5 1165 c 128,-1,35
 862 1165 862 1165 824 1142.5 c 128,-1,36
 786 1120 786 1120 763.5 1070 c 0,37,38
 723 980 723 980 723 735 c 2,39,-1
 723 664 l 1,32,-1
EndSplineSet
EndChar

StartChar: oslash
Encoding: 248 248 188
Width: 1524
Flags: HMW
LayerCount: 2
Fore
SplineSet
1235 1032 m 1,0,1
 1483 875.145299145 1483 875.145299145 1483 553 c 0,2,3
 1483 266.728723404 1483 266.728723404 1286 108.5 c 0,4,5
 1097.37748344 -43 1097.37748344 -43 762 -43 c 0,6,7
 600 -43 600 -43 471 -6 c 1,8,-1
 385 -125 l 1,9,-1
 137 -125 l 1,10,-1
 285 76 l 1,11,12
 41 230.324786325 41 230.324786325 41 553 c 0,13,14
 41 841.587301587 41 841.587301587 237.5 996.5 c 0,15,16
 428.402684564 1147 428.402684564 1147 762 1147 c 0,17,18
 915 1147 915 1147 1044 1112 c 1,19,-1
 1116 1208 l 1,20,-1
 1364 1208 l 1,21,-1
 1235 1032 l 1,0,1
930 514 m 2,22,-1
 930 584.5 l 2,23,24
 930 600 930 600 928 616 c 1,25,-1
 657 248 l 1,26,27
 692 215 692 215 751.5 215 c 128,-1,28
 811 215 811 215 844 232.5 c 128,-1,29
 877 250 877 250 895 290 c 0,30,31
 930 367.777777778 930 367.777777778 930 514 c 2,22,-1
594 498 m 1,32,-1
 860 860 l 1,33,34
 825 889 825 889 769 889 c 128,-1,35
 713 889 713 889 680 871.5 c 128,-1,36
 647 854 647 854 628.5 814 c 0,37,38
 594 739.405405405 594 739.405405405 594 553 c 2,39,-1
 594 498 l 1,32,-1
EndSplineSet
EndChar

StartChar: OE
Encoding: 338 338 191
Width: 2400
Flags: HMW
LayerCount: 2
Fore
SplineSet
1868 371 m 2,0,1
 1952.15384615 371 1952.15384615 371 1974.57692308 397.5 c 128,-1,2
 1997 424 1997 424 2003 458 c 128,-1,3
 2009 492 2009 492 2009 545 c 1,4,-1
 2359 545 l 1,5,-1
 2359 0 l 1,6,-1
 922 0 l 2,7,8
 520.844444444 0 520.844444444 0 294 176 c 0,9,10
 51 364.534482759 51 364.534482759 51 735 c 0,11,12
 51 1107.46551724 51 1107.46551724 294 1296 c 0,13,14
 522.133333333 1473 522.133333333 1473 922 1473 c 2,15,-1
 2359 1473 l 1,16,-1
 2359 928 l 1,17,-1
 2009 928 l 1,18,19
 2009 1035.18181818 2009 1035.18181818 1986.5 1061.09090909 c 128,-1,20
 1964 1087 1964 1087 1936.5 1094.5 c 128,-1,21
 1909 1102 1909 1102 1868 1102 c 2,22,-1
 1688 1102 l 1,23,-1
 1688 836 l 1,24,-1
 2007 836 l 1,25,-1
 2007 659 l 1,26,-1
 1688 659 l 1,27,-1
 1688 371 l 1,28,-1
 1868 371 l 2,0,1
1100 1135 m 1,29,30
 1037.5 1145 1037.5 1145 968.25 1145 c 128,-1,31
 899 1145 899 1145 849 1123.5 c 128,-1,32
 799 1102 799 1102 771 1053 c 0,33,34
 723 969 723 969 723 735 c 0,35,36
 723 512.639344262 723 512.639344262 782.5 419 c 0,37,38
 840.322916667 328 840.322916667 328 981 328 c 0,39,40
 1052.5 328 1052.5 328 1100 338 c 1,41,-1
 1100 1135 l 1,29,30
EndSplineSet
EndChar

StartChar: oe
Encoding: 339 339 192
Width: 2277
Flags: HMW
LayerCount: 2
Fore
SplineSet
762 1147 m 0,0,1
 1003 1147 1003 1147 1171 1049 c 1,2,3
 1331 1147 1331 1147 1531 1147 c 128,-1,4
 1731 1147 1731 1147 1862 1099 c 128,-1,5
 1993 1051 1993 1051 2076 965 c 0,6,7
 2238.16184971 796.976878613 2238.16184971 796.976878613 2234 489 c 1,8,-1
 1444 489 l 1,9,10
 1448 340 1448 340 1500 283.5 c 128,-1,11
 1552 227 1552 227 1651 227 c 0,12,13
 1765.94366197 227 1765.94366197 227 1819.5 324.5 c 0,14,15
 1839 360 1839 360 1845 414 c 1,16,-1
 2210 414 l 1,17,18
 2151.36555076 53.8169546436 2151.36555076 53.8169546436 1803.5 -19.5 c 0,19,20
 1692 -43 1692 -43 1554 -43 c 0,21,22
 1336 -43 1336 -43 1174 55 c 1,23,24
 1004 -43 1004 -43 762 -43 c 0,25,26
 427.125827815 -43 427.125827815 -43 237.5 108.5 c 0,27,28
 41 265.492063492 41 265.492063492 41 553 c 0,29,30
 41 841.587301587 41 841.587301587 237.5 996.5 c 0,31,32
 428.402684564 1147 428.402684564 1147 762 1147 c 0,0,1
610 553 m 256,33,34
 610 383.323529412 610 383.323529412 642 316.5 c 0,35,36
 674.802816901 248 674.802816901 248 762 248 c 256,37,38
 847.732394366 248 847.732394366 248 881.5 316.5 c 0,39,40
 913 380.4 913 380.4 913 550.7 c 128,-1,41
 913 721 913 721 881.5 788.5 c 128,-1,42
 850 856 850 856 762 856 c 128,-1,43
 673.845070423 856 673.845070423 856 642 789.5 c 0,44,45
 610 722.676470588 610 722.676470588 610 553 c 256,33,34
1737 664 m 1,46,47
 1723.95918367 877 1723.95918367 877 1591 877 c 0,48,49
 1522 877 1522 877 1488 827.5 c 128,-1,50
 1454 778 1454 778 1444 664 c 1,51,-1
 1737 664 l 1,46,47
EndSplineSet
EndChar

StartChar: Thorn
Encoding: 222 222 193
Width: 1681
Flags: HMW
LayerCount: 2
Fore
SplineSet
795 1262 m 1,0,-1
 1120 1262 l 2,1,2
 1407.5 1262 1407.5 1262 1528.5 1166 c 0,3,4
 1640 1077.53719008 1640 1077.53719008 1640 872 c 0,5,6
 1640 667.884297521 1640 667.884297521 1528.5 578.5 c 0,7,8
 1409.37113402 483 1409.37113402 483 1120 483 c 2,9,-1
 795 483 l 1,10,11
 795 430 795 430 821.5 400.5 c 128,-1,12
 848 371 848 371 918 371 c 2,13,-1
 1020 371 l 1,14,-1
 1020 0 l 1,15,-1
 41 0 l 1,16,-1
 41 371 l 1,17,18
 129 371 129 371 167 394.5 c 128,-1,19
 205 418 205 418 205 483 c 2,20,-1
 205 989 l 2,21,22
 205 1055 205 1055 167 1078.5 c 128,-1,23
 129 1102 129 1102 41 1102 c 1,24,-1
 41 1473 l 1,25,-1
 795 1473 l 1,26,-1
 795 1262 l 1,0,-1
1019 761 m 128,-1,28
 1051 801 1051 801 1051 872.5 c 128,-1,29
 1051 944 1051 944 1019 984 c 128,-1,30
 987 1024 987 1024 903 1024 c 2,31,-1
 795 1024 l 1,32,-1
 795 721 l 1,33,-1
 903 721 l 2,34,27
 987 721 987 721 1019 761 c 128,-1,28
EndSplineSet
EndChar

StartChar: thorn
Encoding: 254 254 194
Width: 1647
Flags: HMW
LayerCount: 2
Fore
SplineSet
891 248 m 0,0,1
 1036 248 1036 248 1036 543 c 0,2,3
 1036 665.818181818 1036 665.818181818 1013.5 714.909090909 c 128,-1,4
 991 764 991 764 963.5 784.5 c 128,-1,5
 936 805 936 805 891 805 c 256,6,7
 770.79787234 805 770.79787234 805 749.5 651 c 0,8,9
 743 604 743 604 743 551 c 2,10,-1
 743 305 l 1,11,12
 760 279 760 279 806 263.5 c 128,-1,13
 852 248 852 248 891 248 c 0,0,1
760 909 m 1,14,15
 810.886956522 1065.29565217 810.886956522 1065.29565217 967.5 1117.5 c 0,16,17
 1026 1137 1026 1137 1106 1137 c 0,18,19
 1341 1137 1341 1137 1473.5 988.5 c 128,-1,20
 1606 840 1606 840 1606 553 c 256,21,22
 1606 266 1606 266 1470.5 116.5 c 128,-1,23
 1335 -33 1335 -33 1100 -33 c 0,24,25
 980.416666667 -33 980.416666667 -33 917.208333333 -14.5 c 0,26,27
 838.520408163 8.5306122449 838.520408163 8.5306122449 743 55 c 1,28,-1
 743 -43 l 2,29,30
 743 -96 743 -96 761.5 -118.5 c 128,-1,31
 780 -141 780 -141 834 -141 c 2,32,-1
 893 -141 l 1,33,-1
 893 -512 l 1,34,-1
 51 -512 l 1,35,-1
 51 -141 l 1,36,-1
 111 -141 l 2,37,38
 152 -141 152 -141 173.5 -114.5 c 128,-1,39
 195 -88 195 -88 195 -51 c 2,40,-1
 195 989 l 2,41,42
 195 1047 195 1047 158 1074.5 c 128,-1,43
 121 1102 121 1102 74 1102 c 2,44,-1
 51 1102 l 1,45,-1
 51 1473 l 1,46,-1
 743 1473 l 1,47,-1
 743 909 l 1,48,-1
 760 909 l 1,14,15
EndSplineSet
EndChar

StartChar: Tbar
Encoding: 358 358 213
Width: 1655
Flags: HMW
LayerCount: 2
Fore
SplineSet
1634 1473 m 1,0,-1
 1634 887 l 1,1,-1
 1305 887 l 1,2,3
 1305 1035.20833333 1305 1035.20833333 1289.5 1074.60416667 c 128,-1,4
 1274 1114 1274 1114 1249.5 1128.5 c 128,-1,5
 1225 1143 1225 1143 1184 1143 c 2,6,-1
 1122 1143 l 1,7,-1
 1122 795 l 1,8,-1
 1430 795 l 1,9,-1
 1430 618 l 1,10,-1
 1122 618 l 1,11,-1
 1122 483 l 2,12,13
 1122 418 1122 418 1160 394.5 c 128,-1,14
 1198 371 1198 371 1286 371 c 1,15,-1
 1286 0 l 1,16,-1
 369 0 l 1,17,-1
 369 371 l 1,18,19
 457 371 457 371 494.5 394.5 c 128,-1,20
 532 418 532 418 532 483 c 2,21,-1
 532 618 l 1,22,-1
 225 618 l 1,23,-1
 225 795 l 1,24,-1
 532 795 l 1,25,-1
 532 1143 l 1,26,-1
 471 1143 l 2,27,28
 392.885245902 1143 392.885245902 1143 368.5 1083.5 c 0,29,30
 350 1038.36 350 1038.36 350 887 c 1,31,-1
 20 887 l 1,32,-1
 20 1473 l 1,33,-1
 1634 1473 l 1,0,-1
EndSplineSet
EndChar

StartChar: tbar
Encoding: 359 359 214
Width: 1071
Flags: HMW
LayerCount: 2
Fore
SplineSet
836 274 m 0,0,1
 936 274 936 274 936 408 c 2,2,-1
 936 426 l 1,3,-1
 1051 426 l 1,4,-1
 1051 412 l 2,5,6
 1051 197.525252525 1051 197.525252525 960.5 86 c 0,7,8
 852.573770492 -47 852.573770492 -47 612 -47 c 0,9,10
 349.491803279 -47 349.491803279 -47 255 84 c 0,11,12
 211 145 211 145 197.5 229 c 128,-1,13
 184 313 184 313 184 412 c 2,14,-1
 184 471 l 1,15,-1
 27 471 l 1,16,-1
 27 647 l 1,17,-1
 184 647 l 1,18,-1
 184 731 l 1,19,-1
 27 731 l 1,20,-1
 27 1061 l 1,21,22
 178.434782609 1061 178.434782609 1061 277.5 1183.5 c 0,23,24
 375 1304.06451613 375 1304.06451613 375 1473 c 1,25,-1
 741 1473 l 1,26,-1
 741 1102 l 1,27,-1
 1040 1102 l 1,28,-1
 1040 731 l 1,29,-1
 741 731 l 1,30,-1
 741 647 l 1,31,-1
 1051 647 l 1,32,-1
 1051 471 l 1,33,-1
 741 471 l 1,34,-1
 741 424 l 2,35,36
 741 358 741 358 759.5 316 c 128,-1,37
 778 274 778 274 836 274 c 0,0,1
EndSplineSet
EndChar

StartChar: Uogonek
Encoding: 370 370 233
Width: 1710
Flags: HMW
LayerCount: 2
Fore
SplineSet
662 -315 m 0,0,1
 662 -162.913978495 662 -162.913978495 834 -39 c 1,2,3
 576.648232984 -31.7506544503 576.648232984 -31.7506544503 419.5 70 c 0,4,5
 238.318573854 187.311714771 238.318573854 187.311714771 212 403.5 c 0,6,7
 205 461 205 461 205 508 c 2,8,-1
 205 989 l 2,9,10
 205 1055 205 1055 167 1078.5 c 128,-1,11
 129 1102 129 1102 41 1102 c 1,12,-1
 41 1473 l 1,13,-1
 930 1473 l 1,14,-1
 930 1102 l 1,15,16
 854 1102 854 1102 824.5 1078.5 c 128,-1,17
 795 1055 795 1055 795 1001 c 2,18,-1
 795 539 l 2,19,20
 795 350 795 350 965 350 c 0,21,22
 1149 350 1149 350 1149 537 c 2,23,-1
 1149 997 l 2,24,25
 1149 1059 1149 1059 1112 1080.5 c 128,-1,26
 1075 1102 1075 1102 1010 1102 c 1,27,-1
 1010 1473 l 1,28,-1
 1669 1473 l 1,29,-1
 1669 1102 l 1,30,31
 1602 1102 1602 1102 1566 1082.5 c 128,-1,32
 1530 1063 1530 1063 1530 1001 c 2,33,-1
 1530 524 l 2,34,35
 1530 313.513513514 1530 313.513513514 1435.5 179 c 0,36,37
 1307.97127992 -2.5273673257 1307.97127992 -2.5273673257 1014 -33 c 1,38,39
 901 -137.471698113 901 -137.471698113 901 -226.235849057 c 128,-1,40
 901 -315 901 -315 971 -315 c 0,41,42
 1020 -315 1020 -315 1073 -242 c 1,43,-1
 1178 -326 l 1,44,45
 1043.20930233 -487 1043.20930233 -487 874 -487 c 0,46,47
 760 -487 760 -487 711 -436 c 128,-1,48
 662 -385 662 -385 662 -315 c 0,0,1
EndSplineSet
EndChar

StartChar: uogonek
Encoding: 371 371 234
Width: 1675
Flags: HMW
LayerCount: 2
Fore
SplineSet
813 352 m 0,0,1
 942 352 942 352 942 498 c 2,2,-1
 942 633 l 2,3,4
 942 686 942 686 923.5 708.5 c 128,-1,5
 905 731 905 731 852 731 c 2,6,-1
 793 731 l 1,7,-1
 793 1102 l 1,8,-1
 1491 1102 l 1,9,-1
 1491 451 l 2,10,11
 1491 371 1491 371 1581 371 c 2,12,-1
 1634 371 l 1,13,-1
 1634 0 l 1,14,15
 1399 -114.888888889 1399 -114.888888889 1399 -236 c 0,16,17
 1399 -315 1399 -315 1468 -315 c 0,18,19
 1518 -315 1518 -315 1571 -242 c 1,20,-1
 1675 -326 l 1,21,22
 1542.08139535 -487 1542.08139535 -487 1372 -487 c 0,23,24
 1214.859375 -487 1214.859375 -487 1171.5 -376 c 0,25,26
 1159 -344 1159 -344 1159 -309 c 0,27,28
 1159 -131 1159 -131 1432 0 c 1,29,-1
 1040 0 l 1,30,-1
 1040 274 l 1,31,-1
 1024 274 l 1,32,33
 977.248366013 -37 977.248366013 -37 602 -37 c 0,34,35
 354.613445378 -37 354.613445378 -37 246 100.5 c 0,36,37
 164 204.308510638 164 204.308510638 164 360 c 2,38,-1
 164 633 l 2,39,40
 164 686 164 686 145.5 708.5 c 128,-1,41
 127 731 127 731 74 731 c 2,42,-1
 14 731 l 1,43,-1
 14 1102 l 1,44,-1
 713 1102 l 1,45,-1
 713 471 l 2,46,47
 713 370.162162162 713 370.162162162 778.5 356 c 0,48,49
 797 352 797 352 813 352 c 0,0,1
EndSplineSet
EndChar

StartChar: zero
Encoding: 48 48 257
Width: 1573
Flags: HMW
LayerCount: 2
Fore
SplineSet
45 725 m 256,0,1
 45 1085.56632653 45 1085.56632653 254 1293.5 c 0,2,3
 454.523076923 1493 454.523076923 1493 786 1493 c 0,4,5
 1118.47692308 1493 1118.47692308 1493 1319 1293.5 c 0,6,7
 1528 1085.56632653 1528 1085.56632653 1528 725 c 256,8,9
 1528 364.433673469 1528 364.433673469 1319 156.5 c 0,10,11
 1118.47692308 -43 1118.47692308 -43 786 -43 c 0,12,13
 454.523076923 -43 454.523076923 -43 254 156.5 c 0,14,15
 45 364.433673469 45 364.433673469 45 725 c 256,0,1
623 725 m 256,16,17
 623 485 623 485 655.5 380.5 c 128,-1,18
 688 276 688 276 786.5 276 c 128,-1,19
 885 276 885 276 917.5 380.5 c 128,-1,20
 950 485 950 485 950 725 c 256,21,22
 950 965 950 965 917.5 1069.5 c 128,-1,23
 885 1174 885 1174 786.5 1174 c 128,-1,24
 688 1174 688 1174 655.5 1069.5 c 128,-1,25
 623 965 623 965 623 725 c 256,16,17
EndSplineSet
EndChar

StartChar: one
Encoding: 49 49 258
Width: 1006
Flags: HMW
LayerCount: 2
Fore
SplineSet
51 1288 m 1,0,1
 229.887323944 1288 229.887323944 1288 301 1381.5 c 0,2,3
 328 1417 328 1417 328 1473 c 1,4,-1
 791 1473 l 1,5,-1
 791 479 l 2,6,7
 791 412 791 412 823.5 391.5 c 128,-1,8
 856 371 856 371 907 371 c 2,9,-1
 975 371 l 1,10,-1
 975 0 l 1,11,-1
 72 0 l 1,12,-1
 72 371 l 1,13,-1
 152 371 l 2,14,15
 205 371 205 371 230.5 404.5 c 128,-1,16
 256 438 256 438 256 477 c 2,17,-1
 256 958 l 1,18,-1
 51 958 l 1,19,-1
 51 1288 l 1,0,1
EndSplineSet
EndChar

StartChar: two
Encoding: 50 50 259
Width: 1454
Flags: HMW
LayerCount: 2
Fore
SplineSet
365 1155 m 1,0,1
 516 1110.44262295 516 1110.44262295 516 979 c 0,2,3
 516 907.372881356 516 907.372881356 455.5 852 c 0,4,5
 393.222222222 795 393.222222222 795 279 795 c 0,6,7
 114.3 795 114.3 795 48.5 935 c 0,8,9
 25 985 25 985 25 1069 c 128,-1,10
 25 1153 25 1153 76 1233 c 128,-1,11
 127 1313 127 1313 219 1371.5 c 0,12,13
 410.076923077 1493 410.076923077 1493 723 1493 c 0,14,15
 1040.25203252 1493 1040.25203252 1493 1222 1361.5 c 0,16,17
 1393 1237.77647059 1393 1237.77647059 1393 1044 c 0,18,19
 1393 839.365853659 1393 839.365853659 1259.5 733 c 0,20,21
 1161.04795487 654.558533145 1161.04795487 654.558533145 950 597 c 0,22,23
 862 573 862 573 772 549.5 c 128,-1,24
 682 526 682 526 601 490.5 c 0,25,26
 415.065905849 409.010366144 415.065905849 409.010366144 348 268 c 1,27,-1
 365 262 l 1,28,29
 450.6 369 450.6 369 591 414.5 c 0,30,31
 645 432 645 432 709.5 432 c 128,-1,32
 774 432 774 432 819 425 c 128,-1,33
 864 418 864 418 901 410.5 c 128,-1,34
 938 403 938 403 971 396 c 128,-1,35
 1004 389 1004 389 1062 389 c 128,-1,36
 1120 389 1120 389 1163 422 c 128,-1,37
 1206 455 1206 455 1206 545 c 1,38,-1
 1403 545 l 1,39,40
 1403 48.6511627907 1403 48.6511627907 1120 -4 c 0,41,42
 1034 -20 1034 -20 946 -20 c 128,-1,43
 858 -20 858 -20 785.5 -5 c 128,-1,44
 713 10 713 10 646.5 27.5 c 128,-1,45
 580 45 580 45 519.5 60.5 c 128,-1,46
 459 76 459 76 409.5 76 c 0,47,48
 300 76 300 76 262 0 c 1,49,-1
 33 0 l 1,50,51
 33 386.363636364 33 386.363636364 282.5 590.5 c 0,52,53
 401.319148936 687.715667311 401.319148936 687.715667311 573.5 772 c 0,54,55
 731.236067298 849.213459516 731.236067298 849.213459516 789.5 924 c 0,56,57
 823 967 823 967 823 1026 c 0,58,59
 823 1114 823 1114 754.5 1157 c 128,-1,60
 686 1200 686 1200 604 1200 c 0,61,62
 453.2 1200 453.2 1200 365 1155 c 1,0,1
EndSplineSet
EndChar

StartChar: three
Encoding: 51 51 260
Width: 1540
Flags: HMW
LayerCount: 2
Fore
SplineSet
897 1024 m 0,0,1
 897 1202 897 1202 662 1202 c 0,2,3
 515.25 1202 515.25 1202 434 1137 c 1,4,5
 527.052677788 1128.13784021 527.052677788 1128.13784021 563.5 1056.5 c 0,6,7
 578 1028 578 1028 578 985 c 0,8,9
 578 905 578 905 520.5 857 c 128,-1,10
 463 809 463 809 352 809 c 0,11,12
 239.447761194 809 239.447761194 809 166 875.5 c 0,13,14
 86 947.932432432 86 947.932432432 86 1058.46621622 c 128,-1,15
 86 1169 86 1169 133 1246 c 128,-1,16
 180 1323 180 1323 268 1378.5 c 0,17,18
 449.54954955 1493 449.54954955 1493 762 1493 c 0,19,20
 1232.22727273 1493 1232.22727273 1493 1394.5 1283 c 0,21,22
 1454 1206 1454 1206 1454 1094 c 0,23,24
 1454 811.666666667 1454 811.666666667 1120 756 c 1,25,-1
 1120 745 l 1,26,27
 1288 725 1288 725 1391.5 636 c 128,-1,28
 1495 547 1495 547 1495 379 c 128,-1,29
 1495 210.850574713 1495 210.850574713 1332 97.5 c 0,30,31
 1132.83471074 -41 1132.83471074 -41 758 -41 c 0,32,33
 399.062015504 -41 399.062015504 -41 206 105.5 c 0,34,35
 45 227.670588235 45 227.670588235 45 418 c 0,36,37
 45 551 45 551 122 628 c 0,38,39
 194 700 194 700 307 700 c 0,40,41
 431.642857143 700 431.642857143 700 494.5 636 c 0,42,43
 547 582.545454545 547 582.545454545 547 504.272727273 c 128,-1,44
 547 426 547 426 496.5 381 c 128,-1,45
 446 336 446 336 385 317 c 1,46,47
 485 256 485 256 655 256 c 0,48,49
 926 256 926 256 926 461 c 0,50,51
 926 553.796875 926 553.796875 855 601.5 c 0,52,53
 793.23255814 643 793.23255814 643 700 643 c 2,54,-1
 629 643 l 1,55,-1
 629 860 l 1,56,-1
 700 860 l 2,57,58
 799 860 799 860 848 909 c 128,-1,59
 897 958 897 958 897 1024 c 0,0,1
EndSplineSet
EndChar

StartChar: four
Encoding: 52 52 261
Width: 1487
Flags: HMW
LayerCount: 2
Fore
SplineSet
41 797 m 1,0,-1
 686 1473 l 1,1,-1
 1241 1473 l 1,2,-1
 1241 711 l 1,3,-1
 1466 711 l 1,4,-1
 1466 494 l 1,5,-1
 1241 494 l 1,6,-1
 1241 459 l 2,7,8
 1241 395.4 1241 395.4 1258.5 384.2 c 0,9,10
 1279.125 371 1279.125 371 1337 371 c 2,11,-1
 1384 371 l 1,12,-1
 1384 0 l 1,13,-1
 543 0 l 1,14,-1
 543 371 l 1,15,-1
 602 371 l 2,16,17
 655 371 655 371 670.5 394.5 c 128,-1,18
 686 418 686 418 686 457 c 2,19,-1
 686 494 l 1,20,-1
 41 494 l 1,21,-1
 41 797 l 1,0,-1
313 711 m 1,22,-1
 686 711 l 1,23,-1
 686 1110 l 1,24,-1
 313 711 l 1,22,-1
EndSplineSet
EndChar

StartChar: five
Encoding: 53 53 262
Width: 1448
Flags: HMW
LayerCount: 2
Fore
SplineSet
371 297 m 1,0,1
 470.96 246 470.96 246 601.98 246 c 128,-1,2
 733 246 733 246 800.5 317.5 c 128,-1,3
 868 389 868 389 868 502.5 c 128,-1,4
 868 616 868 616 793.5 677.5 c 128,-1,5
 719 739 719 739 601.136363636 739 c 128,-1,6
 483.272727273 739 483.272727273 739 381 694 c 1,7,-1
 131 694 l 1,8,-1
 131 1493 l 1,9,-1
 174 1493 l 1,10,11
 382.300330033 1455.61276128 382.300330033 1455.61276128 509.650165017 1453.80638064 c 128,-1,12
 637 1452 637 1452 741.5 1452 c 128,-1,13
 846 1452 846 1452 932 1454 c 128,-1,14
 1018 1456 1018 1456 1084.5 1460 c 0,15,16
 1201.03960396 1467.00990099 1201.03960396 1467.00990099 1305 1493 c 1,17,-1
 1354 1473 l 1,18,19
 1333 1386 1333 1386 1299.5 1312.5 c 128,-1,20
 1266 1239 1266 1239 1199.5 1187 c 128,-1,21
 1133 1135 1133 1135 1021 1105 c 128,-1,22
 909 1075 909 1075 735 1075 c 128,-1,23
 561.111111111 1075 561.111111111 1075 483 1094 c 1,24,-1
 483 961 l 1,25,26
 565.333333333 987 565.333333333 987 740.166666667 987 c 128,-1,27
 915 987 915 987 1045.5 945 c 128,-1,28
 1176 903 1176 903 1253.5 830.5 c 0,29,30
 1397 696.258064516 1397 696.258064516 1397 461 c 0,31,32
 1397 235.172413793 1397 235.172413793 1226 102.5 c 0,33,34
 1041.04444444 -41 1041.04444444 -41 710.022222222 -41 c 128,-1,35
 379 -41 379 -41 205 66.5 c 128,-1,36
 31 174 31 174 31 371 c 0,37,38
 31 508.256756757 31 508.256756757 113 582.5 c 0,39,40
 186.447761194 649 186.447761194 649 297.223880597 649 c 128,-1,41
 408 649 408 649 465 600 c 128,-1,42
 522 551 522 551 522 473 c 256,43,44
 522 341.557377049 522 341.557377049 371 297 c 1,0,1
EndSplineSet
EndChar

StartChar: six
Encoding: 54 54 263
Width: 1495
Flags: HMW
LayerCount: 2
Fore
SplineSet
1055 1231 m 1,0,1
 991.75 1264 991.75 1264 918.875 1264 c 128,-1,2
 846 1264 846 1264 786.5 1237 c 128,-1,3
 727 1210 727 1210 682 1155 c 0,4,5
 586 1037.66666667 586 1037.66666667 586 819 c 1,6,7
 714.484848485 899 714.484848485 899 893 899 c 0,8,9
 1161 899 1161 899 1307.5 784.5 c 128,-1,10
 1454 670 1454 670 1454 459 c 0,11,12
 1454 230.275862069 1454 230.275862069 1271 92.5 c 0,13,14
 1091.02290076 -43 1091.02290076 -43 786 -43 c 0,15,16
 452.620320856 -43 452.620320856 -43 254 146.5 c 0,17,18
 45 345.903061224 45 345.903061224 45 705 c 0,19,20
 45 1066.71219512 45 1066.71219512 264.5 1283 c 0,21,22
 477.618811881 1493 477.618811881 1493 807 1493 c 0,23,24
 1086.57894737 1493 1086.57894737 1493 1249.5 1390.5 c 0,25,26
 1401 1295.18543046 1401 1295.18543046 1401 1145 c 0,27,28
 1401 1025.18055556 1401 1025.18055556 1324 968.5 c 0,29,30
 1258.11320755 920 1258.11320755 920 1151.05660377 920 c 128,-1,31
 1044 920 1044 920 987 962 c 128,-1,32
 930 1004 930 1004 930 1079 c 0,33,34
 930 1180.1627907 930 1180.1627907 1014.5 1217.5 c 0,35,36
 1036 1227 1036 1227 1055 1231 c 1,0,1
801 229 m 256,37,38
 879 229 879 229 915.5 286.5 c 128,-1,39
 952 344 952 344 952 436 c 256,40,41
 952 528 952 528 915.5 585.5 c 128,-1,42
 879 643 879 643 801 643 c 256,43,44
 723 643 723 643 686 585.5 c 128,-1,45
 649 528 649 528 649 436 c 256,46,47
 649 344 649 344 686 286.5 c 128,-1,48
 723 229 723 229 801 229 c 256,37,38
EndSplineSet
EndChar

StartChar: seven
Encoding: 55 55 264
Width: 1282
Flags: HMW
LayerCount: 2
Fore
SplineSet
340 1380 m 1,0,1
 405.697674419 1493 405.697674419 1493 565 1493 c 0,2,3
 640.8 1493 640.8 1493 733.9 1464.5 c 0,4,5
 908.666666667 1411 908.666666667 1411 947.833333333 1411 c 128,-1,6
 987 1411 987 1411 1019 1428.5 c 128,-1,7
 1051 1446 1051 1446 1061 1473 c 1,8,-1
 1282 1473 l 1,9,10
 1282 1337 1282 1337 1247 1230.5 c 128,-1,11
 1212 1124 1212 1124 1160 1026 c 128,-1,12
 1108 928 1108 928 1046.5 828.5 c 128,-1,13
 985 729 985 729 933 610.5 c 0,14,15
 811 332.480769231 811 332.480769231 811 0 c 1,16,-1
 256 0 l 1,17,18
 256 422.184 256 422.184 459.5 661.5 c 0,19,20
 544.785424387 761.795659079 544.785424387 761.795659079 686.892712193 888.897829539 c 128,-1,21
 829 1016 829 1016 911 1104 c 1,22,-1
 903 1112 l 1,23,24
 810.384615385 1028 810.384615385 1028 721 1028 c 0,25,26
 662.260869565 1028 662.260869565 1028 596.130434783 1047.5 c 0,27,28
 475.739130435 1083 475.739130435 1083 455.869565217 1083 c 128,-1,29
 436 1083 436 1083 415.5 1078 c 128,-1,30
 395 1073 395 1073 377.5 1052.5 c 0,31,32
 340 1008.57142857 340 1008.57142857 340 887 c 1,33,-1
 31 887 l 1,34,-1
 31 1473 l 1,35,-1
 340 1473 l 1,36,-1
 340 1380 l 1,0,1
EndSplineSet
EndChar

StartChar: eight
Encoding: 56 56 265
Width: 1532
Flags: HMW
LayerCount: 2
Fore
SplineSet
517 1474.5 m 128,-1,1
 637 1493 637 1493 762 1493 c 128,-1,2
 887 1493 887 1493 1004.5 1474.5 c 128,-1,3
 1122 1456 1122 1456 1215.5 1410 c 0,4,5
 1423 1307.9144385 1423 1307.9144385 1423 1094 c 0,6,7
 1423 954 1423 954 1344.5 866 c 128,-1,8
 1266 778 1266 778 1112 756 c 1,9,-1
 1112 745 l 1,10,11
 1280 731 1280 731 1383.5 643 c 128,-1,12
 1487 555 1487 555 1487 387 c 0,13,14
 1487 215.204819277 1487 215.204819277 1336 101.5 c 0,15,16
 1146.76 -41 1146.76 -41 758 -41 c 0,17,18
 375.04 -41 375.04 -41 191.5 101.5 c 0,19,20
 45 215.242236025 45 215.242236025 45 385.121118012 c 128,-1,21
 45 555 45 555 148.5 643 c 128,-1,22
 252 731 252 731 420 745 c 1,23,-1
 420 756 l 1,24,25
 266 778 266 778 186 866 c 128,-1,26
 106 954 106 954 106 1082 c 128,-1,27
 106 1210 106 1210 160.5 1287 c 128,-1,28
 215 1364 215 1364 306 1410 c 128,-1,0
 397 1456 397 1456 517 1474.5 c 128,-1,1
766 637 m 256,29,30
 688 637 688 637 651 586 c 128,-1,31
 614 535 614 535 614 451 c 256,32,33
 614 367 614 367 651 313.5 c 128,-1,34
 688 260 688 260 766 260 c 256,35,36
 844 260 844 260 881 313.5 c 128,-1,37
 918 367 918 367 918 451 c 256,38,39
 918 535 918 535 881 586 c 128,-1,40
 844 637 844 637 766 637 c 256,29,30
891 1034 m 0,41,42
 891 1202 891 1202 765 1202 c 128,-1,43
 639 1202 639 1202 639 1034 c 0,44,45
 639 961 639 961 668.5 912.5 c 128,-1,46
 698 864 698 864 764.5 864 c 128,-1,47
 831 864 831 864 861 912.5 c 128,-1,48
 891 961 891 961 891 1034 c 0,41,42
EndSplineSet
EndChar

StartChar: nine
Encoding: 57 57 266
Width: 1495
Flags: HMW
LayerCount: 2
Fore
SplineSet
440 219 m 1,0,1
 503.25 186 503.25 186 576.125 186 c 128,-1,2
 649 186 649 186 708.5 213 c 128,-1,3
 768 240 768 240 812 295 c 0,4,5
 909 416.25 909 416.25 909 631 c 1,6,7
 780.515151515 551 780.515151515 551 602 551 c 0,8,9
 334 551 334 551 187.5 665.5 c 128,-1,10
 41 780 41 780 41 991 c 0,11,12
 41 1219.72413793 41 1219.72413793 224 1357.5 c 0,13,14
 403.977099237 1493 403.977099237 1493 709 1493 c 0,15,16
 1042.37967914 1493 1042.37967914 1493 1241 1303.5 c 0,17,18
 1450 1104.09693878 1450 1104.09693878 1450 745 c 0,19,20
 1450 380.01369863 1450 380.01369863 1217.5 164.5 c 0,21,22
 993.645320197 -43 993.645320197 -43 639 -43 c 0,23,24
 367.619565217 -43 367.619565217 -43 224.5 56 c 0,25,26
 94 146.270676692 94 146.270676692 94 293 c 0,27,28
 94 412.972222222 94 412.972222222 171 475 c 0,29,30
 239.275862069 530 239.275862069 530 345.137931034 530 c 128,-1,31
 451 530 451 530 508 488 c 128,-1,32
 565 446 565 446 565 371 c 0,33,34
 565 269.837209302 565 269.837209302 480.5 232.5 c 0,35,36
 459 223 459 223 440 219 c 1,0,1
694 1221 m 256,37,38
 616 1221 616 1221 579.5 1163.5 c 128,-1,39
 543 1106 543 1106 543 1014 c 256,40,41
 543 922 543 922 579.5 864.5 c 128,-1,42
 616 807 616 807 694 807 c 256,43,44
 772 807 772 807 809 864.5 c 128,-1,45
 846 922 846 922 846 1014 c 256,46,47
 846 1106 846 1106 809 1163.5 c 128,-1,48
 772 1221 772 1221 694 1221 c 256,37,38
EndSplineSet
EndChar

StartChar: dollar
Encoding: 36 36 267
Width: 1231
Flags: HMW
LayerCount: 2
Fore
SplineSet
514 139 m 1,0,1
 426 160 426 160 332 213 c 1,2,-1
 332 143 l 1,3,-1
 72 143 l 1,4,-1
 72 575 l 1,5,-1
 332 575 l 1,6,7
 354 481 354 481 423 428 c 128,-1,8
 492 375 492 375 564.5 375 c 128,-1,9
 637 375 637 375 664.5 397.5 c 128,-1,10
 692 420 692 420 692 454.5 c 128,-1,11
 692 489 692 489 645 513 c 128,-1,12
 598 537 598 537 528.5 556 c 128,-1,13
 459 575 459 575 377 598 c 128,-1,14
 295 621 295 621 225.5 665 c 0,15,16
 61 769.143884892 61 769.143884892 61 969 c 0,17,18
 61 1132.72 61 1132.72 197.5 1231 c 0,19,20
 328.055555556 1325 328.055555556 1325 514 1325 c 1,21,-1
 514 1493 l 1,22,-1
 717 1493 l 1,23,-1
 717 1300 l 1,24,25
 805.433333333 1274.73333333 805.433333333 1274.73333333 870 1235 c 1,26,-1
 870 1307 l 1,27,-1
 1133 1307 l 1,28,-1
 1133 885 l 1,29,-1
 870 885 l 1,30,31
 858.385321101 964.366972477 858.385321101 964.366972477 787.5 1019.5 c 0,32,33
 718.714285714 1073 718.714285714 1073 654.357142857 1073 c 0,34,35
 526 1073 526 1073 526 1001 c 0,36,37
 526 958 526 958 574.5 935.5 c 128,-1,38
 623 913 623 913 693.5 893.5 c 128,-1,39
 764 874 764 874 848 850.5 c 128,-1,40
 932 827 932 827 1002.5 783 c 0,41,42
 1169 679.085106383 1169 679.085106383 1169 473 c 0,43,44
 1169 306.224 1169 306.224 1033.5 213 c 0,45,46
 915.509668508 131.822651934 915.509668508 131.822651934 717 123 c 1,47,-1
 717 -41 l 1,48,-1
 514 -41 l 1,49,-1
 514 139 l 1,0,1
EndSplineSet
EndChar

StartChar: cent
Encoding: 162 162 268
Width: 1339
Flags: HMW
LayerCount: 2
Fore
SplineSet
514 215 m 1,0,1
 182.057440376 260.560743478 182.057440376 260.560743478 77 530.5 c 0,2,3
 41 623 41 623 41 740.5 c 128,-1,4
 41 858 41 858 76 948 c 128,-1,5
 111 1038 111 1038 173.5 1104.5 c 0,6,7
 293.25207141 1231.91620398 293.25207141 1231.91620398 514 1268 c 1,8,-1
 514 1452 l 1,9,-1
 717 1452 l 1,10,-1
 717 1276 l 1,11,12
 939.037184116 1257.64981949 939.037184116 1257.64981949 1057 1142 c 0,13,14
 1153 1047.88235294 1153 1047.88235294 1153 928 c 0,15,16
 1153 836.132075472 1153 836.132075472 1101.5 772 c 0,17,18
 1042.07575758 698 1042.07575758 698 930 698 c 0,19,20
 780.892857143 698 780.892857143 698 747.5 808 c 0,21,22
 739 836 739 836 739 875.5 c 128,-1,23
 739 915 739 915 766 948 c 128,-1,24
 793 981 793 981 827 993 c 1,25,26
 807 1008 807 1008 786.5 1021 c 128,-1,27
 766 1034 766 1034 700.5 1034 c 128,-1,28
 635 1034 635 1034 594 969.5 c 128,-1,29
 553 905 553 905 553 751.5 c 128,-1,30
 553 598 553 598 596 534.5 c 128,-1,31
 639 471 639 471 725 471 c 0,32,33
 778 471 778 471 824 503 c 128,-1,34
 870 535 870 535 874 600 c 1,35,-1
 1165 600 l 1,36,37
 1139 418 1139 418 1028.5 323.5 c 128,-1,38
 918 229 918 229 717 213 c 1,39,-1
 717 0 l 1,40,-1
 514 0 l 1,41,-1
 514 215 l 1,0,1
EndSplineSet
EndChar

StartChar: sterling
Encoding: 163 163 269
Width: 1475
Flags: HMW
LayerCount: 2
Fore
SplineSet
328 528 m 1,0,-1
 326 553 l 1,1,-1
 41 553 l 1,2,-1
 41 756 l 1,3,-1
 195 756 l 1,4,5
 102 874.135135135 102 874.135135135 102 1024 c 0,6,7
 102 1234.05882353 102 1234.05882353 271.5 1367 c 0,8,9
 432.15 1493 432.15 1493 668 1493 c 0,10,11
 861.414634146 1493 861.414634146 1493 980 1421.5 c 0,12,13
 1014 1401 1014 1401 1044 1380 c 1,14,-1
 1044 1473 l 1,15,-1
 1354 1473 l 1,16,-1
 1354 958 l 1,17,-1
 1044 958 l 1,18,19
 1035.80597015 1052.23134328 1035.80597015 1052.23134328 984 1114 c 0,20,21
 928.64516129 1180 928.64516129 1180 833.822580645 1180 c 128,-1,22
 739 1180 739 1180 698 1130.5 c 128,-1,23
 657 1081 657 1081 657 1036 c 128,-1,24
 657 991 657 991 668.5 962.5 c 128,-1,25
 680 934 680 934 695.5 901 c 0,26,27
 738.062038405 810.384047267 738.062038405 810.384047267 750 756 c 1,28,-1
 1022 756 l 1,29,-1
 1022 553 l 1,30,-1
 717 553 l 1,31,32
 644.844881075 421.130299897 644.844881075 421.130299897 459 311 c 1,33,-1
 471 295 l 1,34,35
 628.371428571 403 628.371428571 403 752 403 c 0,36,37
 831.727272727 403 831.727272727 403 887.863636364 384 c 0,38,39
 994.227272727 348 994.227272727 348 1034 348 c 0,40,41
 1110 348 1110 348 1153 401.5 c 128,-1,42
 1196 455 1196 455 1196 545 c 1,43,-1
 1393 545 l 1,44,45
 1393 193.890756303 1393 193.890756303 1267.5 70.5 c 0,46,47
 1208 12 1208 12 1125 -4 c 128,-1,48
 1042 -20 1042 -20 956 -20 c 128,-1,49
 870 -20 870 -20 811 -8 c 128,-1,50
 752 4 752 4 694.5 17.5 c 0,51,52
 534.777777778 55 534.777777778 55 415.263888889 55 c 128,-1,53
 295.75 55 295.75 55 127 -20 c 1,54,-1
 29 207 l 1,55,56
 144.264255911 243.161335188 144.264255911 243.161335188 230 325 c 0,57,58
 331.594029851 421.976119403 331.594029851 421.976119403 328 528 c 1,0,-1
EndSplineSet
EndChar

StartChar: yen
Encoding: 165 165 270
Width: 1475
Flags: HMW
LayerCount: 2
Fore
SplineSet
213 979 m 1,0,-1
 172 1032.5 l 1,1,2
 142.283870968 1076.01290323 142.283870968 1076.01290323 110.141935484 1089.00645161 c 128,-1,3
 78 1102 78 1102 41 1102 c 1,4,-1
 41 1473 l 1,5,-1
 836 1473 l 1,6,-1
 836 1102 l 1,7,8
 758 1102 758 1102 731.5 1073 c 128,-1,9
 705 1044 705 1044 733 1001 c 2,10,-1
 858 809 l 1,11,-1
 866 809 l 1,12,-1
 993 1001 l 1,13,14
 1026 1040 1026 1040 1000.5 1071 c 128,-1,15
 975 1102 975 1102 889 1102 c 1,16,-1
 889 1473 l 1,17,-1
 1434 1473 l 1,18,-1
 1434 1102 l 1,19,20
 1381.55555556 1102 1381.55555556 1102 1356.27777778 1082.5 c 0,21,22
 1321.07462687 1055.34328358 1321.07462687 1055.34328358 1260 979 c 1,23,-1
 1395 979 l 1,24,-1
 1395 776 l 1,25,-1
 1108 776 l 1,26,-1
 1047 692 l 1,27,-1
 1395 692 l 1,28,-1
 1395 489 l 1,29,-1
 1006 489 l 1,30,-1
 1006 483 l 2,31,32
 1006 418 1006 418 1042.5 394.5 c 128,-1,33
 1079 371 1079 371 1157 371 c 1,34,-1
 1157 0 l 1,35,-1
 317 0 l 1,36,-1
 317 371 l 1,37,38
 395 371 395 371 432 394.5 c 128,-1,39
 469 418 469 418 469 483 c 2,40,-1
 469 489 l 1,41,-1
 80 489 l 1,42,-1
 80 692 l 1,43,-1
 428 692 l 1,44,-1
 365 776 l 1,45,-1
 80 776 l 1,46,-1
 80 979 l 1,47,-1
 213 979 l 1,0,-1
EndSplineSet
EndChar

StartChar: florin
Encoding: 402 402 271
Width: 1329
Flags: HMW
LayerCount: 2
Fore
SplineSet
315 817 m 1,0,-1
 315 981 l 2,1,2
 315 1385.3857868 315 1385.3857868 616.5 1466.5 c 0,3,4
 715 1493 715 1493 840 1493 c 128,-1,5
 965 1493 965 1493 1050 1468.5 c 128,-1,6
 1135 1444 1135 1444 1188 1404 c 0,7,8
 1288 1328.52830189 1288 1328.52830189 1288 1202 c 0,9,10
 1288 1116 1288 1116 1234 1054.5 c 128,-1,11
 1180 993 1180 993 1075 993 c 0,12,13
 987.653061224 993 987.653061224 993 932.5 1050.5 c 0,14,15
 887 1097.93617021 887 1097.93617021 887 1158.46808511 c 128,-1,16
 887 1219 887 1219 903.5 1247.5 c 128,-1,17
 920 1276 920 1276 942 1298 c 1,18,-1
 928 1315 l 1,19,20
 879 1282 879 1282 864.5 1237 c 128,-1,21
 850 1192 850 1192 850 1139 c 2,22,-1
 850 817 l 1,23,-1
 1073 817 l 1,24,-1
 1073 614 l 1,25,-1
 850 614 l 1,26,-1
 850 0 l 2,27,28
 850 -404.107142857 850 -404.107142857 549 -485.5 c 0,29,30
 451 -512 451 -512 326 -512 c 128,-1,31
 201 -512 201 -512 116 -487.5 c 128,-1,32
 31 -463 31 -463 -22.5 -423 c 0,33,34
 -123 -347.859813084 -123 -347.859813084 -123 -221 c 0,35,36
 -123 -135 -123 -135 -68.5 -73.5 c 128,-1,37
 -14 -12 -14 -12 90 -12 c 0,38,39
 177.346938776 -12 177.346938776 -12 232.5 -69.5 c 0,40,41
 279 -117.978723404 279 -117.978723404 279 -177.989361702 c 128,-1,42
 279 -238 279 -238 262.5 -266.5 c 128,-1,43
 246 -295 246 -295 223 -317 c 1,44,-1
 238 -334 l 1,45,46
 287 -301 287 -301 301 -256 c 128,-1,47
 315 -211 315 -211 315 -158 c 2,48,-1
 315 614 l 1,49,-1
 113 614 l 1,50,-1
 113 817 l 1,51,-1
 315 817 l 1,0,-1
EndSplineSet
EndChar

StartChar: Euro
Encoding: 8364 8364 272
Width: 1597
Flags: HMW
LayerCount: 2
Fore
SplineSet
162 989 m 1,0,1
 224.316307865 1243.93035036 224.316307865 1243.93035036 430 1378.5 c 0,2,3
 611.12195122 1497 611.12195122 1497 877 1497 c 0,4,5
 989 1497 989 1497 1078 1466.5 c 128,-1,6
 1167 1436 1167 1436 1221 1399 c 1,7,-1
 1221 1473 l 1,8,-1
 1518 1473 l 1,9,-1
 1518 889 l 1,10,-1
 1208 889 l 1,11,-1
 1208 901 l 1,12,13
 1204.19230769 1026.65384615 1204.19230769 1026.65384615 1138.5 1094.5 c 0,14,15
 1077.98412698 1157 1077.98412698 1157 994.492063492 1157 c 128,-1,16
 911 1157 911 1157 857 1119 c 128,-1,17
 803 1081 803 1081 774 989 c 1,18,-1
 1051 989 l 1,19,-1
 1010 786 l 1,20,-1
 743 786 l 1,21,-1
 743 702 l 1,22,-1
 989 702 l 1,23,-1
 948 500 l 1,24,-1
 766 500 l 1,25,26
 791 401 791 401 850 359 c 128,-1,27
 909 317 909 317 975.5 317 c 128,-1,28
 1042 317 1042 317 1084 332.5 c 128,-1,29
 1126 348 1126 348 1158 381 c 0,30,31
 1229 454.21875 1229 454.21875 1229 586 c 1,32,-1
 1536 586 l 1,33,34
 1536 163.516 1536 163.516 1190 26.5 c 0,35,36
 1065 -23 1065 -23 906.5 -23 c 128,-1,37
 748 -23 748 -23 629 7 c 128,-1,38
 510 37 510 37 414.5 100.5 c 0,39,40
 212.879633668 234.561709551 212.879633668 234.561709551 156 500 c 1,41,-1
 0 500 l 1,42,-1
 41 702 l 1,43,-1
 133 702 l 1,44,-1
 133 786 l 1,45,-1
 0 786 l 1,46,-1
 41 989 l 1,47,-1
 162 989 l 1,0,1
EndSplineSet
EndChar

StartChar: currency
Encoding: 164 164 273
Width: 1163
Flags: HMW
LayerCount: 2
Fore
SplineSet
766 418 m 1,0,1
 678.652173913 369 678.652173913 369 578.826086957 369 c 128,-1,2
 479 369 479 369 395 416 c 1,3,-1
 242 262 l 1,4,-1
 98 406 l 1,5,-1
 252 559 l 1,6,7
 205 643 205 643 205 742.826086957 c 128,-1,8
 205 842.652173913 205 842.652173913 254 930 c 1,9,-1
 98 1085 l 1,10,-1
 242 1229 l 1,11,-1
 395 1073 l 1,12,13
 482.347826087 1122 482.347826087 1122 580.5 1122 c 128,-1,14
 678.652173913 1122 678.652173913 1122 766 1073 c 1,15,-1
 922 1229 l 1,16,-1
 1065 1085 l 1,17,-1
 909 930 l 1,18,19
 958 842.652173913 958 842.652173913 958 744.5 c 128,-1,20
 958 646.347826087 958 646.347826087 909 559 c 1,21,-1
 1065 406 l 1,22,-1
 922 262 l 1,23,-1
 766 418 l 1,0,1
477 849 m 128,-1,25
 434 805 434 805 434 744.5 c 128,-1,26
 434 684 434 684 477 641 c 128,-1,27
 520 598 520 598 580.5 598 c 128,-1,28
 641 598 641 598 685 641 c 128,-1,29
 729 684 729 684 729 744.5 c 128,-1,30
 729 805 729 805 685 849 c 128,-1,31
 641 893 641 893 580.5 893 c 128,-1,24
 520 893 520 893 477 849 c 128,-1,25
EndSplineSet
EndChar

StartChar: percent
Encoding: 37 37 274
Width: 1851
Flags: HMW
LayerCount: 2
Fore
SplineSet
1323 1473 m 1,0,-1
 1612 1473 l 1,1,-1
 528 0 l 1,2,-1
 240 0 l 1,3,-1
 1323 1473 l 1,0,-1
51 1112 m 256,4,5
 51 1291.41176471 51 1291.41176471 160 1394 c 0,6,7
 265.1875 1493 265.1875 1493 440 1493 c 256,8,9
 615.8125 1493 615.8125 1493 721 1394 c 0,10,11
 829 1292.35294118 829 1292.35294118 829 1112 c 256,12,13
 829 933.205882353 829 933.205882353 721 830.5 c 0,14,15
 616.371134021 731 616.371134021 731 440 731 c 256,16,17
 264.628865979 731 264.628865979 731 160 830.5 c 0,18,19
 51 934.156862745 51 934.156862745 51 1112 c 256,4,5
374.5 1273 m 128,-1,21
 358 1231 358 1231 358 1142 c 128,-1,22
 358 1053 358 1053 361.5 1013 c 128,-1,23
 365 973 365 973 374 950.5 c 0,24,25
 390.6 909 390.6 909 440 909 c 0,26,27
 488.4 909 488.4 909 505 950.5 c 0,28,29
 522 993 522 993 522 1112 c 128,-1,30
 522 1231 522 1231 505.5 1273 c 128,-1,31
 489 1315 489 1315 440 1315 c 256,32,20
 391 1315 391 1315 374.5 1273 c 128,-1,21
1022 360.5 m 0,33,34
 1022 453 1022 453 1050.5 523.5 c 128,-1,35
 1079 594 1079 594 1130.5 642 c 0,36,37
 1236.71875 741 1236.71875 741 1411 741 c 256,38,39
 1585.28125 741 1585.28125 741 1691.5 642 c 0,40,41
 1800 540.873786408 1800 540.873786408 1800 360 c 0,42,43
 1800 180.126213592 1800 180.126213592 1691.5 79 c 0,44,45
 1585.28125 -20 1585.28125 -20 1411 -20 c 256,46,47
 1236.71875 -20 1236.71875 -20 1130.5 79 c 0,48,49
 1022 180.126213592 1022 180.126213592 1022 360.5 c 0,33,34
1345.5 521 m 128,-1,51
 1329 479 1329 479 1329 390 c 128,-1,52
 1329 301 1329 301 1332 261 c 128,-1,53
 1335 221 1335 221 1344.5 198.5 c 0,54,55
 1361.6 158 1361.6 158 1411 158 c 256,56,57
 1458.4 158 1458.4 158 1475.5 198.5 c 0,58,59
 1493 239.947368421 1493 239.947368421 1493 359.473684211 c 128,-1,60
 1493 479 1493 479 1476.5 521 c 128,-1,61
 1460 563 1460 563 1411 563 c 256,62,50
 1362 563 1362 563 1345.5 521 c 128,-1,51
EndSplineSet
EndChar

StartChar: perthousand
Encoding: 8240 8240 275
Width: 2683
Flags: HMW
LayerCount: 2
Fore
SplineSet
1323 1473 m 1,0,-1
 1612 1473 l 1,1,-1
 528 0 l 1,2,-1
 240 0 l 1,3,-1
 1323 1473 l 1,0,-1
51 1112 m 256,4,5
 51 1291.41176471 51 1291.41176471 160 1394 c 0,6,7
 265.1875 1493 265.1875 1493 440 1493 c 256,8,9
 615.8125 1493 615.8125 1493 721 1394 c 0,10,11
 829 1292.35294118 829 1292.35294118 829 1112 c 256,12,13
 829 933.205882353 829 933.205882353 721 830.5 c 0,14,15
 616.371134021 731 616.371134021 731 440 731 c 256,16,17
 264.628865979 731 264.628865979 731 160 830.5 c 0,18,19
 51 934.156862745 51 934.156862745 51 1112 c 256,4,5
374.5 1273 m 128,-1,21
 358 1231 358 1231 358 1142 c 128,-1,22
 358 1053 358 1053 361.5 1013 c 128,-1,23
 365 973 365 973 374 950.5 c 0,24,25
 390.6 909 390.6 909 440 909 c 0,26,27
 488.4 909 488.4 909 505 950.5 c 0,28,29
 522 993 522 993 522 1112 c 128,-1,30
 522 1231 522 1231 505.5 1273 c 128,-1,31
 489 1315 489 1315 440 1315 c 256,32,20
 391 1315 391 1315 374.5 1273 c 128,-1,21
1022 360.5 m 0,33,34
 1022 453 1022 453 1050.5 523.5 c 128,-1,35
 1079 594 1079 594 1130.5 642 c 0,36,37
 1236.71875 741 1236.71875 741 1411 741 c 256,38,39
 1585.28125 741 1585.28125 741 1691.5 642 c 0,40,41
 1800 540.873786408 1800 540.873786408 1800 360 c 0,42,43
 1800 180.126213592 1800 180.126213592 1691.5 79 c 0,44,45
 1585.28125 -20 1585.28125 -20 1411 -20 c 256,46,47
 1236.71875 -20 1236.71875 -20 1130.5 79 c 0,48,49
 1022 180.126213592 1022 180.126213592 1022 360.5 c 0,33,34
1345.5 521 m 128,-1,51
 1329 479 1329 479 1329 390 c 128,-1,52
 1329 301 1329 301 1332 261 c 128,-1,53
 1335 221 1335 221 1344.5 198.5 c 0,54,55
 1361.6 158 1361.6 158 1411 158 c 256,56,57
 1458.4 158 1458.4 158 1475.5 198.5 c 0,58,59
 1493 239.947368421 1493 239.947368421 1493 359.473684211 c 128,-1,60
 1493 479 1493 479 1476.5 521 c 128,-1,61
 1460 563 1460 563 1411 563 c 256,62,50
 1362 563 1362 563 1345.5 521 c 128,-1,51
1853 360.5 m 0,63,64
 1853 453 1853 453 1882 523.5 c 128,-1,65
 1911 594 1911 594 1962 642 c 0,66,67
 2067.1875 741 2067.1875 741 2243 741 c 256,68,69
 2417.8125 741 2417.8125 741 2523 642 c 0,70,71
 2632 539.411764706 2632 539.411764706 2632 360 c 0,72,73
 2632 181.588235294 2632 181.588235294 2523 79 c 0,74,75
 2417.8125 -20 2417.8125 -20 2243 -20 c 256,76,77
 2067.1875 -20 2067.1875 -20 1962 79 c 0,78,79
 1853 181.588235294 1853 181.588235294 1853 360.5 c 0,63,64
2177 521 m 128,-1,81
 2161 479 2161 479 2161 390 c 128,-1,82
 2161 301 2161 301 2164 261 c 128,-1,83
 2167 221 2167 221 2176 198.5 c 0,84,85
 2192.2 158 2192.2 158 2243 158 c 0,86,87
 2290.8 158 2290.8 158 2307 198.5 c 0,88,89
 2324 241 2324 241 2324 360 c 128,-1,90
 2324 479 2324 479 2308 521 c 128,-1,91
 2292 563 2292 563 2242.5 563 c 128,-1,80
 2193 563 2193 563 2177 521 c 128,-1,81
EndSplineSet
EndChar

StartChar: numbersign
Encoding: 35 35 276
Width: 1532
Flags: HMW
LayerCount: 2
Fore
SplineSet
948 1405 m 1,0,-1
 815 1032 l 1,1,-1
 956 1032 l 1,2,-1
 1092 1405 l 1,3,-1
 1368 1405 l 1,4,-1
 1237 1032 l 1,5,-1
 1491 1032 l 1,6,-1
 1395 774 l 1,7,-1
 1147 774 l 1,8,-1
 1094 631 l 1,9,-1
 1360 631 l 1,10,-1
 1264 373 l 1,11,-1
 1006 373 l 1,12,-1
 870 0 l 1,13,-1
 592 0 l 1,14,-1
 725 373 l 1,15,-1
 584 373 l 1,16,-1
 449 0 l 1,17,-1
 170 0 l 1,18,-1
 303 373 l 1,19,-1
 41 373 l 1,20,-1
 137 631 l 1,21,-1
 393 631 l 1,22,-1
 446 774 l 1,23,-1
 172 774 l 1,24,-1
 268 1032 l 1,25,-1
 535 1032 l 1,26,-1
 670 1405 l 1,27,-1
 948 1405 l 1,0,-1
670 631 m 1,28,-1
 819 631 l 1,29,-1
 868 774 l 1,30,-1
 721 774 l 1,31,-1
 670 631 l 1,28,-1
EndSplineSet
EndChar

StartChar: onesuperior
Encoding: 185 185 277
Width: 758
Flags: HMW
LayerCount: 2
Fore
SplineSet
31 1348 m 1,0,1
 160.36 1348 160.36 1348 209.5 1411 c 0,2,3
 229 1436 229 1436 229 1473 c 1,4,-1
 584 1473 l 1,5,-1
 584 827 l 2,6,7
 584 780 584 780 607.5 767 c 128,-1,8
 631 754 631 754 668 754 c 2,9,-1
 717 754 l 1,10,-1
 717 485 l 1,11,-1
 45 485 l 1,12,-1
 45 754 l 1,13,-1
 102 754 l 2,14,15
 141 754 141 754 159.5 776.5 c 128,-1,16
 178 799 178 799 178 825 c 2,17,-1
 178 1108 l 1,18,-1
 31 1108 l 1,19,-1
 31 1348 l 1,0,1
EndSplineSet
EndChar

StartChar: twosuperior
Encoding: 178 178 278
Width: 1094
Flags: HMW
LayerCount: 2
Fore
SplineSet
297 682 m 1,0,1
 395.875 795 395.875 795 532 795 c 0,2,3
 606.75 795 606.75 795 651.375 784.5 c 0,4,5
 730 766 730 766 778.5 766 c 128,-1,6
 827 766 827 766 859 782.5 c 128,-1,7
 891 799 891 799 891 858 c 1,8,-1
 1053 858 l 1,9,10
 1053 529.813953488 1053 529.813953488 832.5 490.5 c 0,11,12
 768 479 768 479 704.5 479 c 128,-1,13
 641 479 641 479 590 489.5 c 128,-1,14
 539 500 539 500 494 512 c 0,15,16
 370.25 545 370.25 545 332.625 545 c 0,17,18
 276.4 545 276.4 545 244 518 c 1,19,20
 229 508 229 508 223 494 c 1,21,-1
 47 494 l 1,22,23
 47 810.862068966 47 810.862068966 330.5 957.5 c 0,24,25
 403 995 403 995 466.5 1027 c 128,-1,26
 530 1059 530 1059 572 1093.5 c 128,-1,27
 614 1128 614 1128 614 1181.5 c 128,-1,28
 614 1235 614 1235 566 1260.5 c 128,-1,29
 518 1286 518 1286 458.5 1286 c 0,30,31
 358.823529412 1286 358.823529412 1286 295 1255 c 1,32,33
 340 1243 340 1243 371.5 1222.5 c 128,-1,34
 403 1202 403 1202 403 1152 c 128,-1,35
 403 1102 403 1102 356 1064 c 128,-1,36
 309 1026 309 1026 223 1026 c 0,37,38
 108.348484848 1026 108.348484848 1026 58.5 1120 c 0,39,40
 41 1153 41 1153 41 1209.5 c 128,-1,41
 41 1266 41 1266 78 1319 c 128,-1,42
 115 1372 115 1372 180.5 1411 c 0,43,44
 318.217948718 1493 318.217948718 1493 543 1493 c 0,45,46
 772.2125 1493 772.2125 1493 912.5 1406 c 0,47,48
 1047 1322.58914729 1047 1322.58914729 1047 1194 c 0,49,50
 1047 1094 1047 1094 1000.5 1037.5 c 128,-1,51
 954 981 954 981 882.5 949.5 c 128,-1,52
 811 918 811 918 723 900.5 c 128,-1,53
 635 883 635 883 550 859.5 c 128,-1,54
 465 836 465 836 394.5 798 c 128,-1,55
 324 760 324 760 285 686 c 1,56,-1
 297 682 l 1,0,1
EndSplineSet
EndChar

StartChar: threesuperior
Encoding: 179 179 279
Width: 1147
Flags: HMW
LayerCount: 2
Fore
SplineSet
479 678 m 0,0,1
 674 678 674 678 674 803 c 0,2,3
 674 894.122807018 674 894.122807018 571.5 917.5 c 0,4,5
 543 924 543 924 512 924 c 2,6,-1
 461 924 l 1,7,-1
 461 1069 l 1,8,-1
 512 1069 l 2,9,10
 584 1069 584 1069 618.5 1102 c 128,-1,11
 653 1135 653 1135 653 1185 c 128,-1,12
 653 1235 653 1235 602 1260.5 c 128,-1,13
 551 1286 551 1286 481.5 1286 c 0,14,15
 381.142857143 1286 381.142857143 1286 332 1243 c 1,16,17
 362 1245 362 1245 398 1227.5 c 128,-1,18
 434 1210 434 1210 434 1155 c 128,-1,19
 434 1100 434 1100 387 1068 c 128,-1,20
 340 1036 340 1036 263 1036 c 128,-1,21
 186 1036 186 1036 128 1080 c 128,-1,22
 70 1124 70 1124 70 1214 c 0,23,24
 70 1341 70 1341 201 1417 c 128,-1,25
 332 1493 332 1493 557 1493 c 0,26,27
 903.62745098 1493 903.62745098 1493 1029 1354 c 0,28,29
 1075 1303 1075 1303 1075 1227 c 0,30,31
 1075 1036 1075 1036 836 999 c 1,32,-1
 836 993 l 1,33,34
 956 979 956 979 1031 919.5 c 128,-1,35
 1106 860 1106 860 1106 748 c 0,36,37
 1106 638.22556391 1106 638.22556391 977.5 559 c 0,38,39
 828.280487805 467 828.280487805 467 553 467 c 0,40,41
 293.079545455 467 293.079545455 467 157.5 564 c 0,42,43
 41 647.349593496 41 647.349593496 41 774 c 0,44,45
 41 866 41 866 96.5 914.5 c 128,-1,46
 152 963 152 963 215.5 963 c 128,-1,47
 279 963 279 963 312.5 950.5 c 128,-1,48
 346 938 346 938 368.5 919.5 c 0,49,50
 412 883.733333333 412 883.733333333 412 830.866666667 c 0,51,52
 412 740.914893617 412 740.914893617 295 721 c 1,53,54
 367.913043478 678 367.913043478 678 479 678 c 0,0,1
EndSplineSet
EndChar

StartChar: onequarter
Encoding: 188 188 280
Width: 1882
Flags: HMW
LayerCount: 2
Fore
SplineSet
1321 1473 m 1,0,-1
 1610 1473 l 1,1,-1
 526 0 l 1,2,-1
 238 0 l 1,3,-1
 1321 1473 l 1,0,-1
985 426 m 1,4,-1
 1323 786 l 1,5,-1
 1649 786 l 1,6,-1
 1649 379 l 1,7,-1
 1780 379 l 1,8,-1
 1780 254 l 1,9,-1
 1649 254 l 1,10,-1
 1649 229 l 2,11,12
 1649 193 1649 193 1662 186.5 c 128,-1,13
 1675 180 1675 180 1706 180 c 2,14,-1
 1753 180 l 1,15,-1
 1753 0 l 1,16,-1
 1221 0 l 1,17,-1
 1221 180 l 1,18,-1
 1276 180 l 2,19,20
 1307 180 1307 180 1315 193.5 c 128,-1,21
 1323 207 1323 207 1323 227 c 2,22,-1
 1323 254 l 1,23,-1
 985 254 l 1,24,-1
 985 426 l 1,4,-1
1122 379 m 1,25,-1
 1323 379 l 1,26,-1
 1323 596 l 1,27,-1
 1122 379 l 1,25,-1
102 1372 m 1,28,29
 206.358974359 1372 206.358974359 1372 246.5 1422.5 c 0,30,31
 262 1442 262 1442 262 1473 c 1,32,-1
 526 1473 l 1,33,-1
 526 954 l 2,34,35
 526 918 526 918 544.5 906.5 c 128,-1,36
 563 895 563 895 594 895 c 2,37,-1
 633 895 l 1,38,-1
 633 680 l 1,39,-1
 115 680 l 1,40,-1
 115 895 l 1,41,-1
 160 895 l 2,42,43
 190 895 190 895 205.5 913.5 c 128,-1,44
 221 932 221 932 221 952 c 2,45,-1
 221 1180 l 1,46,-1
 102 1180 l 1,47,-1
 102 1372 l 1,28,29
EndSplineSet
EndChar

StartChar: onehalf
Encoding: 189 189 281
Width: 1989
Flags: HMW
LayerCount: 2
Fore
SplineSet
1321 1473 m 1,0,-1
 1610 1473 l 1,1,-1
 526 0 l 1,2,-1
 238 0 l 1,3,-1
 1321 1473 l 1,0,-1
102 1372 m 1,4,5
 206.358974359 1372 206.358974359 1372 246.5 1422.5 c 0,6,7
 262 1442 262 1442 262 1473 c 1,8,-1
 526 1473 l 1,9,-1
 526 954 l 2,10,11
 526 918 526 918 544.5 906.5 c 128,-1,12
 563 895 563 895 594 895 c 2,13,-1
 633 895 l 1,14,-1
 633 680 l 1,15,-1
 115 680 l 1,16,-1
 115 895 l 1,17,-1
 160 895 l 2,18,19
 190 895 190 895 205.5 913.5 c 128,-1,20
 221 932 221 932 221 952 c 2,21,-1
 221 1180 l 1,22,-1
 102 1180 l 1,23,-1
 102 1372 l 1,4,5
1372 31 m 128,-1,25
 1339 39 1339 39 1294.7 39 c 128,-1,26
 1250.4 39 1250.4 39 1227 0 c 1,27,-1
 1085 0 l 1,28,29
 1085 181.375 1085 181.375 1199 293 c 0,30,31
 1247 340 1247 340 1304.5 368.5 c 128,-1,32
 1362 397 1362 397 1410 423 c 128,-1,33
 1458 449 1458 449 1491 476.5 c 128,-1,34
 1524 504 1524 504 1524 547 c 256,35,36
 1524 590 1524 590 1489 610.5 c 128,-1,37
 1454 631 1454 631 1410 631 c 0,38,39
 1344.41666667 631 1344.41666667 631 1284 606 c 1,40,41
 1319 596 1319 596 1344.5 578.5 c 128,-1,42
 1370 561 1370 561 1370 522 c 128,-1,43
 1370 483 1370 483 1332 453.5 c 128,-1,44
 1294 424 1294 424 1248 424 c 128,-1,45
 1202 424 1202 424 1176.5 431 c 128,-1,46
 1151 438 1151 438 1129.5 454.5 c 0,47,48
 1081 491.720930233 1081 491.720930233 1081 552.860465116 c 128,-1,49
 1081 614 1081 614 1111 656 c 128,-1,50
 1141 698 1141 698 1193 729 c 0,51,52
 1303.70967742 795 1303.70967742 795 1481 795 c 0,53,54
 1666.25757576 795 1666.25757576 795 1775.5 725 c 0,55,56
 1882 656.757281553 1882 656.757281553 1882 566.878640777 c 128,-1,57
 1882 477 1882 477 1845 434 c 128,-1,58
 1808 391 1808 391 1751 367.5 c 128,-1,59
 1694 344 1694 344 1624 333 c 128,-1,60
 1554 322 1554 322 1486.5 305.5 c 0,61,62
 1327.46223022 266.624100719 1327.46223022 266.624100719 1276 172 c 1,63,-1
 1284 170 l 1,64,65
 1309 197 1309 197 1354 228.5 c 128,-1,66
 1399 260 1399 260 1454 260 c 128,-1,67
 1509 260 1509 260 1536 256 c 128,-1,68
 1563 252 1563 252 1584.5 248 c 128,-1,69
 1606 244 1606 244 1623 240 c 128,-1,70
 1640 236 1640 236 1666 236 c 128,-1,71
 1692 236 1692 236 1714.5 249 c 128,-1,72
 1737 262 1737 262 1737 309 c 1,73,-1
 1886 309 l 1,74,75
 1886 40.9411764706 1886 40.9411764706 1712 0 c 0,76,77
 1661 -12 1661 -12 1610 -12 c 128,-1,78
 1559 -12 1559 -12 1519 -4 c 128,-1,79
 1479 4 1479 4 1442 13.5 c 128,-1,24
 1405 23 1405 23 1372 31 c 128,-1,25
EndSplineSet
EndChar

StartChar: threequarters
Encoding: 190 190 282
Width: 2005
Flags: HMW
LayerCount: 2
Fore
SplineSet
1444 1473 m 1,0,-1
 1733 1473 l 1,1,-1
 649 0 l 1,2,-1
 360 0 l 1,3,-1
 1444 1473 l 1,0,-1
1108 426 m 1,4,-1
 1446 786 l 1,5,-1
 1772 786 l 1,6,-1
 1772 379 l 1,7,-1
 1903 379 l 1,8,-1
 1903 254 l 1,9,-1
 1772 254 l 1,10,-1
 1772 229 l 2,11,12
 1772 193 1772 193 1785 186.5 c 128,-1,13
 1798 180 1798 180 1829 180 c 2,14,-1
 1876 180 l 1,15,-1
 1876 0 l 1,16,-1
 1343 0 l 1,17,-1
 1343 180 l 1,18,-1
 1399 180 l 2,19,20
 1430 180 1430 180 1438 193.5 c 128,-1,21
 1446 207 1446 207 1446 227 c 2,22,-1
 1446 254 l 1,23,-1
 1108 254 l 1,24,-1
 1108 426 l 1,4,-1
1245 379 m 1,25,-1
 1446 379 l 1,26,-1
 1446 596 l 1,27,-1
 1245 379 l 1,25,-1
252 879 m 1,28,29
 311.705882353 844 311.705882353 844 391 844 c 0,30,31
 537 844 537 844 537 944 c 0,32,33
 537 997 537 997 499 1018.5 c 128,-1,34
 461 1040 461 1040 416 1040 c 2,35,-1
 377 1040 l 1,36,-1
 377 1155 l 1,37,-1
 416 1155 l 2,38,39
 469 1155 469 1155 495.5 1181.5 c 128,-1,40
 522 1208 522 1208 522 1248 c 128,-1,41
 522 1288 522 1288 483 1308.5 c 128,-1,42
 444 1329 444 1329 392 1329 c 0,43,44
 319.181818182 1329 319.181818182 1329 281 1294 c 1,45,46
 303 1296 303 1296 329.5 1283 c 128,-1,47
 356 1270 356 1270 356 1225 c 128,-1,48
 356 1180 356 1180 321.5 1154 c 128,-1,49
 287 1128 287 1128 228.5 1128 c 128,-1,50
 170 1128 170 1128 126 1164 c 128,-1,51
 82 1200 82 1200 82 1272 c 0,52,53
 82 1372 82 1372 180.5 1432.5 c 128,-1,54
 279 1493 279 1493 451 1493 c 0,55,56
 710.243902439 1493 710.243902439 1493 805 1382 c 0,57,58
 840 1341 840 1341 840 1280 c 0,59,60
 840 1130 840 1130 659 1100 c 1,61,-1
 659 1096 l 1,62,63
 750 1085 750 1085 806 1037 c 128,-1,64
 862 989 862 989 862 899 c 0,65,66
 862 812.55 862 812.55 765 749.5 c 0,67,68
 651.923076923 676 651.923076923 676 446 676 c 0,69,70
 252.956521739 676 252.956521739 676 148.5 753.5 c 0,71,72
 61 818.419354839 61 818.419354839 61 922 c 0,73,74
 61 993 61 993 102 1032 c 128,-1,75
 143 1071 143 1071 208.5 1071 c 128,-1,76
 274 1071 274 1071 307 1037.5 c 128,-1,77
 340 1004 340 1004 340 969 c 0,78,79
 340 894.085714286 340 894.085714286 252 879 c 1,28,29
EndSplineSet
EndChar

StartChar: degree
Encoding: 176 176 283
Width: 674
Flags: HMW
LayerCount: 2
Fore
SplineSet
337.5 1493 m 0,0,1
 401 1493 401 1493 456.5 1468.5 c 128,-1,2
 512 1444 512 1444 553 1403 c 0,3,4
 641 1315 641 1315 641 1188 c 0,5,6
 641 1063 641 1063 552 974 c 128,-1,7
 463 885 463 885 336 885 c 0,8,9
 211 885 211 885 123 973 c 128,-1,10
 35 1061 35 1061 35 1188 c 0,11,12
 35 1313.85365854 35 1313.85365854 123 1404 c 0,13,14
 209.880952381 1493 209.880952381 1493 337.5 1493 c 0,0,1
421 1271 m 128,-1,16
 387 1305 387 1305 339 1305 c 128,-1,17
 291 1305 291 1305 257 1271 c 128,-1,18
 223 1237 223 1237 223 1189 c 128,-1,19
 223 1141 223 1141 257 1107 c 128,-1,20
 291 1073 291 1073 339 1073 c 128,-1,21
 387 1073 387 1073 421 1108 c 128,-1,22
 455 1143 455 1143 455 1190 c 128,-1,15
 455 1237 455 1237 421 1271 c 128,-1,16
EndSplineSet
EndChar

StartChar: ordfeminine
Encoding: 170 170 284
Width: 1208
Flags: HMW
LayerCount: 2
Fore
SplineSet
592 1260 m 0,0,1
 592 1350 592 1350 457 1350 c 0,2,3
 365 1350 365 1350 365 1319 c 0,4,5
 365 1309 365 1309 378 1304.5 c 128,-1,6
 391 1300 391 1300 406.5 1292 c 0,7,8
 449 1270.06451613 449 1270.06451613 449 1223.03225806 c 128,-1,9
 449 1176 449 1176 400.5 1143 c 128,-1,10
 352 1110 352 1110 275.5 1110 c 128,-1,11
 199 1110 199 1110 155 1151 c 128,-1,12
 111 1192 111 1192 111 1249.5 c 128,-1,13
 111 1307 111 1307 138.5 1348 c 128,-1,14
 166 1389 166 1389 221 1420.5 c 0,15,16
 347.587301587 1493 347.587301587 1493 553 1493 c 0,17,18
 797.621621622 1493 797.621621622 1493 904 1411 c 0,19,20
 987 1347.02083333 987 1347.02083333 987 1231 c 2,21,-1
 987 1010 l 2,22,23
 987 950 987 950 991 927.5 c 128,-1,24
 995 905 995 905 1021 905 c 128,-1,25
 1047 905 1047 905 1055 925.5 c 128,-1,26
 1063 946 1063 946 1063 993 c 2,27,-1
 1063 1036 l 1,28,-1
 1147 1036 l 1,29,-1
 1147 952 l 2,30,31
 1147 824.728813559 1147 824.728813559 1094.5 766 c 0,32,33
 1033.71212121 698 1033.71212121 698 879 698 c 0,34,35
 750.609756098 698 750.609756098 698 683 747.5 c 0,36,37
 631 785.571428571 631 785.571428571 631 834 c 1,38,-1
 621 834 l 1,39,40
 610 778 610 778 538.5 736 c 128,-1,41
 467 694 467 694 336 694 c 0,42,43
 61 694 61 694 61 893 c 0,44,45
 61 1000.50420168 61 1000.50420168 198.5 1052.5 c 0,46,47
 258 1075 258 1075 326.5 1088.5 c 128,-1,48
 395 1102 395 1102 454.5 1121.5 c 128,-1,49
 514 1141 514 1141 553 1171.5 c 128,-1,50
 592 1202 592 1202 592 1260 c 0,0,1
592 1061 m 1,51,52
 573 1038 573 1038 548.5 1029 c 128,-1,53
 524 1020 524 1020 502.5 1010.5 c 0,54,55
 451 987.744186047 451 987.744186047 451 944 c 0,56,57
 451 922 451 922 465 904.5 c 128,-1,58
 479 887 479 887 514 887 c 256,59,60
 549 887 549 887 570.5 911.5 c 128,-1,61
 592 936 592 936 592 981 c 2,62,-1
 592 1061 l 1,51,52
117 623 m 1,63,-1
 1071 623 l 1,64,-1
 1071 371 l 1,65,-1
 117 371 l 1,66,-1
 117 623 l 1,63,-1
EndSplineSet
EndChar

StartChar: ordmasculine
Encoding: 186 186 285
Width: 1161
Flags: HMW
LayerCount: 2
Fore
SplineSet
98 923.5 m 0,0,1
 61 997 61 997 61 1095.5 c 128,-1,2
 61 1194 61 1194 98 1268.5 c 128,-1,3
 135 1343 135 1343 202.5 1392.5 c 0,4,5
 339.545454545 1493 339.545454545 1493 582 1493 c 0,6,7
 821.454545455 1493 821.454545455 1493 958.5 1392.5 c 0,8,9
 1100 1288.73333333 1100 1288.73333333 1100 1096 c 0,10,11
 1100 905.911111111 1100 905.911111111 958.5 799 c 0,12,13
 822.176470588 696 822.176470588 696 582 696 c 0,14,15
 212.523809524 696 212.523809524 696 98 923.5 c 0,0,1
494.5 1254 m 128,-1,17
 473 1210 473 1210 473 1095.5 c 128,-1,18
 473 981 473 981 494.5 936 c 128,-1,19
 516 891 516 891 581.5 891 c 128,-1,20
 647 891 647 891 668.5 936 c 128,-1,21
 690 981 690 981 690 1095.5 c 128,-1,22
 690 1210 690 1210 668.5 1254 c 128,-1,23
 647 1298 647 1298 581.5 1298 c 128,-1,16
 516 1298 516 1298 494.5 1254 c 128,-1,17
125 623 m 1,24,-1
 1038 623 l 1,25,-1
 1038 371 l 1,26,-1
 125 371 l 1,27,-1
 125 623 l 1,24,-1
EndSplineSet
EndChar

StartChar: plus
Encoding: 43 43 286
Width: 1434
Flags: HMW
LayerCount: 2
Fore
SplineSet
553 553 m 1,0,-1
 154 553 l 1,1,-1
 154 879 l 1,2,-1
 553 879 l 1,3,-1
 553 1278 l 1,4,-1
 879 1278 l 1,5,-1
 879 879 l 1,6,-1
 1280 879 l 1,7,-1
 1280 553 l 1,8,-1
 879 553 l 1,9,-1
 879 152 l 1,10,-1
 553 152 l 1,11,-1
 553 553 l 1,0,-1
EndSplineSet
EndChar

StartChar: minus
Encoding: 8722 8722 287
Width: 1434
Flags: HMW
LayerCount: 2
Fore
SplineSet
1280 879 m 1,0,-1
 1280 553 l 1,1,-1
 154 553 l 1,2,-1
 154 879 l 1,3,-1
 1280 879 l 1,0,-1
EndSplineSet
EndChar

StartChar: equal
Encoding: 61 61 288
Width: 1434
Flags: HMW
LayerCount: 2
Fore
SplineSet
1260 1165 m 1,0,-1
 1260 840 l 1,1,-1
 174 840 l 1,2,-1
 174 1165 l 1,3,-1
 1260 1165 l 1,0,-1
1260 592 m 1,4,-1
 1260 266 l 1,5,-1
 174 266 l 1,6,-1
 174 592 l 1,7,-1
 1260 592 l 1,4,-1
EndSplineSet
EndChar

StartChar: notequal
Encoding: 8800 8800 289
Width: 1434
Flags: HMW
LayerCount: 2
Fore
SplineSet
535 592 m 1,0,-1
 608 840 l 1,1,-1
 174 840 l 1,2,-1
 174 1165 l 1,3,-1
 707 1165 l 1,4,-1
 786 1432 l 1,5,-1
 1075 1432 l 1,6,-1
 995 1165 l 1,7,-1
 1260 1165 l 1,8,-1
 1260 840 l 1,9,-1
 897 840 l 1,10,-1
 823 592 l 1,11,-1
 1260 592 l 1,12,-1
 1260 266 l 1,13,-1
 727 266 l 1,14,-1
 647 0 l 1,15,-1
 358 0 l 1,16,-1
 438 266 l 1,17,-1
 174 266 l 1,18,-1
 174 592 l 1,19,-1
 535 592 l 1,0,-1
EndSplineSet
EndChar

StartChar: approxequal
Encoding: 8776 8776 290
Width: 1434
Flags: HMW
LayerCount: 2
Fore
SplineSet
626 868.5 m 128,-1,1
 586 885 586 885 545 885 c 128,-1,2
 504 885 504 885 469 859.5 c 128,-1,3
 434 834 434 834 424 782 c 1,4,-1
 154 782 l 1,5,6
 190.91017316 1077.28138528 190.91017316 1077.28138528 361.5 1181 c 0,7,8
 424 1219 424 1219 499.5 1219 c 128,-1,9
 575 1219 575 1219 626.5 1202.5 c 128,-1,10
 678 1186 678 1186 722 1167.5 c 128,-1,11
 766 1149 766 1149 806 1132.5 c 128,-1,12
 846 1116 846 1116 887 1116 c 128,-1,13
 928 1116 928 1116 963.5 1141.5 c 128,-1,14
 999 1167 999 1167 1010 1219 c 1,15,-1
 1280 1219 l 1,16,17
 1242.95 922.6 1242.95 922.6 1071.5 820 c 0,18,19
 1008 782 1008 782 932 782 c 128,-1,20
 856 782 856 782 805 798.5 c 128,-1,21
 754 815 754 815 710 833.5 c 128,-1,0
 666 852 666 852 626 868.5 c 128,-1,1
626 299 m 128,-1,23
 586 315 586 315 545 315 c 128,-1,24
 504 315 504 315 469 289.5 c 128,-1,25
 434 264 434 264 424 213 c 1,26,-1
 154 213 l 1,27,28
 190.774891775 507.199134199 190.774891775 507.199134199 361.5 611 c 0,29,30
 424 649 424 649 499.5 649 c 128,-1,31
 575 649 575 649 626.5 632.5 c 128,-1,32
 678 616 678 616 722 598 c 128,-1,33
 766 580 766 580 806 563.5 c 128,-1,34
 846 547 846 547 887 547 c 128,-1,35
 928 547 928 547 963.5 572.5 c 128,-1,36
 999 598 999 598 1010 649 c 1,37,-1
 1280 649 l 1,38,39
 1243.08510638 353.680851064 1243.08510638 353.680851064 1071.5 251 c 0,40,41
 1008 213 1008 213 932 213 c 128,-1,42
 856 213 856 213 805 229.5 c 128,-1,43
 754 246 754 246 710 264.5 c 128,-1,22
 666 283 666 283 626 299 c 128,-1,23
EndSplineSet
EndChar

StartChar: multiply
Encoding: 215 215 291
Width: 1434
Flags: HMW
LayerCount: 2
Fore
SplineSet
715 485 m 1,0,-1
 403 174 l 1,1,-1
 174 403 l 1,2,-1
 485 715 l 1,3,-1
 174 1026 l 1,4,-1
 403 1255 l 1,5,-1
 715 944 l 1,6,-1
 1028 1257 l 1,7,-1
 1257 1028 l 1,8,-1
 944 715 l 1,9,-1
 1257 401 l 1,10,-1
 1028 172 l 1,11,-1
 715 485 l 1,0,-1
EndSplineSet
EndChar

StartChar: divide
Encoding: 247 247 292
Width: 1434
Flags: HMW
LayerCount: 2
Fore
SplineSet
1280 879 m 1,0,-1
 1280 553 l 1,1,-1
 154 553 l 1,2,-1
 154 879 l 1,3,-1
 1280 879 l 1,0,-1
528 1149 m 256,4,5
 528 1227 528 1227 581.5 1280 c 128,-1,6
 635 1333 635 1333 713 1333 c 256,7,8
 791 1333 791 1333 844 1280 c 128,-1,9
 897 1227 897 1227 897 1149 c 256,10,11
 897 1071 897 1071 844 1018 c 128,-1,12
 791 965 791 965 713 965 c 256,13,14
 635 965 635 965 581.5 1018 c 128,-1,15
 528 1071 528 1071 528 1149 c 256,4,5
581.5 151.5 m 128,-1,17
 528 205 528 205 528 282.5 c 128,-1,18
 528 360 528 360 581.5 413.5 c 128,-1,19
 635 467 635 467 713 467 c 256,20,21
 791 467 791 467 844 413.5 c 128,-1,22
 897 360 897 360 897 282.5 c 128,-1,23
 897 205 897 205 844 151.5 c 128,-1,24
 791 98 791 98 713 98 c 256,25,16
 635 98 635 98 581.5 151.5 c 128,-1,17
EndSplineSet
EndChar

StartChar: logicalnot
Encoding: 172 172 293
Width: 1434
Flags: HMW
LayerCount: 2
Fore
SplineSet
934 737 m 1,0,-1
 154 737 l 1,1,-1
 154 1063 l 1,2,-1
 1260 1063 l 1,3,-1
 1260 387 l 1,4,-1
 934 387 l 1,5,-1
 934 737 l 1,0,-1
EndSplineSet
EndChar

StartChar: plusminus
Encoding: 177 177 294
Width: 1434
Flags: HMW
LayerCount: 2
Fore
SplineSet
553 758 m 1,0,-1
 174 758 l 1,1,-1
 174 1083 l 1,2,-1
 553 1083 l 1,3,-1
 553 1401 l 1,4,-1
 879 1401 l 1,5,-1
 879 1083 l 1,6,-1
 1260 1083 l 1,7,-1
 1260 758 l 1,8,-1
 879 758 l 1,9,-1
 879 438 l 1,10,-1
 553 438 l 1,11,-1
 553 758 l 1,0,-1
1260 326 m 1,12,-1
 1260 0 l 1,13,-1
 174 0 l 1,14,-1
 174 326 l 1,15,-1
 1260 326 l 1,12,-1
EndSplineSet
EndChar

StartChar: less
Encoding: 60 60 295
Width: 1434
Flags: HMW
LayerCount: 2
Fore
SplineSet
1083 1354 m 1,0,-1
 1247 1071 l 1,1,-1
 631 715 l 1,2,-1
 1247 358 l 1,3,-1
 1085 78 l 1,4,-1
 186 596 l 1,5,-1
 186 838 l 1,6,-1
 1083 1354 l 1,0,-1
EndSplineSet
EndChar

StartChar: greater
Encoding: 62 62 296
Width: 1434
Flags: HMW
LayerCount: 2
Fore
SplineSet
1247 838 m 1,0,-1
 1247 596 l 1,1,-1
 348 78 l 1,2,-1
 186 358 l 1,3,-1
 803 715 l 1,4,-1
 186 1071 l 1,5,-1
 350 1354 l 1,6,-1
 1247 838 l 1,0,-1
EndSplineSet
EndChar

StartChar: lessequal
Encoding: 8804 8804 297
Width: 1434
Flags: HMW
LayerCount: 2
Fore
SplineSet
1083 1477 m 1,0,-1
 1227 1194 l 1,1,-1
 631 920 l 1,2,-1
 1227 645 l 1,3,-1
 1085 365 l 1,4,-1
 186 801 l 1,5,-1
 186 1042 l 1,6,-1
 1083 1477 l 1,0,-1
1260 326 m 1,7,-1
 1260 0 l 1,8,-1
 174 0 l 1,9,-1
 174 326 l 1,10,-1
 1260 326 l 1,7,-1
EndSplineSet
EndChar

StartChar: greaterequal
Encoding: 8805 8805 298
Width: 1434
Flags: HMW
LayerCount: 2
Fore
SplineSet
1247 1042 m 1,0,-1
 1247 801 l 1,1,-1
 348 365 l 1,2,-1
 207 645 l 1,3,-1
 803 920 l 1,4,-1
 207 1194 l 1,5,-1
 350 1477 l 1,6,-1
 1247 1042 l 1,0,-1
1260 326 m 1,7,-1
 1260 0 l 1,8,-1
 174 0 l 1,9,-1
 174 326 l 1,10,-1
 1260 326 l 1,7,-1
EndSplineSet
EndChar

StartChar: fraction
Encoding: 8260 8260 299
Width: 459
Flags: HMW
LayerCount: 2
Fore
SplineSet
627 1473 m 1,0,-1
 915 1473 l 1,1,-1
 -168 0 l 1,2,-1
 -457 0 l 1,3,-1
 627 1473 l 1,0,-1
EndSplineSet
EndChar

StartChar: bar
Encoding: 124 124 300
Width: 717
Flags: HMW
LayerCount: 2
Fore
SplineSet
512 1565 m 1,0,-1
 512 -483 l 1,1,-1
 205 -483 l 1,2,-1
 205 1565 l 1,3,-1
 512 1565 l 1,0,-1
EndSplineSet
EndChar

StartChar: brokenbar
Encoding: 166 166 301
Width: 717
Flags: HMW
LayerCount: 2
Fore
SplineSet
512 408 m 1,0,-1
 512 -350 l 1,1,-1
 205 -350 l 1,2,-1
 205 408 l 1,3,-1
 512 408 l 1,0,-1
512 1432 m 1,4,-1
 512 674 l 1,5,-1
 205 674 l 1,6,-1
 205 1432 l 1,7,-1
 512 1432 l 1,4,-1
EndSplineSet
EndChar

StartChar: at
Encoding: 64 64 302
Width: 1923
Flags: HMW
LayerCount: 2
Fore
SplineSet
1343 387 m 0,0,1
 1343 334 1343 334 1396.5 334 c 128,-1,2
 1450 334 1450 334 1499 378 c 128,-1,3
 1548 422 1548 422 1586 492.5 c 0,4,5
 1669 646.486842105 1669 646.486842105 1669 829 c 0,6,7
 1669 1078.71428571 1669 1078.71428571 1504 1225.5 c 0,8,9
 1343.81751825 1368 1343.81751825 1368 1092 1368 c 0,10,11
 757.455399061 1368 757.455399061 1368 538.5 1140.5 c 0,12,13
 324 917.629268293 324 917.629268293 324 588 c 0,14,15
 324 290.333333333 324 290.333333333 510 125 c 0,16,17
 692.25 -37 692.25 -37 1016 -37 c 0,18,19
 1173.46666667 -37 1173.46666667 -37 1274.73333333 -6 c 0,20,21
 1464.07258938 51.9609967497 1464.07258938 51.9609967497 1620 168 c 1,22,-1
 1696 55 l 1,23,24
 1378 -184 1378 -184 1018 -184 c 0,25,26
 603.599033816 -184 603.599033816 -184 354 29.5 c 0,27,28
 102 245.053719008 102 245.053719008 102 612 c 0,29,30
 102 803 102 803 179 968 c 128,-1,31
 256 1133 256 1133 388 1254.5 c 128,-1,32
 520 1376 520 1376 696 1444.5 c 128,-1,33
 872 1513 872 1513 1053.5 1513 c 128,-1,34
 1235 1513 1235 1513 1373 1464 c 128,-1,35
 1511 1415 1511 1415 1610.5 1325 c 0,36,37
 1821 1134.59798995 1821 1134.59798995 1821 831 c 0,38,39
 1821 564.081481481 1821 564.081481481 1677.5 377 c 0,40,41
 1532.52840909 188 1532.52840909 188 1313 188 c 0,42,43
 1144.44067797 188 1144.44067797 188 1083 313 c 1,44,45
 980.163934426 190 980.163934426 190 828.081967213 190 c 128,-1,46
 676 190 676 190 588 286.5 c 128,-1,47
 500 383 500 383 500 549 c 0,48,49
 500 659 500 659 544 759.5 c 128,-1,50
 588 860 588 860 660.5 937 c 128,-1,51
 733 1014 733 1014 826.5 1059 c 128,-1,52
 920 1104 920 1104 1020 1104 c 0,53,54
 1157 1104 1157 1104 1221 1022 c 1,55,-1
 1237 1083 l 1,56,-1
 1530 1083 l 1,57,-1
 1354 453 l 1,58,59
 1350 434 1350 434 1346.5 418.5 c 128,-1,60
 1343 403 1343 403 1343 387 c 0,0,1
1069 946 m 0,61,62
 977.182389937 946 977.182389937 946 894 751.5 c 0,63,64
 821 580.808823529 821 580.808823529 821 442 c 0,65,66
 821 350 821 350 887 350 c 0,67,68
 969.523529412 350 969.523529412 350 1051.5 558 c 0,69,70
 1124 741.955223881 1124 741.955223881 1124 883 c 0,71,72
 1124 913 1124 913 1108 929.5 c 128,-1,73
 1092 946 1092 946 1069 946 c 0,61,62
EndSplineSet
EndChar

StartChar: bullet
Encoding: 8226 8226 303
Width: 797
Flags: HMW
LayerCount: 2
Fore
SplineSet
102 731.5 m 0,0,1
 102 793 102 793 126 846 c 128,-1,2
 150 899 150 899 190.5 939 c 0,3,4
 278.5875 1026 278.5875 1026 399 1026 c 0,5,6
 520 1026 520 1026 607 939 c 128,-1,7
 694 852 694 852 694 731 c 0,8,9
 694 611.175 694 611.175 607 522 c 0,10,11
 521.146341463 434 521.146341463 434 397 434 c 128,-1,12
 272.853658537 434 272.853658537 434 187 522 c 0,13,14
 102 609.125 102 609.125 102 731.5 c 0,0,1
EndSplineSet
EndChar

StartChar: asciicircum
Encoding: 94 94 304
Width: 1434
Flags: HMW
LayerCount: 2
Fore
SplineSet
1311 860 m 1,0,-1
 967 860 l 1,1,-1
 717 1151 l 1,2,-1
 465 860 l 1,3,-1
 123 860 l 1,4,-1
 496 1473 l 1,5,-1
 940 1473 l 1,6,-1
 1311 860 l 1,0,-1
EndSplineSet
EndChar

StartChar: asciitilde
Encoding: 126 126 305
Width: 1434
Flags: HMW
LayerCount: 2
Fore
SplineSet
626 581.5 m 128,-1,1
 586 598 586 598 545 598 c 128,-1,2
 504 598 504 598 469 572.5 c 128,-1,3
 434 547 434 547 424 496 c 1,4,-1
 154 496 l 1,5,6
 191.279210093 790.505759737 191.279210093 790.505759737 361.5 894 c 0,7,8
 424 932 424 932 499.5 932 c 128,-1,9
 575 932 575 932 626.5 915.5 c 128,-1,10
 678 899 678 899 722 880.5 c 128,-1,11
 766 862 766 862 806 845.5 c 128,-1,12
 846 829 846 829 887 829 c 128,-1,13
 928 829 928 829 963.5 855 c 128,-1,14
 999 881 999 881 1010 932 c 1,15,-1
 1280 932 l 1,16,17
 1242.83528162 634.682252922 1242.83528162 634.682252922 1071.5 533.5 c 0,18,19
 1008 496 1008 496 932 496 c 128,-1,20
 856 496 856 496 805 512 c 128,-1,21
 754 528 754 528 710 546.5 c 128,-1,0
 666 565 666 565 626 581.5 c 128,-1,1
EndSplineSet
EndChar

StartChar: slash
Encoding: 47 47 306
Width: 922
Flags: HMW
LayerCount: 2
Fore
SplineSet
530 1473 m 1,0,-1
 819 1473 l 1,1,-1
 391 0 l 1,2,-1
 102 0 l 1,3,-1
 530 1473 l 1,0,-1
EndSplineSet
EndChar

StartChar: backslash
Encoding: 92 92 307
Width: 922
Flags: HMW
LayerCount: 2
Fore
SplineSet
819 0 m 1,0,-1
 530 0 l 1,1,-1
 102 1473 l 1,2,-1
 391 1473 l 1,3,-1
 819 0 l 1,0,-1
EndSplineSet
EndChar

StartChar: quotesingle
Encoding: 39 39 308
Width: 535
Flags: HMW
LayerCount: 2
Fore
SplineSet
186 840 m 1,0,1
 82 1158.5 82 1158.5 82 1337 c 0,2,3
 82 1407 82 1407 128 1460 c 128,-1,4
 174 1513 174 1513 268 1513 c 256,5,6
 362 1513 362 1513 407.5 1461 c 128,-1,7
 453 1409 453 1409 453 1341 c 0,8,9
 453 1155.4375 453 1155.4375 350 840 c 1,10,-1
 186 840 l 1,0,1
EndSplineSet
EndChar

StartChar: quotedbl
Encoding: 34 34 309
Width: 1006
Flags: HMW
LayerCount: 2
Fore
SplineSet
186 840 m 1,0,1
 82 1158.5 82 1158.5 82 1337 c 0,2,3
 82 1407 82 1407 128 1460 c 128,-1,4
 174 1513 174 1513 268 1513 c 256,5,6
 362 1513 362 1513 407.5 1461 c 128,-1,7
 453 1409 453 1409 453 1341 c 0,8,9
 453 1155.4375 453 1155.4375 350 840 c 1,10,-1
 186 840 l 1,0,1
657 840 m 1,11,12
 553 1158.5 553 1158.5 553 1337 c 0,13,14
 553 1407 553 1407 599 1460 c 128,-1,15
 645 1513 645 1513 739.5 1513 c 128,-1,16
 834 1513 834 1513 879 1461 c 128,-1,17
 924 1409 924 1409 924 1341 c 0,18,19
 924 1155.4375 924 1155.4375 821 840 c 1,20,-1
 657 840 l 1,11,12
EndSplineSet
EndChar

StartChar: ampersand
Encoding: 38 38 310
Width: 2015
Flags: HMW
LayerCount: 2
Fore
SplineSet
1376 494 m 1,0,1
 1421 509.882352941 1421 509.882352941 1421 547 c 0,2,3
 1421 567 1421 567 1402.5 583.5 c 128,-1,4
 1384 600 1384 600 1305 600 c 1,5,-1
 1305 885 l 1,6,-1
 1954 885 l 1,7,-1
 1954 600 l 1,8,-1
 1907 600 l 2,9,10
 1853 600 1853 600 1812.5 570.5 c 128,-1,11
 1772 541 1772 541 1735 499 c 128,-1,12
 1698 457 1698 457 1663 413 c 128,-1,13
 1628 369 1628 369 1587 340 c 1,14,15
 1633.5 309 1633.5 309 1697.25 309 c 128,-1,16
 1761 309 1761 309 1803 347 c 128,-1,17
 1845 385 1845 385 1845 494 c 1,18,-1
 1954 494 l 1,19,20
 1954 192.840425532 1954 192.840425532 1862 70.5 c 0,21,22
 1776.648 -43 1776.648 -43 1574.574 -43 c 128,-1,23
 1372.5 -43 1372.5 -43 1200 72 c 1,24,25
 1070.29596977 14.6889168766 1070.29596977 14.6889168766 1005.14798489 -4.15554156171 c 0,26,27
 870.857142857 -43 870.857142857 -43 709.928571429 -43 c 128,-1,28
 549 -43 549 -43 435.5 -16.5 c 128,-1,29
 322 10 322 10 237 64.5 c 0,30,31
 51 183.758823529 51 183.758823529 51 403 c 0,32,33
 51 652.72972973 51 652.72972973 293 777 c 0,34,35
 367 815 367 815 453 838 c 1,36,37
 348 999.7 348 999.7 348 1121.35 c 128,-1,38
 348 1243 348 1243 401.5 1319 c 128,-1,39
 455 1395 455 1395 540 1438 c 0,40,41
 688.255813953 1513 688.255813953 1513 940 1513 c 0,42,43
 1139.84615385 1513 1139.84615385 1513 1273.5 1438 c 0,44,45
 1427 1351.86330935 1427 1351.86330935 1427 1194 c 0,46,47
 1427 1052.35897436 1427 1052.35897436 1299.5 963 c 0,48,49
 1217.39311651 905.455004736 1217.39311651 905.455004736 1012 831 c 1,50,51
 1164.91089109 650.287128713 1164.91089109 650.287128713 1376 494 c 1,0,1
610 586 m 1,52,53
 551 539.90625 551 539.90625 551 437.953125 c 128,-1,54
 551 336 551 336 609.5 288 c 128,-1,55
 668 240 668 240 754 240 c 0,56,57
 836.285714286 240 836.285714286 240 905 266 c 1,58,59
 765.383561644 388.520547945 765.383561644 388.520547945 677 499 c 0,60,61
 645 539 645 539 610 586 c 1,52,53
974 1087.5 m 128,-1,63
 1012 1120 1012 1120 1012 1166 c 128,-1,64
 1012 1212 1012 1212 986.5 1237 c 128,-1,65
 961 1262 961 1262 912.5 1262 c 128,-1,66
 864 1262 864 1262 836.5 1237 c 128,-1,67
 809 1212 809 1212 809 1174.5 c 128,-1,68
 809 1137 809 1137 825.5 1104 c 128,-1,69
 842 1071 842 1071 872 1020 c 1,70,62
 936 1055 936 1055 974 1087.5 c 128,-1,63
EndSplineSet
EndChar

StartChar: parenleft
Encoding: 40 40 311
Width: 983
Flags: HMW
LayerCount: 2
Fore
SplineSet
637 604 m 0,0,1
 637 99.2340425532 637 99.2340425532 901 0 c 1,2,-1
 901 -303 l 1,3,4
 511.371335505 -248.208469055 511.371335505 -248.208469055 298 -13.5 c 0,5,6
 82 224.1 82 224.1 82 606 c 0,7,8
 82 988.289099526 82 988.289099526 300.5 1227.5 c 0,9,10
 513.756787893 1460.97070144 513.756787893 1460.97070144 901 1516 c 1,11,-1
 901 1214 l 1,12,13
 758 1159 758 1159 697.5 1001.5 c 128,-1,14
 637 844 637 844 637 604 c 0,0,1
EndSplineSet
EndChar

StartChar: parenright
Encoding: 41 41 312
Width: 983
Flags: HMW
LayerCount: 2
Fore
SplineSet
82 0 m 1,0,1
 346 99.2340425532 346 99.2340425532 346 604 c 0,2,3
 346 844 346 844 285.5 1001.5 c 128,-1,4
 225 1159 225 1159 82 1214 c 1,5,-1
 82 1516 l 1,6,7
 470.978021978 1460.72417582 470.978021978 1460.72417582 683 1227.5 c 0,8,9
 901 987.7 901 987.7 901 606 c 0,10,11
 901 222.426540284 901 222.426540284 685.5 -13.5 c 0,12,13
 471.036554133 -248.291734575 471.036554133 -248.291734575 82 -303 c 1,14,-1
 82 0 l 1,0,1
EndSplineSet
EndChar

StartChar: bracketleft
Encoding: 91 91 313
Width: 936
Flags: HMW
LayerCount: 2
Fore
SplineSet
123 -266 m 1,0,-1
 123 1473 l 1,1,-1
 834 1473 l 1,2,-1
 834 1190 l 1,3,-1
 651 1190 l 1,4,-1
 651 16 l 1,5,-1
 834 16 l 1,6,-1
 834 -266 l 1,7,-1
 123 -266 l 1,0,-1
EndSplineSet
EndChar

StartChar: bracketright
Encoding: 93 93 314
Width: 936
Flags: HMW
LayerCount: 2
Fore
SplineSet
102 -266 m 1,0,-1
 102 16 l 1,1,-1
 285 16 l 1,2,-1
 285 1190 l 1,3,-1
 102 1190 l 1,4,-1
 102 1473 l 1,5,-1
 813 1473 l 1,6,-1
 813 -266 l 1,7,-1
 102 -266 l 1,0,-1
EndSplineSet
EndChar

StartChar: braceleft
Encoding: 123 123 315
Width: 1001
Flags: HMW
LayerCount: 2
Fore
SplineSet
940 1227 m 1,0,1
 813.454545455 1227 813.454545455 1227 770.5 1174.5 c 0,2,3
 731 1126.22222222 731 1126.22222222 731 983 c 2,4,-1
 731 926 l 2,5,6
 731 785.215686275 731 785.215686275 689.5 725 c 0,7,8
 638.084918611 650.397725044 638.084918611 650.397725044 481 614 c 1,9,-1
 481 598 l 1,10,11
 636.084846093 563.956985004 636.084846093 563.956985004 689.5 487.5 c 0,12,13
 731 428.098039216 731 428.098039216 731 287 c 2,14,-1
 731 229 l 2,15,16
 731 83.7777777778 731 83.7777777778 770.5 35.5 c 0,17,18
 811 -14 811 -14 940 -14 c 1,19,-1
 940 -301 l 1,20,21
 361.185430464 -301 361.185430464 -301 260 -69.5 c 0,22,23
 227 6 227 6 227 106 c 2,24,-1
 227 203 l 2,25,26
 227 370.076923077 227 370.076923077 201.5 414.538461538 c 128,-1,27
 176 459 176 459 139 473 c 128,-1,28
 102 487 102 487 41 487 c 1,29,-1
 41 727 l 1,30,31
 154.253731343 727 154.253731343 727 192.5 789.5 c 0,32,33
 227 845.87804878 227 845.87804878 227 1010 c 2,34,-1
 227 1106 l 2,35,36
 227 1206 227 1206 260 1282 c 128,-1,37
 293 1358 293 1358 375 1409 c 0,38,39
 542.215686275 1513 542.215686275 1513 940 1513 c 1,40,-1
 940 1227 l 1,0,1
EndSplineSet
EndChar

StartChar: braceright
Encoding: 125 125 316
Width: 1001
Flags: HMW
LayerCount: 2
Fore
SplineSet
61 1513 m 1,0,1
 642.717105263 1513 642.717105263 1513 741.5 1282 c 0,2,3
 774 1206 774 1206 774 1106 c 2,4,-1
 774 1010 l 2,5,6
 774 845.87804878 774 845.87804878 801.5 800.93902439 c 128,-1,7
 829 756 829 756 865 741.5 c 128,-1,8
 901 727 901 727 961 727 c 1,9,-1
 961 487 l 1,10,11
 841.058823529 487 841.058823529 487 805.5 425 c 0,12,13
 774 370.076923077 774 370.076923077 774 203 c 2,14,-1
 774 106 l 2,15,16
 774 6 774 6 741.5 -69.5 c 128,-1,17
 709 -145 709 -145 627 -196.5 c 0,18,19
 460.611650485 -301 460.611650485 -301 61 -301 c 1,20,-1
 61 -14 l 1,21,22
 191 -14 191 -14 231.5 35.5 c 0,23,24
 270 82.5555555556 270 82.5555555556 270 229 c 2,25,-1
 270 287 l 2,26,27
 270 426.666666667 270 426.666666667 312.5 487.5 c 0,28,29
 366.757192175 565.162255466 366.757192175 565.162255466 520 598 c 1,30,-1
 520 614 l 1,31,32
 364.807318468 649.103106537 364.807318468 649.103106537 312.5 725 c 0,33,34
 270 786.666666667 270 786.666666667 270 926 c 2,35,-1
 270 983 l 2,36,37
 270 1127.44444444 270 1127.44444444 231.5 1174.5 c 0,38,39
 188.545454545 1227 188.545454545 1227 61 1227 c 1,40,-1
 61 1513 l 1,0,1
EndSplineSet
EndChar

StartChar: asterisk
Encoding: 42 42 317
Width: 1069
Flags: HMW
LayerCount: 2
Fore
SplineSet
333.5 1339.5 m 128,-1,1
 360 1311 360 1311 385 1275 c 0,2,3
 449.766606822 1181.73608618 449.766606822 1181.73608618 496 1143 c 1,4,5
 483.727272727 1228.90909091 483.727272727 1228.90909091 442 1305 c 1,6,7
 406 1377 406 1377 406 1419.5 c 128,-1,8
 406 1462 406 1462 440.5 1495 c 128,-1,9
 475 1528 475 1528 534.5 1528 c 128,-1,10
 594 1528 594 1528 629 1491 c 128,-1,11
 664 1454 664 1454 664 1419 c 0,12,13
 664 1372.25 664 1372.25 638 1326.125 c 0,14,15
 588.441132638 1238.20566319 588.441132638 1238.20566319 569 1141 c 1,16,17
 619.719101124 1176.64044944 619.719101124 1176.64044944 665.359550562 1242.82022472 c 128,-1,18
 711 1309 711 1309 739.5 1339.5 c 128,-1,19
 768 1370 768 1370 819 1370 c 256,20,21
 870 1370 870 1370 908 1331 c 128,-1,22
 946 1292 946 1292 946 1230.5 c 128,-1,23
 946 1169 946 1169 904 1141.5 c 128,-1,24
 862 1114 862 1114 793.5 1110 c 0,25,26
 660.166197183 1102.21408451 660.166197183 1102.21408451 606 1079 c 1,27,28
 657 1057 657 1057 705.5 1052 c 128,-1,29
 754 1047 754 1047 813 1042.5 c 128,-1,30
 872 1038 872 1038 909 1006.5 c 128,-1,31
 946 975 946 975 946 917.5 c 128,-1,32
 946 860 946 860 907 820 c 128,-1,33
 868 780 868 780 818 780 c 128,-1,34
 768 780 768 780 739.5 811 c 128,-1,35
 711 842 711 842 686.5 878.5 c 0,36,37
 620.5796875 976.7078125 620.5796875 976.7078125 573 1014 c 1,38,39
 582.971698113 941.349056604 582.971698113 941.349056604 613.985849057 882.174528302 c 0,40,41
 666 782.932319392 666 782.932319392 666 739.466159696 c 128,-1,42
 666 696 666 696 631 661.5 c 128,-1,43
 596 627 596 627 536.5 627 c 128,-1,44
 477 627 477 627 442.5 658.5 c 128,-1,45
 408 690 408 690 408 729 c 0,46,47
 408 786.375 408 786.375 433.5 833.6875 c 0,48,49
 488.7776665 936.249248873 488.7776665 936.249248873 500 1012 c 1,50,51
 465 985 465 985 439.5 951.5 c 128,-1,52
 414 918 414 918 388 881 c 128,-1,53
 362 844 362 844 333.5 813 c 128,-1,54
 305 782 305 782 252 782 c 128,-1,55
 199 782 199 782 161 824 c 128,-1,56
 123 866 123 866 123 926.5 c 128,-1,57
 123 987 123 987 171 1014.5 c 128,-1,58
 219 1042 219 1042 279 1042 c 1,59,60
 324 1047 324 1047 371 1052 c 128,-1,61
 418 1057 418 1057 463 1075 c 1,62,63
 379 1112 379 1112 242 1112 c 0,64,65
 199 1112 199 1112 161 1145 c 128,-1,66
 123 1178 123 1178 123 1232 c 128,-1,67
 123 1286 123 1286 160 1327 c 128,-1,68
 197 1368 197 1368 252 1368 c 128,-1,0
 307 1368 307 1368 333.5 1339.5 c 128,-1,1
EndSplineSet
EndChar

StartChar: dagger
Encoding: 8224 8224 318
Width: 1106
Flags: HMW
LayerCount: 2
Fore
SplineSet
972 971 m 128,-1,1
 940 936 940 936 897 936 c 128,-1,2
 854 936 854 936 822.5 945 c 128,-1,3
 791 954 791 954 757 966.5 c 0,4,5
 660.711286089 1001.90026247 660.711286089 1001.90026247 614 1012 c 1,6,-1
 705 772 l 1,7,-1
 592 -57 l 1,8,-1
 516 -57 l 1,9,-1
 406 772 l 1,10,-1
 492 1012 l 1,11,12
 453 1006 453 1006 418 992.5 c 128,-1,13
 383 979 383 979 349 966.5 c 0,14,15
 260.6 934 260.6 934 214.3 934 c 128,-1,16
 168 934 168 934 135 969 c 128,-1,17
 102 1004 102 1004 102 1063 c 256,18,19
 102 1122 102 1122 139 1157 c 128,-1,20
 176 1192 176 1192 215 1192 c 128,-1,21
 254 1192 254 1192 285.5 1181.5 c 128,-1,22
 317 1171 317 1171 351 1157 c 0,23,24
 445.924324324 1117.91351351 445.924324324 1117.91351351 500 1110 c 1,25,26
 494.278283485 1165.78673602 494.278283485 1165.78673602 469.139141743 1231.89336801 c 0,27,28
 424 1350.59259259 424 1350.59259259 424 1399.2962963 c 128,-1,29
 424 1448 424 1448 459 1480.5 c 128,-1,30
 494 1513 494 1513 553 1513 c 256,31,32
 612 1513 612 1513 647 1476.5 c 128,-1,33
 682 1440 682 1440 682 1402 c 128,-1,34
 682 1364 682 1364 672 1331 c 128,-1,35
 662 1298 662 1298 648.5 1262.5 c 0,36,37
 608.702210663 1157.84655397 608.702210663 1157.84655397 604 1112 c 1,38,39
 643 1118 643 1118 680 1132.5 c 128,-1,40
 717 1147 717 1147 751.5 1160.5 c 0,41,42
 837.111111111 1194 837.111111111 1194 885.555555556 1194 c 128,-1,43
 934 1194 934 1194 969 1159 c 128,-1,44
 1004 1124 1004 1124 1004 1065 c 256,45,0
 1004 1006 1004 1006 972 971 c 128,-1,1
EndSplineSet
EndChar

StartChar: daggerdbl
Encoding: 8225 8225 319
Width: 1106
Flags: HMW
LayerCount: 2
Fore
SplineSet
492 1012 m 1,0,1
 453 1006 453 1006 418 992.5 c 128,-1,2
 383 979 383 979 349 966.5 c 0,3,4
 260.6 934 260.6 934 214.3 934 c 128,-1,5
 168 934 168 934 135 969 c 128,-1,6
 102 1004 102 1004 102 1063 c 256,7,8
 102 1122 102 1122 139 1157 c 128,-1,9
 176 1192 176 1192 215 1192 c 128,-1,10
 254 1192 254 1192 285.5 1181.5 c 128,-1,11
 317 1171 317 1171 351 1157 c 0,12,13
 445.924324324 1117.91351351 445.924324324 1117.91351351 500 1110 c 1,14,15
 494.278283485 1165.78673602 494.278283485 1165.78673602 469.139141743 1231.89336801 c 0,16,17
 424 1350.59259259 424 1350.59259259 424 1399.2962963 c 128,-1,18
 424 1448 424 1448 459 1480.5 c 128,-1,19
 494 1513 494 1513 553 1513 c 256,20,21
 612 1513 612 1513 647 1476.5 c 128,-1,22
 682 1440 682 1440 682 1402 c 128,-1,23
 682 1364 682 1364 672 1331 c 128,-1,24
 662 1298 662 1298 648.5 1262.5 c 0,25,26
 608.702210663 1157.84655397 608.702210663 1157.84655397 604 1112 c 1,27,28
 643 1118 643 1118 680 1132.5 c 128,-1,29
 717 1147 717 1147 751.5 1160.5 c 0,30,31
 837.111111111 1194 837.111111111 1194 885.555555556 1194 c 128,-1,32
 934 1194 934 1194 969 1159 c 128,-1,33
 1004 1124 1004 1124 1004 1065 c 256,34,35
 1004 1006 1004 1006 972 971 c 128,-1,36
 940 936 940 936 897 936 c 128,-1,37
 854 936 854 936 822.5 945 c 128,-1,38
 791 954 791 954 757 966.5 c 0,39,40
 660.048723898 1002.14385151 660.048723898 1002.14385151 612 1012 c 1,41,-1
 705 735 l 1,42,-1
 612 459 l 1,43,44
 651 465 651 465 687 478.5 c 128,-1,45
 723 492 723 492 757 504 c 0,46,47
 844.833333333 535 844.833333333 535 892.416666667 535 c 128,-1,48
 940 535 940 535 972 500 c 128,-1,49
 1004 465 1004 465 1004 405.5 c 128,-1,50
 1004 346 1004 346 969 311 c 128,-1,51
 934 276 934 276 893 276 c 128,-1,52
 852 276 852 276 819 286.5 c 128,-1,53
 786 297 786 297 751.5 310.5 c 0,54,55
 655.450704225 348.084507042 655.450704225 348.084507042 604 356 c 1,56,57
 608.423529412 312.870588235 608.423529412 312.870588235 635.211764706 241.435294118 c 0,58,59
 682 116.666666667 682 116.666666667 682 73.8333333333 c 128,-1,60
 682 31 682 31 647 -6 c 128,-1,61
 612 -43 612 -43 553 -43 c 256,62,63
 494 -43 494 -43 459 -10 c 128,-1,64
 424 23 424 23 424 62.5 c 128,-1,65
 424 102 424 102 434 136 c 128,-1,66
 444 170 444 170 457.5 207 c 0,67,68
 495.075297226 309.984147952 495.075297226 309.984147952 500 358 c 1,69,70
 432.016645327 348.051216389 432.016645327 348.051216389 374.508322663 323.525608195 c 0,71,72
 270.103448276 279 270.103448276 279 223 279 c 128,-1,73
 176 279 176 279 139 313.5 c 128,-1,74
 102 348 102 348 102 407.5 c 128,-1,75
 102 467 102 467 135 502 c 128,-1,76
 168 537 168 537 210 537 c 128,-1,77
 252 537 252 537 283.5 526.5 c 128,-1,78
 315 516 315 516 349 502.5 c 0,79,80
 445.623255814 464.134883721 445.623255814 464.134883721 492 457 c 1,81,-1
 406 735 l 1,82,-1
 492 1012 l 1,0,1
EndSplineSet
EndChar

StartChar: section
Encoding: 167 167 320
Width: 1118
Flags: HMW
LayerCount: 2
Fore
SplineSet
338 158 m 1,0,1
 400.04 111 400.04 111 498.02 111 c 128,-1,2
 596 111 596 111 640 142.5 c 128,-1,3
 684 174 684 174 684 216 c 128,-1,4
 684 258 684 258 643 293 c 128,-1,5
 602 328 602 328 539.5 360.5 c 128,-1,6
 477 393 477 393 405.5 427 c 128,-1,7
 334 461 334 461 271.5 502 c 0,8,9
 127 596.792 127 596.792 127 713 c 0,10,11
 127 879.2 127 879.2 324 958 c 1,12,13
 244 1012 244 1012 187.5 1074.5 c 128,-1,14
 131 1137 131 1137 131 1217.5 c 128,-1,15
 131 1298 131 1298 162 1353.5 c 128,-1,16
 193 1409 193 1409 249 1444 c 0,17,18
 359.4 1513 359.4 1513 559.7 1513 c 128,-1,19
 760 1513 760 1513 868.5 1437.5 c 128,-1,20
 977 1362 977 1362 977 1245 c 0,21,22
 977 1161.67346939 977 1161.67346939 921.5 1117.5 c 0,23,24
 875.641025641 1081 875.641025641 1081 803.320512821 1081 c 128,-1,25
 731 1081 731 1081 686 1117 c 128,-1,26
 641 1153 641 1153 641 1198 c 128,-1,27
 641 1243 641 1243 670.5 1262.5 c 128,-1,28
 700 1282 700 1282 741 1294 c 1,29,30
 675.608695652 1341 675.608695652 1341 593.804347826 1341 c 128,-1,31
 512 1341 512 1341 477 1309.5 c 128,-1,32
 442 1278 442 1278 442 1236 c 128,-1,33
 442 1194 442 1194 482 1159 c 128,-1,34
 522 1124 522 1124 582.5 1091.5 c 128,-1,35
 643 1059 643 1059 712.5 1025 c 128,-1,36
 782 991 782 991 842.5 950 c 0,37,38
 983 854.785123967 983 854.785123967 983 739 c 0,39,40
 983 573.677419355 983 573.677419355 788 494 c 1,41,42
 874 442 874 442 934.5 378.5 c 128,-1,43
 995 315 995 315 995 233.5 c 128,-1,44
 995 152 995 152 961.5 97.5 c 128,-1,45
 928 43 928 43 869.5 7 c 0,46,47
 759 -61 759 -61 557 -61 c 0,48,49
 347.805555556 -61 347.805555556 -61 225.5 13 c 0,50,51
 102 87.7226890756 102 87.7226890756 102 207 c 0,52,53
 102 288.326530612 102 288.326530612 157.5 332.5 c 0,54,55
 205.871794872 371 205.871794872 371 276.935897436 371 c 128,-1,56
 348 371 348 371 393 335 c 128,-1,57
 438 299 438 299 438 254 c 128,-1,58
 438 209 438 209 408.5 189.5 c 128,-1,59
 379 170 379 170 338 158 c 1,0,1
633 578 m 1,60,61
 707 606.64516129 707 606.64516129 707 678 c 0,62,63
 707 741.109756098 707 741.109756098 565 822.5 c 0,64,65
 524 846 524 846 479 870 c 1,66,67
 408 836.866666667 408 836.866666667 408 770 c 0,68,69
 408 700.780487805 408 700.780487805 547 624.5 c 0,70,71
 588 602 588 602 633 578 c 1,60,61
EndSplineSet
EndChar

StartChar: paragraph
Encoding: 182 182 321
Width: 1229
Flags: HMW
LayerCount: 2
Fore
SplineSet
1167 1260 m 1,0,-1
 1055 1260 l 1,1,-1
 1055 0 l 1,2,-1
 821 0 l 1,3,-1
 821 1260 l 1,4,-1
 682 1260 l 1,5,-1
 682 0 l 1,6,-1
 449 0 l 1,7,-1
 449 655 l 1,8,9
 272.531193447 658.795028098 272.531193447 658.795028098 162 788.5 c 0,10,11
 61 907.020408163 61 907.020408163 61 1063 c 0,12,13
 61 1225.0625 61 1225.0625 159 1344.5 c 0,14,15
 264.435897436 1473 264.435897436 1473 453 1473 c 2,16,-1
 1167 1473 l 1,17,-1
 1167 1260 l 1,0,-1
EndSplineSet
EndChar

StartChar: copyright
Encoding: 169 169 322
Width: 1860
Flags: HMW
LayerCount: 2
Fore
SplineSet
215 436.5 m 128,-1,1
 154 578 154 578 154 737.5 c 128,-1,2
 154 897 154 897 215 1038.5 c 128,-1,3
 276 1180 276 1180 381.5 1285.5 c 128,-1,4
 487 1391 487 1391 628.5 1452 c 128,-1,5
 770 1513 770 1513 930 1513 c 256,6,7
 1090 1513 1090 1513 1231 1452 c 128,-1,8
 1372 1391 1372 1391 1477.5 1285.5 c 128,-1,9
 1583 1180 1583 1180 1644.5 1038.5 c 128,-1,10
 1706 897 1706 897 1706 737.5 c 128,-1,11
 1706 578 1706 578 1644.5 436.5 c 128,-1,12
 1583 295 1583 295 1477.5 189.5 c 128,-1,13
 1372 84 1372 84 1231 22.5 c 128,-1,14
 1090 -39 1090 -39 930 -39 c 256,15,16
 770 -39 770 -39 628.5 22.5 c 128,-1,17
 487 84 487 84 381.5 189.5 c 128,-1,0
 276 295 276 295 215 436.5 c 128,-1,1
326 737 m 256,18,19
 326 612 326 612 373 501.5 c 128,-1,20
 420 391 420 391 502 309 c 128,-1,21
 584 227 584 227 694.5 180 c 128,-1,22
 805 133 805 133 930 133 c 256,23,24
 1055 133 1055 133 1165.5 180 c 128,-1,25
 1276 227 1276 227 1358 309 c 128,-1,26
 1440 391 1440 391 1487 501.5 c 128,-1,27
 1534 612 1534 612 1534 737 c 256,28,29
 1534 862 1534 862 1487 972.5 c 128,-1,30
 1440 1083 1440 1083 1358 1165 c 128,-1,31
 1276 1247 1276 1247 1165.5 1294 c 128,-1,32
 1055 1341 1055 1341 930 1341 c 256,33,34
 805 1341 805 1341 694.5 1294 c 128,-1,35
 584 1247 584 1247 502 1165 c 128,-1,36
 420 1083 420 1083 373 972.5 c 128,-1,37
 326 862 326 862 326 737 c 256,18,19
772 1133.5 m 128,-1,39
 846 1157 846 1157 921.5 1157 c 128,-1,40
 997 1157 997 1157 1050.5 1135.5 c 128,-1,41
 1104 1114 1104 1114 1126 1096 c 1,42,-1
 1126 1145 l 1,43,-1
 1307 1145 l 1,44,-1
 1307 838 l 1,45,-1
 1116 838 l 1,46,47
 1116 911 1116 911 1078 939 c 128,-1,48
 1040 967 1040 967 985 967 c 0,49,50
 862 967 862 967 862 733 c 256,51,52
 862 602 862 602 898 550 c 128,-1,53
 934 498 934 498 993.5 498 c 128,-1,54
 1053 498 1053 498 1094 533.5 c 128,-1,55
 1135 569 1135 569 1135 647 c 1,56,-1
 1325 647 l 1,57,58
 1325 500.489130435 1325 500.489130435 1234 408.5 c 0,59,60
 1135.56989247 309 1135.56989247 309 946 309 c 0,61,62
 648.150943396 309 648.150943396 309 550 538.5 c 0,63,64
 516 618 516 618 516 732 c 128,-1,65
 516 846 516 846 550 927 c 128,-1,66
 584 1008 584 1008 641 1059 c 128,-1,38
 698 1110 698 1110 772 1133.5 c 128,-1,39
EndSplineSet
EndChar

StartChar: registered
Encoding: 174 174 323
Width: 1368
Flags: HMW
LayerCount: 2
Fore
SplineSet
102 932 m 256,0,1
 102 1171 102 1171 273.5 1342.5 c 0,2,3
 444 1513 444 1513 684 1513 c 256,4,5
 923.414012739 1513 923.414012739 1513 1095 1342.5 c 0,6,7
 1266 1172.58227848 1266 1172.58227848 1266 932 c 256,8,9
 1266 692 1266 692 1095 521 c 128,-1,10
 924 350 924 350 684 350 c 256,11,12
 443.417721519 350 443.417721519 350 273.5 521 c 0,13,14
 102 693.592356688 102 693.592356688 102 932 c 256,0,1
231 932 m 256,15,16
 231 746 231 746 364.5 612.5 c 128,-1,17
 498 479 498 479 684 479 c 256,18,19
 870 479 870 479 1003.5 612.5 c 128,-1,20
 1137 746 1137 746 1137 932 c 256,21,22
 1137 1118 1137 1118 1003.5 1251.5 c 0,23,24
 871 1384 871 1384 684 1384 c 256,25,26
 497 1384 497 1384 364.5 1251.5 c 0,27,28
 231 1118 231 1118 231 932 c 256,15,16
965 1075 m 0,29,30
 965 927.692307692 965 927.692307692 840 920 c 1,31,-1
 840 915 l 1,32,33
 905 909 905 909 925.5 873.5 c 128,-1,34
 946 838 946 838 946 778 c 2,35,-1
 946 756 l 2,36,37
 946 729 946 729 966.5 729 c 128,-1,38
 987 729 987 729 987 756 c 2,39,-1
 987 860 l 1,40,-1
 1049 860 l 1,41,-1
 1049 756 l 2,42,43
 1049 696 1049 696 1014 657 c 128,-1,44
 979 618 979 618 911.5 618 c 128,-1,45
 844 618 844 618 815 628.5 c 128,-1,46
 786 639 786 639 772 657.5 c 0,47,48
 752 683.928571429 752 683.928571429 752 754 c 2,49,-1
 752 784 l 2,50,51
 752 843.727272727 752 843.727272727 728 859 c 0,52,53
 713.857142857 868 713.857142857 868 668 868 c 2,54,-1
 639 868 l 1,55,-1
 639 819 l 2,56,57
 639 797 639 797 649 787.5 c 128,-1,58
 659 778 659 778 688 778 c 1,59,-1
 688 635 l 1,60,-1
 379 635 l 1,61,-1
 379 778 l 1,62,63
 414 778 414 778 427 787.5 c 128,-1,64
 440 797 440 797 440 825 c 2,65,-1
 440 1055 l 2,66,67
 440 1081 440 1081 427 1091.5 c 128,-1,68
 414 1102 414 1102 379 1102 c 1,69,-1
 379 1245 l 1,70,-1
 772 1245 l 2,71,72
 883 1245 883 1245 924 1199 c 128,-1,73
 965 1153 965 1153 965 1075 c 0,29,30
713 963 m 2,74,75
 766 963 766 963 766 1032.5 c 128,-1,76
 766 1102 766 1102 713 1102 c 2,77,-1
 639 1102 l 1,78,-1
 639 963 l 1,79,-1
 713 963 l 2,74,75
EndSplineSet
EndChar

StartChar: trademark
Encoding: 8482 8482 324
Width: 2136
Flags: HMW
LayerCount: 2
Fore
SplineSet
870 1473 m 1,0,-1
 870 1188 l 1,1,-1
 729 1188 l 1,2,3
 729 1253 729 1253 720 1282 c 128,-1,4
 711 1311 711 1311 670 1311 c 2,5,-1
 641 1311 l 1,6,-1
 641 989 l 2,7,8
 641 958 641 958 659.5 946 c 128,-1,9
 678 934 678 934 721 934 c 1,10,-1
 721 754 l 1,11,-1
 272 754 l 1,12,-1
 272 934 l 1,13,14
 315 934 315 934 333.5 946 c 128,-1,15
 352 958 352 958 352 989 c 2,16,-1
 352 1311 l 1,17,-1
 322 1311 l 2,18,19
 281 1311 281 1311 272.5 1282 c 128,-1,20
 264 1253 264 1253 264 1188 c 1,21,-1
 102 1188 l 1,22,-1
 102 1473 l 1,23,-1
 870 1473 l 1,0,-1
1602 754 m 1,24,-1
 1602 934 l 1,25,26
 1642 934 1642 934 1656.5 946 c 128,-1,27
 1671 958 1671 958 1671 989 c 2,28,-1
 1671 1270 l 1,29,-1
 1503 754 l 1,30,-1
 1315 754 l 1,31,-1
 1147 1241 l 1,32,-1
 1147 983 l 2,33,34
 1147 952 1147 952 1160.5 943 c 128,-1,35
 1174 934 1174 934 1217 934 c 1,36,-1
 1217 754 l 1,37,-1
 899 754 l 1,38,-1
 899 934 l 1,39,40
 942 934 942 934 961.5 946 c 128,-1,41
 981 958 981 958 981 989 c 2,42,-1
 981 1237 l 2,43,44
 981 1268 981 1268 961.5 1280 c 128,-1,45
 942 1292 942 1292 899 1292 c 1,46,-1
 899 1473 l 1,47,-1
 1364 1473 l 1,48,-1
 1477 1137 l 1,49,-1
 1575 1473 l 1,50,-1
 2034 1473 l 1,51,-1
 2034 1292 l 1,52,53
 1993 1292 1993 1292 1973.5 1280 c 128,-1,54
 1954 1268 1954 1268 1954 1237 c 2,55,-1
 1954 989 l 2,56,57
 1954 958 1954 958 1973.5 946 c 128,-1,58
 1993 934 1993 934 2034 934 c 1,59,-1
 2034 754 l 1,60,-1
 1602 754 l 1,24,-1
EndSplineSet
EndChar

StartChar: period
Encoding: 46 46 325
Width: 672
Flags: HMW
LayerCount: 2
Fore
SplineSet
82 210 m 0,0,1
 82 262 82 262 102.5 309 c 128,-1,2
 123 356 123 356 156.5 390 c 0,3,4
 230.397058824 465 230.397058824 465 336 465 c 0,5,6
 440 465 440 465 515 390 c 128,-1,7
 590 315 590 315 590 211 c 128,-1,8
 590 107 590 107 515 32 c 128,-1,9
 440 -43 440 -43 336 -43 c 0,10,11
 230.397058824 -43 230.397058824 -43 156.5 32 c 0,12,13
 82 107.611940299 82 107.611940299 82 210 c 0,0,1
EndSplineSet
EndChar

StartChar: comma
Encoding: 44 44 326
Width: 676
Flags: HMW
LayerCount: 2
Fore
SplineSet
133 -113 m 1,0,1
 213 -109 213 -109 260 -85 c 128,-1,2
 307 -61 307 -61 336 -12 c 1,3,4
 225 -12 225 -12 153.5 46 c 128,-1,5
 82 104 82 104 82 223 c 0,6,7
 82 323.582089552 82 323.582089552 154.5 395 c 0,8,9
 225.560606061 465 225.560606061 465 336 465 c 0,10,11
 445.648648649 465 445.648648649 465 521 383 c 0,12,13
 594 303.558823529 594 303.558823529 594 212.279411765 c 128,-1,14
 594 121 594 121 573.5 43 c 128,-1,15
 553 -35 553 -35 502 -102.5 c 0,16,17
 388.020583497 -253.355110077 388.020583497 -253.355110077 133 -285 c 1,18,-1
 133 -113 l 1,0,1
EndSplineSet
EndChar

StartChar: colon
Encoding: 58 58 327
Width: 754
Flags: HMW
LayerCount: 2
Fore
SplineSet
123 210 m 0,0,1
 123 262 123 262 143.5 309 c 128,-1,2
 164 356 164 356 197.5 390 c 0,3,4
 271.397058824 465 271.397058824 465 377 465 c 0,5,6
 481 465 481 465 556 390 c 128,-1,7
 631 315 631 315 631 211 c 128,-1,8
 631 107 631 107 556 32 c 128,-1,9
 481 -43 481 -43 377 -43 c 0,10,11
 271.397058824 -43 271.397058824 -43 197.5 32 c 0,12,13
 123 107.611940299 123 107.611940299 123 210 c 0,0,1
123 847 m 0,14,15
 123 899 123 899 143.5 946 c 128,-1,16
 164 993 164 993 197.5 1027 c 0,17,18
 271.397058824 1102 271.397058824 1102 377 1102 c 0,19,20
 481 1102 481 1102 556 1027 c 128,-1,21
 631 952 631 952 631 848 c 0,22,23
 631 742.397058824 631 742.397058824 556 668.5 c 0,24,25
 480.388059701 594 480.388059701 594 377 594 c 0,26,27
 272 594 272 594 197.5 668.5 c 128,-1,28
 123 743 123 743 123 847 c 0,14,15
EndSplineSet
EndChar

StartChar: semicolon
Encoding: 59 59 328
Width: 754
Flags: HMW
LayerCount: 2
Fore
SplineSet
123 847 m 0,0,1
 123 899 123 899 143.5 946 c 128,-1,2
 164 993 164 993 197.5 1027 c 0,3,4
 271.397058824 1102 271.397058824 1102 377 1102 c 0,5,6
 481 1102 481 1102 556 1027 c 128,-1,7
 631 952 631 952 631 848 c 0,8,9
 631 742.397058824 631 742.397058824 556 668.5 c 0,10,11
 480.388059701 594 480.388059701 594 377 594 c 0,12,13
 272 594 272 594 197.5 668.5 c 128,-1,14
 123 743 123 743 123 847 c 0,0,1
174 -113 m 1,15,16
 254 -109 254 -109 301 -85 c 128,-1,17
 348 -61 348 -61 377 -12 c 1,18,19
 266 -12 266 -12 194.5 46 c 128,-1,20
 123 104 123 104 123 223 c 0,21,22
 123 323.582089552 123 323.582089552 195.5 395 c 0,23,24
 266.560606061 465 266.560606061 465 377 465 c 0,25,26
 486.648648649 465 486.648648649 465 562 383 c 0,27,28
 635 303.558823529 635 303.558823529 635 212.279411765 c 128,-1,29
 635 121 635 121 614.5 43 c 128,-1,30
 594 -35 594 -35 543 -102.5 c 0,31,32
 429.020583497 -253.355110077 429.020583497 -253.355110077 174 -285 c 1,33,-1
 174 -113 l 1,15,16
EndSplineSet
EndChar

StartChar: exclam
Encoding: 33 33 329
Width: 754
Flags: HMW
LayerCount: 2
Fore
SplineSet
131 1178 m 1,0,1
 123 1214 123 1214 123 1262.5 c 128,-1,2
 123 1311 123 1311 143.5 1358 c 128,-1,3
 164 1405 164 1405 197.5 1439 c 0,4,5
 270.411764706 1513 270.411764706 1513 377 1513 c 0,6,7
 482 1513 482 1513 556 1439 c 0,8,9
 631 1364 631 1364 631 1260 c 0,10,11
 631 1210 631 1210 623 1178 c 1,12,-1
 510 532 l 1,13,-1
 248 532 l 1,14,-1
 131 1178 l 1,0,1
123 210 m 0,15,16
 123 262 123 262 143.5 309 c 128,-1,17
 164 356 164 356 197.5 390 c 0,18,19
 271.397058824 465 271.397058824 465 377 465 c 0,20,21
 481 465 481 465 556 390 c 128,-1,22
 631 315 631 315 631 211 c 128,-1,23
 631 107 631 107 556 32 c 128,-1,24
 481 -43 481 -43 377 -43 c 0,25,26
 271.397058824 -43 271.397058824 -43 197.5 32 c 0,27,28
 123 107.611940299 123 107.611940299 123 210 c 0,15,16
EndSplineSet
EndChar

StartChar: exclamdown
Encoding: 161 161 330
Width: 754
Flags: HMW
LayerCount: 2
Fore
SplineSet
143.5 112 m 128,-1,1
 123 158 123 158 123 194.5 c 0,2,3
 123 255 123 255 131 293 c 1,4,-1
 248 938 l 1,5,-1
 510 938 l 1,6,-1
 623 293 l 1,7,8
 631 259 631 259 631 208.5 c 128,-1,9
 631 158 631 158 610.5 112 c 128,-1,10
 590 66 590 66 556 32 c 0,11,12
 481 -43 481 -43 377 -43 c 0,13,14
 271.397058824 -43 271.397058824 -43 197.5 32 c 0,15,0
 164 66 164 66 143.5 112 c 128,-1,1
123 1258.5 m 0,16,17
 123 1311 123 1311 143.5 1358 c 128,-1,18
 164 1405 164 1405 197.5 1439 c 0,19,20
 270.411764706 1513 270.411764706 1513 377 1513 c 0,21,22
 482 1513 482 1513 556 1439 c 0,23,24
 631 1364 631 1364 631 1260 c 0,25,26
 631 1154.39705882 631 1154.39705882 556 1080.5 c 0,27,28
 480.388059701 1006 480.388059701 1006 377 1006 c 0,29,30
 272 1006 272 1006 197.5 1080.5 c 128,-1,31
 123 1155 123 1155 123 1258.5 c 0,16,17
EndSplineSet
EndChar

StartChar: question
Encoding: 63 63 331
Width: 1307
Flags: HMW
LayerCount: 2
Fore
SplineSet
422 1237 m 1,0,1
 553 1198.3442623 553 1198.3442623 553 1061 c 0,2,3
 553 989.372881356 553 989.372881356 492.5 934 c 0,4,5
 430.222222222 877 430.222222222 877 315 877 c 0,6,7
 148.092783505 877 148.092783505 877 85 1004.5 c 0,8,9
 61 1053 61 1053 61 1132.5 c 128,-1,10
 61 1212 61 1212 105.5 1281 c 128,-1,11
 150 1350 150 1350 228.5 1397 c 0,12,13
 388.840425532 1493 388.840425532 1493 665.420212766 1493 c 128,-1,14
 942 1493 942 1493 1083.5 1391.5 c 128,-1,15
 1225 1290 1225 1290 1225 1104 c 0,16,17
 1225 885.733870968 1225 885.733870968 980 741.5 c 0,18,19
 918 705 918 705 862.5 671 c 128,-1,20
 807 637 807 637 771 602 c 128,-1,21
 735 567 735 567 735 522 c 1,22,-1
 453 522 l 1,23,24
 453 709.372881356 453 709.372881356 564.5 853 c 0,25,26
 631.661844485 939.513562387 631.661844485 939.513562387 653.830922242 993.256781193 c 128,-1,27
 676 1047 676 1047 676 1098 c 256,28,29
 676 1199.875 676 1199.875 595 1241.5 c 0,30,31
 559 1260 559 1260 513 1260 c 128,-1,32
 467 1260 467 1260 422 1237 c 1,0,1
342 210 m 0,33,34
 342 262 342 262 362.5 309 c 128,-1,35
 383 356 383 356 417 390 c 0,36,37
 492 465 492 465 596 465 c 128,-1,38
 700 465 700 465 775 390 c 128,-1,39
 850 315 850 315 850 211 c 128,-1,40
 850 107 850 107 775 32 c 128,-1,41
 700 -43 700 -43 596 -43 c 128,-1,42
 492 -43 492 -43 417 32 c 128,-1,43
 342 107 342 107 342 210 c 0,33,34
EndSplineSet
EndChar

StartChar: questiondown
Encoding: 191 191 332
Width: 1307
Flags: HMW
LayerCount: 2
Fore
SplineSet
885 233 m 1,0,1
 754 273.14516129 754 273.14516129 754 410 c 0,2,3
 754 483.5 754 483.5 814 536.5 c 0,4,5
 879.094339623 594 879.094339623 594 991 594 c 0,6,7
 1158.83333333 594 1158.83333333 594 1221.5 466 c 0,8,9
 1245 418 1245 418 1245 338 c 128,-1,10
 1245 258 1245 258 1201 189.5 c 128,-1,11
 1157 121 1157 121 1078 74 c 0,12,13
 914.957446809 -23 914.957446809 -23 639.978723404 -23 c 128,-1,14
 365 -23 365 -23 223.5 78.5 c 128,-1,15
 82 180 82 180 82 367 c 0,16,17
 82 584.256 82 584.256 326.5 729 c 0,18,19
 389 766 389 766 444.5 800 c 128,-1,20
 500 834 500 834 535.5 868.5 c 128,-1,21
 571 903 571 903 571 948 c 1,22,-1
 854 948 l 1,23,24
 854 827 854 827 819 751.5 c 128,-1,25
 784 676 784 676 742 617.5 c 128,-1,26
 700 559 700 559 665.5 504 c 128,-1,27
 631 449 631 449 631 385.5 c 128,-1,28
 631 322 631 322 653.5 285 c 128,-1,29
 676 248 676 248 712 229.5 c 128,-1,30
 748 211 748 211 793 211 c 128,-1,31
 838 211 838 211 885 233 c 1,0,1
965 1258.5 m 0,32,33
 965 1206 965 1206 944.5 1160 c 128,-1,34
 924 1114 924 1114 890 1080.5 c 0,35,36
 814.388059701 1006 814.388059701 1006 711 1006 c 0,37,38
 606 1006 606 1006 531.5 1080.5 c 128,-1,39
 457 1155 457 1155 457 1260 c 0,40,41
 457 1363.3880597 457 1363.3880597 531.5 1439 c 0,42,43
 604.411764706 1513 604.411764706 1513 711 1513 c 0,44,45
 816 1513 816 1513 890 1439 c 0,46,47
 965 1364 965 1364 965 1258.5 c 0,32,33
EndSplineSet
EndChar

StartChar: quoteleft
Encoding: 8216 8216 333
Width: 651
Flags: HMW
LayerCount: 2
Fore
SplineSet
520 1350 m 1,0,1
 377.426028921 1346.24805339 377.426028921 1346.24805339 328 1255 c 1,2,3
 432 1255 432 1255 500.5 1204 c 128,-1,4
 569 1153 569 1153 569 1038 c 0,5,6
 569 892.863636364 569 892.863636364 433 829.5 c 0,7,8
 389 809 389 809 332 809 c 0,9,10
 219 809 219 809 150.5 882.5 c 128,-1,11
 82 956 82 956 82 1079 c 0,12,13
 82 1331.41176471 82 1331.41176471 306 1450 c 0,14,15
 391 1495 391 1495 520 1513 c 1,16,-1
 520 1350 l 1,0,1
EndSplineSet
EndChar

StartChar: quoteright
Encoding: 8217 8217 334
Width: 651
Flags: HMW
LayerCount: 2
Fore
SplineSet
131 973 m 1,0,1
 272.133598636 976.714042069 272.133598636 976.714042069 324 1067 c 1,2,3
 219 1067 219 1067 150.5 1118 c 128,-1,4
 82 1169 82 1169 82 1284 c 0,5,6
 82 1376.47540984 82 1376.47540984 143.5 1441 c 0,7,8
 212.125 1513 212.125 1513 322.0625 1513 c 128,-1,9
 432 1513 432 1513 500.5 1439.5 c 128,-1,10
 569 1366 569 1366 569 1243 c 0,11,12
 569 992.405882353 569 992.405882353 345 872.5 c 0,13,14
 260 827 260 827 131 809 c 1,15,-1
 131 973 l 1,0,1
EndSplineSet
EndChar

StartChar: quotedblleft
Encoding: 8220 8220 335
Width: 1184
Flags: HMW
LayerCount: 2
Fore
SplineSet
520 1350 m 1,0,1
 377.426028921 1346.24805339 377.426028921 1346.24805339 328 1255 c 1,2,3
 432 1255 432 1255 500.5 1204 c 128,-1,4
 569 1153 569 1153 569 1038 c 0,5,6
 569 892.863636364 569 892.863636364 433 829.5 c 0,7,8
 389 809 389 809 332 809 c 0,9,10
 219 809 219 809 150.5 882.5 c 128,-1,11
 82 956 82 956 82 1079 c 0,12,13
 82 1331.41176471 82 1331.41176471 306 1450 c 0,14,15
 391 1495 391 1495 520 1513 c 1,16,-1
 520 1350 l 1,0,1
1053 1350 m 1,17,18
 977 1348 977 1348 932 1325.5 c 128,-1,19
 887 1303 887 1303 860 1255 c 1,20,21
 965 1255 965 1255 1033.5 1204 c 128,-1,22
 1102 1153 1102 1153 1102 1038 c 0,23,24
 1102 892.863636364 1102 892.863636364 966 829.5 c 0,25,26
 922 809 922 809 864 809 c 0,27,28
 752 809 752 809 683 882.5 c 128,-1,29
 614 956 614 956 614 1079 c 0,30,31
 614 1330.88235294 614 1330.88235294 839 1450 c 0,32,33
 924 1495 924 1495 1053 1513 c 1,34,-1
 1053 1350 l 1,17,18
EndSplineSet
EndChar

StartChar: quotedblright
Encoding: 8221 8221 336
Width: 1184
Flags: HMW
LayerCount: 2
Fore
SplineSet
664 973 m 1,0,1
 804.14693172 976.737251513 804.14693172 976.737251513 856 1067 c 1,2,3
 752 1067 752 1067 683 1118 c 128,-1,4
 614 1169 614 1169 614 1284 c 0,5,6
 614 1377 614 1377 676 1441 c 0,7,8
 745.75 1513 745.75 1513 855.375 1513 c 128,-1,9
 965 1513 965 1513 1033.5 1439.5 c 128,-1,10
 1102 1366 1102 1366 1102 1243 c 0,11,12
 1102 992.405882353 1102 992.405882353 878 872.5 c 0,13,14
 793 827 793 827 664 809 c 1,15,-1
 664 973 l 1,0,1
131 973 m 1,16,17
 272.133598636 976.714042069 272.133598636 976.714042069 324 1067 c 1,18,19
 219 1067 219 1067 150.5 1118 c 128,-1,20
 82 1169 82 1169 82 1284 c 0,21,22
 82 1376.47540984 82 1376.47540984 143.5 1441 c 0,23,24
 212.125 1513 212.125 1513 322.0625 1513 c 128,-1,25
 432 1513 432 1513 500.5 1439.5 c 128,-1,26
 569 1366 569 1366 569 1243 c 0,27,28
 569 992.405882353 569 992.405882353 345 872.5 c 0,29,30
 260 827 260 827 131 809 c 1,31,-1
 131 973 l 1,16,17
EndSplineSet
EndChar

StartChar: quotesinglbase
Encoding: 8218 8218 337
Width: 651
Flags: HMW
LayerCount: 2
Fore
SplineSet
131 -94 m 1,0,1
 272.133598636 -90.2859579306 272.133598636 -90.2859579306 324 0 c 1,2,3
 219 0 219 0 150.5 51 c 128,-1,4
 82 102 82 102 82 217 c 0,5,6
 82 309.475409836 82 309.475409836 143.5 374 c 0,7,8
 212.125 446 212.125 446 322.0625 446 c 128,-1,9
 432 446 432 446 500.5 372.5 c 128,-1,10
 569 299 569 299 569 176 c 0,11,12
 569 -76.4117647059 569 -76.4117647059 345 -195 c 0,13,14
 260 -240 260 -240 131 -258 c 1,15,-1
 131 -94 l 1,0,1
EndSplineSet
EndChar

StartChar: quotedblbase
Encoding: 8222 8222 338
Width: 1184
Flags: HMW
LayerCount: 2
Fore
SplineSet
664 -94 m 1,0,1
 804.14693172 -90.2627484875 804.14693172 -90.2627484875 856 0 c 1,2,3
 752 0 752 0 683 51 c 128,-1,4
 614 102 614 102 614 217 c 0,5,6
 614 310 614 310 676 374 c 0,7,8
 745.75 446 745.75 446 855.375 446 c 128,-1,9
 965 446 965 446 1033.5 372.5 c 128,-1,10
 1102 299 1102 299 1102 176 c 0,11,12
 1102 -76.4117647059 1102 -76.4117647059 878 -195 c 0,13,14
 793 -240 793 -240 664 -258 c 1,15,-1
 664 -94 l 1,0,1
131 -94 m 1,16,17
 272.133598636 -90.2859579306 272.133598636 -90.2859579306 324 0 c 1,18,19
 219 0 219 0 150.5 51 c 128,-1,20
 82 102 82 102 82 217 c 0,21,22
 82 309.475409836 82 309.475409836 143.5 374 c 0,23,24
 212.125 446 212.125 446 322.0625 446 c 128,-1,25
 432 446 432 446 500.5 372.5 c 128,-1,26
 569 299 569 299 569 176 c 0,27,28
 569 -76.4117647059 569 -76.4117647059 345 -195 c 0,29,30
 260 -240 260 -240 131 -258 c 1,31,-1
 131 -94 l 1,16,17
EndSplineSet
EndChar

StartChar: guilsinglleft
Encoding: 8249 8249 339
Width: 618
Flags: HMW
LayerCount: 2
Fore
SplineSet
545 903 m 1,0,1
 428 618.405405405 428 618.405405405 428 561 c 0,2,3
 428 504.411764706 428 504.411764706 473 404.705882353 c 128,-1,4
 518 305 518 305 557 219 c 1,5,-1
 283 219 l 1,6,7
 82 491.322580645 82 491.322580645 82 561 c 128,-1,8
 82 630.677419355 82 630.677419355 283 903 c 1,9,-1
 545 903 l 1,0,1
EndSplineSet
EndChar

StartChar: guilsinglright
Encoding: 8250 8250 340
Width: 618
Flags: HMW
LayerCount: 2
Fore
SplineSet
537 561 m 128,-1,1
 537 495.786885246 537 495.786885246 336 219 c 1,2,-1
 61 219 l 1,3,4
 100 305 100 305 126 361.5 c 128,-1,5
 152 418 152 418 166 457 c 0,6,7
 190 523.857142857 190 523.857142857 190 572.347490347 c 128,-1,8
 190 620.837837838 190 620.837837838 74 903 c 1,9,-1
 336 903 l 1,10,0
 537 626.213114754 537 626.213114754 537 561 c 128,-1,1
EndSplineSet
EndChar

StartChar: guillemotleft
Encoding: 171 171 341
Width: 1028
Flags: HMW
LayerCount: 2
Fore
SplineSet
545 903 m 1,0,1
 428 618.405405405 428 618.405405405 428 561 c 0,2,3
 428 504.411764706 428 504.411764706 473 404.705882353 c 128,-1,4
 518 305 518 305 557 219 c 1,5,-1
 283 219 l 1,6,7
 82 491.322580645 82 491.322580645 82 561 c 128,-1,8
 82 630.677419355 82 630.677419355 283 903 c 1,9,-1
 545 903 l 1,0,1
492 561 m 0,10,11
 492 627.590163934 492 627.590163934 692 903 c 1,12,-1
 954 903 l 1,13,14
 852.608695652 649.52173913 852.608695652 649.52173913 845.304347826 610.260869565 c 128,-1,15
 838 571 838 571 838 557 c 128,-1,16
 838 543 838 543 843 519.5 c 128,-1,17
 848 496 848 496 862.5 457 c 0,18,19
 878.111313869 415.010948905 878.111313869 415.010948905 967 219 c 1,20,-1
 692 219 l 1,21,22
 524.420223244 449.765594222 524.420223244 449.765594222 500 521.5 c 0,23,24
 492 545 492 545 492 561 c 0,10,11
EndSplineSet
EndChar

StartChar: guillemotright
Encoding: 187 187 342
Width: 1028
Flags: HMW
LayerCount: 2
Fore
SplineSet
946 561 m 128,-1,1
 946 491.322580645 946 491.322580645 745 219 c 1,2,-1
 471 219 l 1,3,4
 584.152106886 468.514902364 584.152106886 468.514902364 592.076053443 505.757451182 c 128,-1,5
 600 543 600 543 600 561 c 0,6,7
 600 618.405405405 600 618.405405405 483 903 c 1,8,-1
 745 903 l 1,9,0
 946 630.677419355 946 630.677419355 946 561 c 128,-1,1
537 561 m 128,-1,11
 537 495.786885246 537 495.786885246 336 219 c 1,12,-1
 61 219 l 1,13,14
 100 305 100 305 126 361.5 c 128,-1,15
 152 418 152 418 166 457 c 0,16,17
 190 523.857142857 190 523.857142857 190 572.347490347 c 128,-1,18
 190 620.837837838 190 620.837837838 74 903 c 1,19,-1
 336 903 l 1,20,10
 537 626.213114754 537 626.213114754 537 561 c 128,-1,11
EndSplineSet
EndChar

StartChar: periodcentered
Encoding: 183 183 343
Width: 672
Flags: HMW
LayerCount: 2
Fore
SplineSet
82 724 m 0,0,1
 82 776 82 776 102.5 823 c 128,-1,2
 123 870 123 870 156.5 904 c 0,3,4
 230.397058824 979 230.397058824 979 336 979 c 0,5,6
 440 979 440 979 515 904 c 128,-1,7
 590 829 590 829 590 725 c 128,-1,8
 590 621 590 621 515 546 c 128,-1,9
 440 471 440 471 336 471 c 0,10,11
 230.397058824 471 230.397058824 471 156.5 546 c 0,12,13
 82 621.611940299 82 621.611940299 82 724 c 0,0,1
EndSplineSet
EndChar

StartChar: ellipsis
Encoding: 8230 8230 344
Width: 2015
Flags: HMW
LayerCount: 2
Fore
SplineSet
82 210 m 0,0,1
 82 262 82 262 102.5 309 c 128,-1,2
 123 356 123 356 156.5 390 c 0,3,4
 230.397058824 465 230.397058824 465 336 465 c 0,5,6
 440 465 440 465 515 390 c 128,-1,7
 590 315 590 315 590 211 c 128,-1,8
 590 107 590 107 515 32 c 128,-1,9
 440 -43 440 -43 336 -43 c 0,10,11
 230.397058824 -43 230.397058824 -43 156.5 32 c 0,12,13
 82 107.611940299 82 107.611940299 82 210 c 0,0,1
754 210 m 0,14,15
 754 262 754 262 774.5 309 c 128,-1,16
 795 356 795 356 828.5 390 c 0,17,18
 902.397058824 465 902.397058824 465 1008 465 c 0,19,20
 1112 465 1112 465 1187 390 c 128,-1,21
 1262 315 1262 315 1262 211 c 128,-1,22
 1262 107 1262 107 1187 32 c 128,-1,23
 1112 -43 1112 -43 1008 -43 c 0,24,25
 902.397058824 -43 902.397058824 -43 828.5 32 c 0,26,27
 754 107.611940299 754 107.611940299 754 210 c 0,14,15
1425 210 m 0,28,29
 1425 262 1425 262 1445.5 309 c 128,-1,30
 1466 356 1466 356 1500 390 c 0,31,32
 1575 465 1575 465 1679 465 c 0,33,34
 1784.60294118 465 1784.60294118 465 1858.5 390 c 0,35,36
 1933 314.388059701 1933 314.388059701 1933 211 c 128,-1,37
 1933 107.611940299 1933 107.611940299 1858.5 32 c 0,38,39
 1784.60294118 -43 1784.60294118 -43 1679 -43 c 0,40,41
 1575 -43 1575 -43 1500 32 c 128,-1,42
 1425 107 1425 107 1425 210 c 0,28,29
EndSplineSet
EndChar

StartChar: hyphen
Encoding: 45 45 345
Width: 860
Flags: HMW
LayerCount: 2
Fore
SplineSet
82 819 m 1,0,-1
 778 819 l 1,1,-1
 778 424 l 1,2,-1
 82 424 l 1,3,-1
 82 819 l 1,0,-1
EndSplineSet
EndChar

StartChar: uni00AD
Encoding: 173 173 346
Width: 860
Flags: HMW
LayerCount: 2
Fore
SplineSet
82 819 m 1,0,-1
 778 819 l 1,1,-1
 778 424 l 1,2,-1
 82 424 l 1,3,-1
 82 819 l 1,0,-1
EndSplineSet
EndChar

StartChar: endash
Encoding: 8211 8211 347
Width: 1024
Flags: HMW
LayerCount: 2
Fore
SplineSet
61 778 m 1,0,-1
 963 778 l 1,1,-1
 963 465 l 1,2,-1
 61 465 l 1,3,-1
 61 778 l 1,0,-1
EndSplineSet
EndChar

StartChar: emdash
Encoding: 8212 8212 348
Width: 2048
Flags: HMW
LayerCount: 2
Fore
SplineSet
0 778 m 1,0,-1
 2048 778 l 1,1,-1
 2048 465 l 1,2,-1
 0 465 l 1,3,-1
 0 778 l 1,0,-1
EndSplineSet
EndChar

StartChar: underscore
Encoding: 95 95 349
Width: 1229
Flags: HMW
LayerCount: 2
Fore
SplineSet
1229 -102 m 1,0,-1
 1229 -428 l 1,1,-1
 0 -428 l 1,2,-1
 0 -102 l 1,3,-1
 1229 -102 l 1,0,-1
EndSplineSet
EndChar

StartChar: grave
Encoding: 96 96 350
Width: 1024
Flags: HMW
LayerCount: 2
Fore
SplineSet
438 1548 m 1,0,-1
 647 1239 l 1,1,-1
 401 1239 l 1,2,-1
 35 1548 l 1,3,-1
 438 1548 l 1,0,-1
EndSplineSet
EndChar

StartChar: acute
Encoding: 180 180 351
Width: 1024
Flags: HMW
LayerCount: 2
Fore
SplineSet
907 1548 m 1,0,-1
 541 1239 l 1,1,-1
 295 1239 l 1,2,-1
 504 1548 l 1,3,-1
 907 1548 l 1,0,-1
EndSplineSet
EndChar

StartChar: dieresis
Encoding: 168 168 352
Width: 1024
Flags: HMW
LayerCount: 2
Fore
SplineSet
172 1403 m 0,0,1
 172 1493.01886792 172 1493.01886792 262.5 1534 c 0,2,3
 289 1546 289 1546 317 1546 c 0,4,5
 377 1546 377 1546 418 1504 c 128,-1,6
 459 1462 459 1462 459 1400.5 c 128,-1,7
 459 1339 459 1339 419 1299.5 c 128,-1,8
 379 1260 379 1260 318.5 1260 c 128,-1,9
 258 1260 258 1260 215 1301.5 c 128,-1,10
 172 1343 172 1343 172 1403 c 0,0,1
605 1301.5 m 128,-1,12
 563 1343 563 1343 563 1400.5 c 128,-1,13
 563 1458 563 1458 605 1502 c 128,-1,14
 647 1546 647 1546 706.5 1546 c 128,-1,15
 766 1546 766 1546 808 1504 c 128,-1,16
 850 1462 850 1462 850 1400.5 c 128,-1,17
 850 1339 850 1339 809 1299.5 c 128,-1,18
 768 1260 768 1260 707.5 1260 c 128,-1,11
 647 1260 647 1260 605 1301.5 c 128,-1,12
EndSplineSet
EndChar

StartChar: macron
Encoding: 175 175 353
Width: 1024
Flags: HMW
LayerCount: 2
Fore
SplineSet
205 1507 m 1,0,-1
 819 1507 l 1,1,-1
 819 1278 l 1,2,-1
 205 1278 l 1,3,-1
 205 1507 l 1,0,-1
EndSplineSet
EndChar

StartChar: cedilla
Encoding: 184 184 354
Width: 1024
Flags: HMW
LayerCount: 2
Fore
SplineSet
535 -94 m 1,0,1
 577 -88 577 -88 592 -88 c 0,2,3
 702 -88 702 -88 754.5 -146.5 c 128,-1,4
 807 -205 807 -205 807 -285 c 128,-1,5
 807 -365 807 -365 741.5 -427 c 128,-1,6
 676 -489 676 -489 555 -489 c 128,-1,7
 434 -489 434 -489 347 -461.5 c 128,-1,8
 260 -434 260 -434 174 -393 c 1,9,-1
 244 -248 l 1,10,11
 387.333333333 -334 387.333333333 -334 487 -334 c 0,12,13
 559 -334 559 -334 559 -279 c 0,14,15
 559 -256 559 -256 541.5 -236.5 c 128,-1,16
 524 -217 524 -217 483 -217 c 128,-1,17
 442 -217 442 -217 406 -225 c 1,18,-1
 406 20 l 1,19,-1
 535 20 l 1,20,-1
 535 -94 l 1,0,1
EndSplineSet
EndChar

StartChar: circumflex
Encoding: 710 710 355
Width: 1024
Flags: HMW
LayerCount: 2
Fore
SplineSet
356 1548 m 1,0,-1
 666 1548 l 1,1,-1
 913 1239 l 1,2,-1
 670 1239 l 1,3,-1
 510 1350 l 1,4,-1
 352 1239 l 1,5,-1
 109 1239 l 1,6,-1
 356 1548 l 1,0,-1
EndSplineSet
EndChar

StartChar: caron
Encoding: 711 711 356
Width: 1024
Flags: HMW
LayerCount: 2
Fore
SplineSet
109 1548 m 1,0,-1
 352 1548 l 1,1,-1
 510 1438 l 1,2,-1
 670 1548 l 1,3,-1
 913 1548 l 1,4,-1
 666 1239 l 1,5,-1
 356 1239 l 1,6,-1
 109 1548 l 1,0,-1
EndSplineSet
EndChar

StartChar: breve
Encoding: 728 728 357
Width: 1024
Flags: HMW
LayerCount: 2
Fore
SplineSet
340 1548 m 1,0,1
 370.068441065 1472.82889734 370.068441065 1472.82889734 439.5 1454 c 0,2,3
 469 1446 469 1446 512 1446 c 256,4,5
 591.586206897 1446 591.586206897 1446 620.293103448 1468.5 c 0,6,7
 656.4 1496.8 656.4 1496.8 682 1548 c 1,8,-1
 879 1548 l 1,9,10
 868 1399 868 1399 773 1319 c 128,-1,11
 678 1239 678 1239 512 1239 c 256,12,13
 346 1239 346 1239 250 1318 c 128,-1,14
 154 1397 154 1397 143 1548 c 1,15,-1
 340 1548 l 1,0,1
EndSplineSet
EndChar

